<svg xmlns="http://www.w3.org/2000/svg" enable-background="new 0 0 24 24" viewBox="0 0 24 24"><path fill="#303c42" d="M23.5,3H14V0.5c0-0.149-0.066-0.291-0.182-0.385c-0.114-0.095-0.268-0.134-0.413-0.106l-13,2.5   C0.17,2.554,0,2.76,0,3v18c0,0.24,0.17,0.446,0.405,0.491l13,2.5C13.437,23.997,13.469,24,13.5,24c0.115,0,0.229-0.04,0.318-0.115   C13.934,23.791,14,23.649,14,23.5V21h9.5c0.276,0,0.5-0.224,0.5-0.5v-17C24,3.224,23.776,3,23.5,3z"/><polygon fill="#1565c0" points="13 22.895 1 20.587 1 3.413 13 1.106"/><path fill="#fff" d="M23 20h-9v-1.5h7.5c.276 0 .5-.224.5-.5s-.224-.5-.5-.5H14v-2h7.5c.276 0 .5-.224.5-.5s-.224-.5-.5-.5H14v-2h7.5c.276 0 .5-.224.5-.5s-.224-.5-.5-.5H14v-2h7.5C21.776 9.5 22 9.276 22 9s-.224-.5-.5-.5H14v-2h7.5C21.776 6.5 22 6.276 22 6s-.224-.5-.5-.5H14V4h9V20zM10.629 7.517c-.269-.073-.542.088-.612.354l-1.534 5.751L6.98 8.363C6.92 8.15 6.727 8.003 6.505 8 6.31 8.04 6.088 8.141 6.022 8.353L4.55 13.138 3.485 8.879C3.418 8.61 3.141 8.447 2.879 8.515 2.61 8.582 2.448 8.854 2.515 9.121l1.5 6c.055.218.248.373.472.379.27.006.426-.139.491-.353l1.505-4.889 1.536 5.38c.061.215.258.363.48.363.001 0 .003 0 .004 0 .226-.002.421-.154.479-.371l2.001-7.501C11.055 7.862 10.896 7.588 10.629 7.517z"/><linearGradient id="a" x1="10" x2="22.5" y1="8" y2="20.5" gradientUnits="userSpaceOnUse"><stop offset="0" stop-opacity=".1"/><stop offset="1" stop-opacity="0"/></linearGradient><path fill="url(#a)" d="M16.5,6.5H14v2h4.5L16.5,6.5z M14,4v1.5h1.5L14,4z M22,12c0,0.276-0.224,0.5-0.5,0.5H14v2   h7.5c0.276,0,0.5,0.224,0.5,0.5s-0.224,0.5-0.5,0.5H14v2h7.5c0.276,0,0.5,0.224,0.5,0.5s-0.224,0.5-0.5,0.5H14V20h9v-7L22,12z    M19.5,9.5H14v2h7.5L19.5,9.5z"/><linearGradient id="b" x1="-1.442" x2="25.059" y1="5.982" y2="18.34" gradientUnits="userSpaceOnUse"><stop offset="0" stop-color="#fff" stop-opacity=".2"/><stop offset="1" stop-color="#fff" stop-opacity="0"/></linearGradient><path fill="url(#b)" d="M23.5,3H14V0.5c0-0.149-0.066-0.291-0.182-0.385c-0.114-0.095-0.268-0.134-0.413-0.106   l-13,2.5C0.17,2.554,0,2.76,0,3v18c0,0.24,0.17,0.446,0.405,0.491l13,2.5C13.437,23.997,13.469,24,13.5,24   c0.115,0,0.229-0.04,0.318-0.115C13.934,23.791,14,23.649,14,23.5V21h9.5c0.276,0,0.5-0.224,0.5-0.5v-17C24,3.224,23.776,3,23.5,3z   "/></svg>