<svg width="392" height="392" viewBox="0 0 392 392" fill="none" xmlns="http://www.w3.org/2000/svg">
<path d="M0 50C0 22.3858 22.3858 0 50 0H342C369.614 0 392 22.3858 392 50V342C392 369.614 369.614 392 342 392H50C22.3858 392 0 369.614 0 342V50Z" fill="#A1C181"/>
<path d="M134.764 281.366H144.386V293.946C143.117 294.377 141.791 294.717 140.408 294.966C139.048 295.215 137.496 295.34 135.75 295.34C132.124 295.34 129.336 294.275 127.386 292.144C125.437 290.013 124.462 286.908 124.462 282.828C124.462 280.289 124.95 278.091 125.924 276.232C126.922 274.373 128.361 272.934 130.242 271.914C132.124 270.894 134.424 270.384 137.144 270.384C138.436 270.384 139.706 270.52 140.952 270.792C142.199 271.064 143.332 271.427 144.352 271.88L142.652 275.994C141.904 275.609 141.054 275.291 140.102 275.042C139.15 274.793 138.153 274.668 137.11 274.668C135.614 274.668 134.311 275.008 133.2 275.688C132.112 276.368 131.262 277.331 130.65 278.578C130.061 279.802 129.766 281.253 129.766 282.93C129.766 284.517 129.982 285.922 130.412 287.146C130.843 288.37 131.523 289.333 132.452 290.036C133.382 290.716 134.594 291.056 136.09 291.056C136.816 291.056 137.428 291.022 137.926 290.954C138.448 290.886 138.924 290.807 139.354 290.716V285.65H134.764V281.366ZM164.128 295H150.154V270.724H164.128V274.94H155.288V280.278H163.516V284.494H155.288V290.75H164.128V295ZM183.493 288.268C183.493 290.421 182.711 292.144 181.147 293.436C179.606 294.705 177.407 295.34 174.551 295.34C171.99 295.34 169.7 294.853 167.683 293.878V289.084C168.839 289.583 170.029 290.047 171.253 290.478C172.5 290.886 173.735 291.09 174.959 291.09C176.228 291.09 177.124 290.852 177.645 290.376C178.189 289.877 178.461 289.254 178.461 288.506C178.461 287.894 178.246 287.373 177.815 286.942C177.407 286.511 176.852 286.115 176.149 285.752C175.446 285.367 174.642 284.959 173.735 284.528C173.168 284.256 172.556 283.939 171.899 283.576C171.242 283.191 170.607 282.726 169.995 282.182C169.406 281.615 168.918 280.935 168.533 280.142C168.148 279.349 167.955 278.397 167.955 277.286C167.955 275.11 168.692 273.421 170.165 272.22C171.638 270.996 173.644 270.384 176.183 270.384C177.452 270.384 178.654 270.531 179.787 270.826C180.943 271.121 182.144 271.54 183.391 272.084L181.725 276.096C180.614 275.643 179.617 275.291 178.733 275.042C177.849 274.793 176.942 274.668 176.013 274.668C175.038 274.668 174.29 274.895 173.769 275.348C173.248 275.801 172.987 276.391 172.987 277.116C172.987 277.977 173.372 278.657 174.143 279.156C174.914 279.655 176.058 280.267 177.577 280.992C178.824 281.581 179.878 282.193 180.739 282.828C181.623 283.463 182.303 284.211 182.779 285.072C183.255 285.933 183.493 286.999 183.493 288.268ZM197.256 295H192.122V275.008H185.526V270.724H203.852V275.008H197.256V295ZM207.595 295V270.724H212.729V295H207.595ZM240.883 282.828C240.883 285.344 240.464 287.543 239.625 289.424C238.809 291.283 237.551 292.733 235.851 293.776C234.151 294.819 231.975 295.34 229.323 295.34C226.694 295.34 224.518 294.819 222.795 293.776C221.095 292.733 219.826 291.271 218.987 289.39C218.171 287.509 217.763 285.31 217.763 282.794C217.763 280.278 218.171 278.091 218.987 276.232C219.826 274.373 221.095 272.934 222.795 271.914C224.518 270.871 226.705 270.35 229.357 270.35C231.986 270.35 234.151 270.871 235.851 271.914C237.551 272.934 238.809 274.385 239.625 276.266C240.464 278.125 240.883 280.312 240.883 282.828ZM223.169 282.828C223.169 285.367 223.656 287.373 224.631 288.846C225.606 290.297 227.17 291.022 229.323 291.022C231.522 291.022 233.097 290.297 234.049 288.846C235.001 287.373 235.477 285.367 235.477 282.828C235.477 280.267 235.001 278.261 234.049 276.81C233.097 275.359 231.533 274.634 229.357 274.634C227.181 274.634 225.606 275.359 224.631 276.81C223.656 278.261 223.169 280.267 223.169 282.828ZM235.851 263.584C235.534 263.901 235.114 264.287 234.593 264.74C234.072 265.193 233.505 265.669 232.893 266.168C232.304 266.667 231.714 267.143 231.125 267.596C230.558 268.027 230.06 268.389 229.629 268.684H226.263V268.242C226.626 267.811 227.045 267.313 227.521 266.746C228.02 266.157 228.507 265.556 228.983 264.944C229.459 264.309 229.856 263.743 230.173 263.244H235.851V263.584ZM267.434 295H260.906L250.332 276.64H250.196C250.241 277.796 250.286 278.952 250.332 280.108C250.4 281.264 250.456 282.42 250.502 283.576V295H245.912V270.724H252.406L262.946 288.914H263.048C263.025 287.781 262.991 286.659 262.946 285.548C262.9 284.437 262.855 283.327 262.81 282.216V270.724H267.434V295ZM116.253 335L114.485 329.22H105.645L103.877 335H98.335L106.903 310.622H113.193L121.795 335H116.253ZM111.493 319.258C111.38 318.873 111.232 318.385 111.051 317.796C110.87 317.207 110.688 316.606 110.507 315.994C110.326 315.382 110.178 314.849 110.065 314.396C109.952 314.849 109.793 315.416 109.589 316.096C109.408 316.753 109.226 317.388 109.045 318C108.886 318.589 108.762 319.009 108.671 319.258L106.937 324.902H113.261L111.493 319.258ZM135.138 335L129.29 315.96H129.154C129.176 316.413 129.21 317.093 129.256 318C129.301 318.907 129.346 319.881 129.392 320.924C129.437 321.944 129.46 322.873 129.46 323.712V335H124.87V310.724H131.874L137.62 329.288H137.722L143.808 310.724H150.812V335H146.018V323.508C146.018 322.737 146.029 321.853 146.052 320.856C146.097 319.859 146.131 318.918 146.154 318.034C146.199 317.127 146.233 316.447 146.256 315.994H146.12L139.864 335H135.138ZM164.492 310.724C167.733 310.724 170.181 311.177 171.836 312.084C173.49 312.991 174.318 314.589 174.318 316.878C174.318 318.261 173.989 319.428 173.332 320.38C172.697 321.332 171.779 321.91 170.578 322.114V322.284C171.394 322.443 172.13 322.726 172.788 323.134C173.445 323.542 173.966 324.131 174.352 324.902C174.737 325.673 174.93 326.693 174.93 327.962C174.93 330.161 174.136 331.883 172.55 333.13C170.963 334.377 168.787 335 166.022 335H156.944V310.724H164.492ZM165.07 320.346C166.566 320.346 167.597 320.108 168.164 319.632C168.753 319.156 169.048 318.465 169.048 317.558C169.048 316.629 168.708 315.96 168.028 315.552C167.348 315.144 166.271 314.94 164.798 314.94H162.078V320.346H165.07ZM162.078 324.426V330.75H165.444C166.985 330.75 168.062 330.455 168.674 329.866C169.286 329.254 169.592 328.449 169.592 327.452C169.592 326.545 169.274 325.82 168.64 325.276C168.028 324.709 166.906 324.426 165.274 324.426H162.078ZM179.788 335V310.724H184.922V335H179.788ZM205.017 335H191.043V310.724H205.017V314.94H196.177V320.278H204.405V324.494H196.177V330.75H205.017V335ZM231.591 335H225.063L214.489 316.64H214.353C214.398 317.796 214.443 318.952 214.489 320.108C214.557 321.264 214.613 322.42 214.659 323.576V335H210.069V310.724H216.563L227.103 328.914H227.205C227.182 327.781 227.148 326.659 227.103 325.548C227.057 324.437 227.012 323.327 226.967 322.216V310.724H231.591V335ZM247.077 335H241.943V315.008H235.347V310.724H253.673V315.008H247.077V335ZM269.884 335L268.116 329.22H259.276L257.508 335H251.966L260.534 310.622H266.824L275.426 335H269.884ZM265.124 319.258C265.01 318.873 264.863 318.385 264.682 317.796C264.5 317.207 264.319 316.606 264.138 315.994C263.956 315.382 263.809 314.849 263.696 314.396C263.582 314.849 263.424 315.416 263.22 316.096C263.038 316.753 262.857 317.388 262.676 318C262.517 318.589 262.392 319.009 262.302 319.258L260.568 324.902H266.892L265.124 319.258ZM278.5 335V310.724H283.634V330.75H293.494V335H278.5Z" fill="white"/>
<path d="M196 179.34C196.714 179.34 197.347 179.1 197.804 178.644C198.26 178.187 198.5 177.554 198.5 176.84V168.307C214.956 167.05 227.9 152.725 227.9 135.44C227.9 123.668 220.611 110.655 213.255 100.497C206.072 90.5774 198.748 83.2774 197.814 82.3471C197.79 82.3224 197.769 82.3021 197.754 82.2865C196.758 81.2912 195.242 81.2912 194.247 82.2865C194.209 82.324 194.144 82.3875 194.054 82.476C192.704 83.7966 185.659 90.691 178.747 100.119C171.387 110.158 164.1 123.17 164.1 135.44C164.1 152.725 177.044 167.05 193.5 168.307V176.84C193.5 177.554 193.74 178.187 194.197 178.644C194.653 179.1 195.287 179.34 196 179.34ZM170.561 126.085C171.91 121.228 174.311 116.357 177.109 111.634L193.5 127.254V148.068L170.561 126.085ZM214.691 111.834C217.487 116.553 219.897 121.426 221.43 126.29L198.5 147.882V127.254L214.691 111.834ZM211.951 107.369L198.5 120.268V90.3072C202.047 94.1502 207.229 100.337 211.951 107.369ZM198.5 154.854L222.626 131.887C222.777 133.146 222.9 134.357 222.9 135.44C222.9 150.006 212.167 162.048 198.5 163.298V154.854ZM179.851 107.367C184.577 100.337 189.924 94.1498 193.5 90.3036V120.279L179.851 107.367ZM169.1 135.44C169.1 134.205 169.222 133.093 169.372 131.885L193.5 154.854V163.298C179.833 162.048 169.1 150.006 169.1 135.44Z" fill="#F2F2F2" stroke="#F2F2F2"/>
<path d="M273.5 130.64C273.5 87.8214 238.819 53.14 196 53.14C153.181 53.14 118.5 87.8214 118.5 130.64C118.5 173.459 153.181 208.14 196 208.14C196.691 208.14 197.306 207.907 197.749 207.464C198.192 207.021 198.425 206.406 198.425 205.715C198.425 205.024 198.192 204.409 197.749 203.966C197.306 203.523 196.691 203.29 196 203.29C155.851 203.29 123.35 170.789 123.35 130.64C123.35 90.4912 155.851 57.99 196 57.99C236.149 57.99 268.65 90.4912 268.65 130.64C268.65 151.881 259.595 171.643 243.662 185.567V176.84C243.662 176.149 243.43 175.534 242.987 175.091C242.543 174.648 241.929 174.415 241.237 174.415C240.546 174.415 239.932 174.648 239.488 175.091C239.045 175.534 238.812 176.149 238.812 176.84V190.7C238.812 191.391 239.045 192.006 239.488 192.449C239.932 192.892 240.546 193.125 241.237 193.125H255.482C256.174 193.125 256.788 192.892 257.232 192.449C257.675 192.006 257.908 191.391 257.908 190.7C257.908 190.009 257.675 189.394 257.232 188.951C256.788 188.508 256.174 188.275 255.482 188.275H247.762C264.19 173.595 273.5 152.861 273.5 130.64Z" fill="#F2F2F2" stroke="#F2F2F2"/>
</svg>
