<svg width="160" height="160" viewBox="0 0 160 160" fill="none" xmlns="http://www.w3.org/2000/svg">
<path d="M80.0001 128.7C80.7137 128.7 81.3473 128.46 81.8037 128.003C82.2601 127.547 82.5001 126.914 82.5001 126.2V117.667C98.9564 116.41 111.9 102.085 111.9 84.7999C111.9 73.0282 104.611 60.0148 97.2551 49.8566C90.0721 39.9373 82.7478 32.6373 81.8144 31.707C81.7896 31.6822 81.7693 31.662 81.7537 31.6463C80.7584 30.6511 79.2418 30.6511 78.2466 31.6463C78.209 31.6839 78.1442 31.7473 78.0537 31.8358C76.7043 33.1565 69.6594 40.0509 62.7469 49.4793C55.387 59.5177 48.1001 72.5297 48.1001 84.7999C48.1001 102.085 61.0438 116.41 77.5001 117.667V126.2C77.5001 126.914 77.7402 127.547 78.1966 128.003C78.6529 128.46 79.2865 128.7 80.0001 128.7ZM54.5609 75.4448C55.9098 70.5878 58.3109 65.7171 61.1087 60.9941L77.5001 76.6141V97.4282L54.5609 75.4448ZM98.6914 61.1939C101.487 65.9125 103.897 70.786 105.43 75.6502L82.5001 97.2423V76.6142L98.6914 61.1939ZM95.9513 56.7293L82.5001 69.6277V39.6671C86.0468 43.5101 91.2292 49.6972 95.9513 56.7293ZM82.5001 104.214L106.626 81.2469C106.777 82.5057 106.9 83.7173 106.9 84.7999C106.9 99.3654 96.1672 111.408 82.5001 112.658V104.214ZM63.8506 56.727C68.5769 49.697 73.9245 43.5097 77.5001 39.6635V69.6387L63.8506 56.727ZM53.1001 84.7999C53.1001 83.5648 53.2219 82.453 53.3725 81.2447L77.5001 104.214V112.658C63.833 111.408 53.1001 99.3654 53.1001 84.7999Z" fill="#A1C181" stroke="#A1C181"/>
<path d="M157.5 80C157.5 37.1814 122.819 2.5 80 2.5C37.1814 2.5 2.5 37.1814 2.5 80C2.5 122.819 37.1814 157.5 80 157.5C80.6911 157.5 81.3059 157.267 81.7492 156.824C82.1924 156.381 82.425 155.766 82.425 155.075C82.425 154.384 82.1924 153.769 81.7492 153.326C81.3059 152.883 80.6911 152.65 80 152.65C39.8511 152.65 7.35 120.149 7.35 80C7.35 39.8511 39.8511 7.35 80 7.35C120.149 7.35 152.65 39.8511 152.65 80C152.65 101.241 143.595 121.003 127.662 134.927V126.2C127.662 125.509 127.43 124.894 126.987 124.451C126.543 124.008 125.929 123.775 125.237 123.775C124.546 123.775 123.932 124.008 123.488 124.451C123.045 124.894 122.812 125.509 122.812 126.2V140.06C122.812 140.751 123.045 141.366 123.488 141.809C123.932 142.252 124.546 142.485 125.237 142.485H139.482C140.174 142.485 140.788 142.252 141.232 141.809C141.675 141.366 141.908 140.751 141.908 140.06C141.908 139.369 141.675 138.754 141.232 138.311C140.788 137.868 140.174 137.635 139.482 137.635H131.762C148.19 122.955 157.5 102.221 157.5 80Z" fill="#A1C181" stroke="#A1C181"/>
</svg>
