<svg width="60" height="60" viewBox="0 0 60 60" fill="none" xmlns="http://www.w3.org/2000/svg">
<path d="M30 60C46.5685 60 60 46.5685 60 30C60 13.4315 46.5685 0 30 0C13.4315 0 0 13.4315 0 30C0 46.5685 13.4315 60 30 60Z" fill="#3A647E"/>
<path d="M38.2558 32.0749C38.2558 29.4987 36.5437 27.3264 34.1937 26.6238C34.3229 26.3815 34.3956 26.1069 34.3956 25.8162C34.3956 24.8794 33.6365 24.1122 32.6916 24.1122C32.5462 24.1122 32.4009 24.1364 32.2717 24.1687L32.0455 22.7393C31.8679 21.6491 30.9311 20.8496 29.8328 20.8496H27.7735C26.6752 20.8496 25.7384 21.6491 25.5607 22.7313L22.5 41.6285H27.3616V46.4497C27.3616 47.3057 28.0642 48.0002 28.9121 48.0002H29.1544C30.0104 48.0002 30.705 47.2977 30.705 46.4497V41.6285H35.0659L34.3956 37.4453C36.6487 36.6942 38.2558 34.5784 38.2558 32.0749ZM34.436 32.4141C34.0887 32.4464 33.7576 32.4706 33.4346 32.4706C31.6741 32.4706 30.2366 31.9295 29.1706 30.8554C26.8932 28.5619 27.2889 24.734 27.3051 24.5725C27.3778 23.9103 27.9754 23.4258 28.6456 23.4985C29.3079 23.5711 29.7843 24.1687 29.7197 24.8309C29.7116 24.8713 29.4451 27.6898 30.8988 29.1515C31.6337 29.8864 32.7077 30.1609 34.1856 30.0075C34.8478 29.9348 35.4454 30.4194 35.5181 31.0816C35.5827 31.7438 35.0982 32.3414 34.436 32.4141Z" fill="white"/>
<path d="M29.2642 19.808C31.2586 19.4844 32.6129 17.6052 32.2893 15.6109C31.9656 13.6165 30.0864 12.2621 28.0921 12.5858C26.0977 12.9095 24.7433 14.7886 25.067 16.783C25.3907 18.7774 27.2698 20.1317 29.2642 19.808Z" fill="white"/>
</svg>
