<svg version="1.0" viewBox="0 0 24 24" xml:space="preserve" xmlns="http://www.w3.org/2000/svg"><circle cx="18.5" cy="6.5" r="2.5" fill="#ffffff" class="fill-000000"></circle><circle cx="5.5" cy="6.5" r="2.5" fill="#ffffff" class="fill-000000"></circle><circle cx="12" cy="5" r="3" fill="#ffffff" class="fill-000000"></circle><path d="M18.5 10c-.5 0-1.6.2-2 .5 0 0 .5 1.1.5 2.5 0 0-1.2-4-5-4s-5 4-5 4c0-1.4.5-2.5.5-2.5-.4-.3-1.5-.5-2-.5C3.8 10 2 12 2 13.3V19c0 1.1.9 2 2 2h2.9c.9-.9 2.5-2 5.1-2s4.2 1.1 5.1 2H20c1.1 0 2-.9 2-2v-5.7c0-1.3-2-3.3-3.5-3.3zM12 18c-1.4 0-2.5-1.1-2.5-2.5S10.6 13 12 13s2.5 1.1 2.5 2.5S13.4 18 12 18z" fill="#ffffff" class="fill-000000"></path></svg>