<svg viewBox="0 0 128 128" xml:space="preserve" xmlns="http://www.w3.org/2000/svg" enable-background="new 0 0 128 128"><path d="m102.924 116.949 12.807-12.807-62.026-62.026a22.606 22.606 0 0 0 1.596-8.332c-.002-12.556-10.178-22.731-22.732-22.733h-.008l-.045.001v.002c-.152.003-.33.017-.547.07a2.26 2.26 0 0 0-1.455 1.146c-.197.38-.25.756-.25 1.039.006.438.102.704.178.913.162.393.318.607.48.836.305.409.654.791 1.074 1.226.73.75 1.667 1.618 2.676 2.522 2.246 2.009 4.853 4.172 6.051 5.158l1.361 11.231-8.104 8.135-11.23-1.388a252.176 252.176 0 0 0-3.846-4.559c-1.138-1.311-2.314-2.623-3.314-3.647a20.032 20.032 0 0 0-1.396-1.318 6.038 6.038 0 0 0-.697-.513 3.33 3.33 0 0 0-.494-.246 2.428 2.428 0 0 0-.91-.18 2.262 2.262 0 0 0-.914.19 2.25 2.25 0 0 0-1.246 1.423 2.435 2.435 0 0 0-.1.69c.001 12.56 10.175 22.736 22.733 22.738a22.523 22.523 0 0 0 8.333-1.597l62.025 62.026z" fill="#ec731b" class="fill-2f3435"></path><path d="m70.229 72.43 9.937-9.937-3.737-3.738 34.569-34.568 7.17-10.247-2.672-2.67-10.24 7.174-34.569 34.57-3.74-3.74-9.937 9.938-13.364 6.431-31.154 31.154 20.153 20.152 31.154-31.153z" fill="#ec731b" class="fill-2f3435"></path></svg>