<svg id="Icons" version="1.1" viewBox="0 0 32 32" xml:space="preserve" xmlns="http://www.w3.org/2000/svg" enable-background="new 0 0 32 32"><path d="M23 28c-1.1 0-2.1-.7-2.5-1.8 0-.1 0-.2-.1-.2h-8.9c0 .1 0 .2-.1.2-.3 1.1-1.3 1.8-2.4 1.8-.6 0-1 .4-1 1s.4 1 1 1h14c.6 0 1-.4 1-1s-.4-1-1-1z" fill="#30377f" class="fill-000000"></path><circle cx="16" cy="13" r="3" fill="#30377f" class="fill-000000"></circle><path d="M27 3H5C3.3 3 2 4.3 2 6v15c0 1.7 1.3 3 3 3h22c1.7 0 3-1.3 3-3V6c0-1.7-1.3-3-3-3zm-3.3 12.1c-.1.5-.7.8-1.2.7-.7-.2-1.2 0-1.3.2-.1.2 0 .7.5 1.3.4.4.4 1 0 1.4-1 1-2.2 1.7-3.6 2.1-.5.1-1.1-.2-1.2-.7-.2-.7-.6-1-.9-1s-.6.4-.9 1c-.1.4-.5.7-1 .7h-.3c-1.4-.4-2.6-1.1-3.6-2.1-.4-.4-.4-1 0-1.4.5-.5.6-1 .5-1.3-.1-.2-.6-.4-1.3-.2-.5.1-1.1-.2-1.2-.7-.1-.7-.2-1.4-.2-2.1s.1-1.4.3-2.1c.1-.5.7-.8 1.2-.7.7.2 1.2 0 1.3-.2.1-.2 0-.7-.5-1.3-.4-.4-.4-1 0-1.4 1-1 2.2-1.7 3.6-2.1.5-.1 1.1.2 1.2.8.2.7.6 1 .9 1s.6-.4.9-1c.2-.5.7-.8 1.2-.7 1.4.4 2.6 1.1 3.6 2.1.4.4.4 1 0 1.4-.5.5-.6 1-.5 1.3.1.2.6.4 1.3.2.5-.1 1.1.2 1.2.7.2.7.3 1.4.3 2.1s-.1 1.3-.3 2z" fill="#30377f" class="fill-000000"></path></svg>