<svg xmlns="http://www.w3.org/2000/svg" viewBox="0 0 128 128"><circle cx="64" cy="64" r="64" fill="#82f359" class="colorf3b459 svgShape"></circle><path fill="#71e248" d="M88.349 30.788l-1.63 2.179-50.413 60.066-1.637 1.868 33.286 32.965c31.58-1.927 56.963-26.747 59.772-58.081L88.349 30.788z" class="colore2a048 svgShape"></path><path fill="#4e8739" d="M34.694 31.047H88.33v63.906H34.694z" class="color398073 svgShape"></path><path fill="#ffffff" d="M36.306 32.967h50.413v60.066H36.306z" class="colorffffff svgShape"></path><path fill="#5ccd33" d="M43.528 42.504s1.945 2.264 2.902 4.136c0 0 1.969-4.308 6.434-7.649 0 0-3.176 1.899-6.602 5.951.001-.001-.314-.932-2.734-2.438z" class="colorcd8833 svgShape"></path><path fill="#4e8739" d="M54.58 48.68H41.812V36.95H54.58v11.73zm-11.768-1H53.58v-9.73H42.812v9.73z" class="color398073 svgShape"></path><path fill="#5ccd33" d="M43.528 58.689s1.945 2.264 2.902 4.136c0 0 1.969-4.308 6.434-7.649 0 0-3.176 1.899-6.602 5.951.001 0-.314-.932-2.734-2.438z" class="colorcd8833 svgShape"></path><path fill="#4e8739" d="M54.58 64.865H41.812v-11.73H54.58v11.73zm-11.768-1H53.58v-9.73H42.812v9.73z" class="color398073 svgShape"></path><path fill="#5ccd33" d="M43.528 74.875s1.945 2.264 2.902 4.136c0 0 1.969-4.308 6.434-7.649 0 0-3.176 1.899-6.602 5.951.001 0-.314-.932-2.734-2.438z" class="colorcd8833 svgShape"></path><path fill="#4e8739" d="M54.58 81.051H41.812V69.32H54.58v11.731zm-11.768-1H53.58v-9.73H42.812v9.73z" class="color398073 svgShape"></path><g fill="#ffffff" stroke="#4c8039" stroke-miterlimit="10" class="colorffffff svgShape colorStroke398073 svgStroke"><path d="M59.729 40.27h17.867M59.729 45.359h17.867" fill="#000000" class="color000000 svgShape"></path></g><g fill="#ffffff" stroke="#4c8039" stroke-miterlimit="10" class="colorffffff svgShape colorStroke398073 svgStroke"><path d="M59.729 56.455h17.867M59.729 61.545h17.867" fill="#000000" class="color000000 svgShape"></path></g><g fill="#ffffff" stroke="#4c8039" stroke-miterlimit="10" class="colorffffff svgShape colorStroke398073 svgStroke"><path d="M59.729 72.641h17.867M59.729 77.73h17.867" fill="#000000" class="color000000 svgShape"></path></g><path fill="#87bc74" d="M103.306 54.856l-26.2 20.621-15.541-6.351z" class="color74bcae svgShape"></path><path fill="#4e8739" d="M77.106 75.477l.227 11.428 25.973-32.049z" class="color398073 svgShape"></path><path fill="#5e924b" d="M81.914 78.598l-4.581 8.307 6.938-8.335z" class="color4b9284 svgShape"></path><path fill="#87bc74" d="M103.306 54.856L93.42 90.424 81.914 78.598z" class="color74bcae svgShape"></path><path fill="#5ecc35" d="M62.103 89.861c-.216 0-.428-.004-.638-.011l.033-.999c.632.02 1.28.01 1.944-.04l.074.997c-.479.037-.951.053-1.413.053zm-2.684-.191a19.606 19.606 0 0 1-2.012-.4l.246-.969c.631.16 1.272.287 1.908.379l-.142.99zm6.133-.122l-.18-.983a20.094 20.094 0 0 0 1.898-.444l.275.961c-.661.189-1.333.346-1.993.466zm-10.103-.884a21.17 21.17 0 0 1-1.887-.797l.432-.901c.59.282 1.195.538 1.799.759l-.344.939zm14.035-.238l-.363-.932c.593-.23 1.196-.495 1.793-.786l.439.898c-.622.304-1.25.58-1.869.82zM51.76 86.898a24.14 24.14 0 0 1-1.709-1.122l.586-.812c.529.382 1.08.744 1.635 1.075l-.512.859zm21.387-.254l-.506-.863c.551-.322 1.11-.676 1.663-1.05l.561.827c-.57.386-1.148.752-1.718 1.086zm-24.702-2.136c-.956-.828-1.472-1.417-1.493-1.441l.754-.657c.005.006.496.565 1.394 1.343l-.655.755z" class="colorcc3635 svgShape"></path></svg>