<svg viewBox="0 0 64 64" xml:space="preserve" xmlns="http://www.w3.org/2000/svg"><path d="M62.869 16.842h-.057c-1.096.007-1.266-.945-1.285-1.387V8.542c0-.738-.598-1.336-1.334-1.336H40.428c-4.959 0-6.809 1.838-7.268 2.415l-.126.175-.001.003-.391.536h-.001c-.525.721-.982.414-1.202.178l-.748-.933-.37-.446c-.622-.653-2.243-1.928-5.456-1.928H3.808c-.738 0-1.336.598-1.336 1.336v6.825c0 1.195-.649 1.435-1.047 1.475h-.296c-.324.02-1.078.208-1.078 1.595v32.529c0 .798.647 1.444 1.445 1.444h19.218c6.131 0 8.803 2.312 9.604 3.199l.457.566h.001s1.226 1.387 2.518 0l.268-.314v.001l.004-.003.342-.4c.01-.012.092-.104.211-.226 1.023-.995 3.58-2.823 8.58-2.823h19.805c.799 0 1.445-.646 1.445-1.444V18.122c0-1.176-.851-1.274-1.08-1.28zm-4.318 29.02c0 .641-.535 1.158-1.201 1.158H41.055c-5.799 0-7.904 2.62-7.904 2.62l-.267.358-.125.173h-.001c-.553.751-1.366.006-1.37.002l-.375-.469c-.278-.334-2.408-2.685-7.563-2.685H6.65c-.663 0-1.199-.518-1.199-1.158V11.199c0-.64.536-1.158 1.199-1.158h13.043c9.702 0 10.621 5.511 10.684 7.112v24.106c0 1.752.835 2.081 1.306 2.129h.701c.48-.048 1.243-.333 1.243-1.7V16.842h-.008c.072-2.005.854-6.802 6.689-6.802H57.35c.666 0 1.201.518 1.201 1.158v34.664z" fill="#ffffff" class="fill-241f20"></path></svg>