<svg xmlns="http://www.w3.org/2000/svg" enable-background="new 0 0 64 64" viewBox="0 0 64 64"><path fill="#4e8739" d="M17 25.184V16h-2v9.184c-.639.228-1.178.66-1.534 1.226C12.566 25.541 11.347 25 10 25c-2.757 0-5 2.243-5 5s2.243 5 5 5c1.13 0 2.162-.391 3-1.026V35h-3H6c-2.757 0-5 2.243-5 5v8c0 1.654 1.346 3 3 3 .351 0 .687-.061 1-.171V63h10V41.899c2.279-.465 4-2.484 4-4.899v-9C19 26.698 18.161 25.598 17 25.184zM15 28c0-.552.448-1 1-1 .552 0 1 .448 1 1v6h-2V28zM10 33c-1.654 0-3-1.346-3-3s1.346-3 3-3c1.654 0 3 1.346 3 3S11.654 33 10 33zM6 37h3v8H7v-5H5v1H3v-1C3 38.346 4.346 37 6 37zM9 49v8H7V47h6v10h-2v-8H9zM4 49c-.552 0-1-.448-1-1v-5h2v5C5 48.552 4.552 49 4 49zM7 59h2v2H7V59zM11 61v-2h2v2H11zM14 40h-1v5h-2v-8h4v-1h2v1C17 38.654 15.654 40 14 40zM37 25.184V16h-2v9.184c-.639.228-1.178.66-1.534 1.226C32.566 25.541 31.347 25 30 25c-2.757 0-5 2.243-5 5s2.243 5 5 5c1.13 0 2.162-.391 3-1.026V35h-3-4c-2.757 0-5 2.243-5 5v8c0 1.654 1.346 3 3 3 .351 0 .687-.061 1-.171V63h10V41.899c2.279-.465 4-2.484 4-4.899v-9C39 26.698 38.161 25.598 37 25.184zM36 27c.552 0 1 .448 1 1v1h-2v-1C35 27.448 35.448 27 36 27zM30 33c-1.654 0-3-1.346-3-3s1.346-3 3-3c1.654 0 3 1.346 3 3S31.654 33 30 33zM31 37l-1 1.333L29 37H31zM24 49c-.552 0-1-.448-1-1v-1h2v1C25 48.552 24.552 49 24 49zM29 49v8h-2V47h6v10h-2v-8H29zM27 59h2v2h-2V59zM31 61v-2h2v2H31zM34 40h-1v5h-6v-5h-2v5h-2v-5c0-1.654 1.346-3 3-3h.5l3.5 4.667L33.5 37H35v-6h2v6C37 38.654 35.654 40 34 40zM57 25.184V16h-2v9.184c-.639.228-1.178.66-1.534 1.226C52.566 25.541 51.347 25 50 25c-2.757 0-5 2.243-5 5s2.243 5 5 5c1.13 0 2.162-.391 3-1.026V35h-3-4c-2.757 0-5 2.243-5 5v8c0 1.654 1.346 3 3 3 .351 0 .687-.061 1-.171V63h10V41.899c2.279-.465 4-2.484 4-4.899v-9C59 26.698 58.161 25.598 57 25.184zM55 28c0-.552.448-1 1-1 .552 0 1 .448 1 1v5h-2V28zM50 33c-1.654 0-3-1.346-3-3s1.346-3 3-3c1.654 0 3 1.346 3 3S51.654 33 50 33zM44 49c-.552 0-1-.448-1-1v-4h2v4C45 48.552 44.552 49 44 49zM49 49v8h-2V47h6v10h-2v-8H49zM47 59h2v2h-2V59zM51 61v-2h2v2H51zM54 40h-1v5h-6v-5h-2v2h-2v-2c0-1.654 1.346-3 3-3h9v-2h2v2C57 38.654 55.654 40 54 40z" class="color333333 svgShape"></path><rect width="14" height="16" x="9" y="1" fill="#78f948" class="colorf9ba48 svgShape"></rect><rect width="14" height="16" x="29" y="1" fill="#78f948" class="colorf9ba48 svgShape"></rect><rect width="14" height="16" x="49" y="1" fill="#78f948" class="colorf9ba48 svgShape"></rect><polygon fill="#4e8739" points="17 5 13 5 13 7 15 7 15 11 13 11 13 13 19 13 19 11 17 11" class="color333333 svgShape"></polygon><path fill="#4e8739" d="M59 7.5C59 6.121 57.879 5 56.5 5H53v2h3.5C56.775 7 57 7.225 57 7.5S56.775 8 56.5 8H53v2h3.5c.275 0 .5.225.5.5S56.775 11 56.5 11H53v2h3.5c1.379 0 2.5-1.121 2.5-2.5 0-.563-.187-1.082-.501-1.5C58.813 8.582 59 8.063 59 7.5zM39 7.854C39 6.28 37.72 5 36.145 5h-.291C34.28 5 33 6.28 33 7.854V8h2V7.854C35 7.384 35.384 7 35.854 7h.291C36.616 7 37 7.384 37 7.854c0 .325-.181.618-.473.764L33 10.382V13h6v-2h-2.764l1.186-.593C38.395 9.92 39 8.942 39 7.854z" class="color333333 svgShape"></path></svg>