<svg viewBox="0 0 32 32" xmlns="http://www.w3.org/2000/svg"><path d="M30.29 25.06A13 13 0 0 0 25 9.89a4 4 0 0 0-.27-1.15L26 7.47a1 1 0 0 0 0-1.42l-.13-.13 1.53-1.53a1 1 0 0 0 0-1.42l-1.72-1.68A1 1 0 0 0 25 1a1 1 0 0 0-.71.29l-1.55 1.54-.14-.14a1 1 0 0 0-.7-.29 1 1 0 0 0-.71.29l-8.4 8.4a1 1 0 0 0 0 1.38l-1.3 1.3a1 1 0 0 0 0 1.42l2 2a1 1 0 0 0 .71.29 1 1 0 0 0 .7-.29l1.3-1.3a1 1 0 0 0 1.38 0L19.47 14a3.91 3.91 0 0 0 1.53.31 4 4 0 0 0 1.68-.39A8.36 8.36 0 0 1 25.32 25H11.16l-.69-1.5H16a1 1 0 0 0 1-1v-3a1 1 0 0 0-1-1H2a1 1 0 0 0-1 1v3a1 1 0 0 0 1 1h1.84l.7 1.5H2a1 1 0 0 0-1 1v4a1 1 0 0 0 1 1h28a1 1 0 0 0 1-1v-4a1 1 0 0 0-.71-.94ZM19.86 11.91a3.17 3.17 0 0 1-.34-.3l-.06-.08a2.11 2.11 0 0 1-.2-.29l-.05-.1a1.75 1.75 0 0 1-.12-.32v-.1a2.3 2.3 0 0 1-.05-.45 2 2 0 0 1 2-2 2.3 2.3 0 0 1 .45.05h.11a2 2 0 0 1 .31.12l.11.06a1.73 1.73 0 0 1 .28.19.27.27 0 0 1 .08.07 1.9 1.9 0 0 1 .3.33 2 2 0 0 1 .32 1.18s0 .05 0 .08a.43.43 0 0 0 0 .05 2 2 0 0 1-.24.84 1.27 1.27 0 0 1-.24.33 2.26 2.26 0 0 1-.32.29 2 2 0 0 1-1.14.36 2.06 2.06 0 0 1-1.2-.31Z" fill="#ffffff" class="fill-000000"></path></svg>