<svg width="392" height="392" viewBox="0 0 392 392" fill="none" xmlns="http://www.w3.org/2000/svg">
<path d="M0 50C0 22.3858 22.3858 0 50 0H342C369.614 0 392 22.3858 392 50V342C392 369.614 369.614 392 342 392H50C22.3858 392 0 369.614 0 342V50Z" fill="#357DBD"/>
<path d="M152.978 288.268C152.978 290.421 152.196 292.144 150.632 293.436C149.09 294.705 146.892 295.34 144.036 295.34C141.474 295.34 139.185 294.853 137.168 293.878V289.084C138.324 289.583 139.514 290.047 140.738 290.478C141.984 290.886 143.22 291.09 144.444 291.09C145.713 291.09 146.608 290.852 147.13 290.376C147.674 289.877 147.946 289.254 147.946 288.506C147.946 287.894 147.73 287.373 147.3 286.942C146.892 286.511 146.336 286.115 145.634 285.752C144.931 285.367 144.126 284.959 143.22 284.528C142.653 284.256 142.041 283.939 141.384 283.576C140.726 283.191 140.092 282.726 139.48 282.182C138.89 281.615 138.403 280.935 138.018 280.142C137.632 279.349 137.44 278.397 137.44 277.286C137.44 275.11 138.176 273.421 139.65 272.22C141.123 270.996 143.129 270.384 145.668 270.384C146.937 270.384 148.138 270.531 149.272 270.826C150.428 271.121 151.629 271.54 152.876 272.084L151.21 276.096C150.099 275.643 149.102 275.291 148.218 275.042C147.334 274.793 146.427 274.668 145.498 274.668C144.523 274.668 143.775 274.895 143.254 275.348C142.732 275.801 142.472 276.391 142.472 277.116C142.472 277.977 142.857 278.657 143.628 279.156C144.398 279.655 145.543 280.267 147.062 280.992C148.308 281.581 149.362 282.193 150.224 282.828C151.108 283.463 151.788 284.211 152.264 285.072C152.74 285.933 152.978 286.999 152.978 288.268ZM172.248 295L170.48 289.22H161.64L159.872 295H154.33L162.898 270.622H169.188L177.79 295H172.248ZM167.488 279.258C167.375 278.873 167.227 278.385 167.046 277.796C166.865 277.207 166.683 276.606 166.502 275.994C166.321 275.382 166.173 274.849 166.06 274.396C165.947 274.849 165.788 275.416 165.584 276.096C165.403 276.753 165.221 277.388 165.04 278C164.881 278.589 164.757 279.009 164.666 279.258L162.932 284.902H169.256L167.488 279.258ZM180.865 295V270.724H185.999V290.75H195.859V295H180.865ZM219.511 286.432C219.511 288.109 219.137 289.628 218.389 290.988C217.664 292.325 216.553 293.391 215.057 294.184C213.584 294.955 211.714 295.34 209.447 295.34C206.229 295.34 203.781 294.524 202.103 292.892C200.426 291.237 199.587 289.061 199.587 286.364V270.724H204.721V285.582C204.721 287.577 205.129 288.982 205.945 289.798C206.761 290.614 207.974 291.022 209.583 291.022C211.261 291.022 212.473 290.58 213.221 289.696C213.992 288.812 214.377 287.429 214.377 285.548V270.724H219.511V286.432ZM245.584 282.624C245.584 286.727 244.417 289.821 242.082 291.906C239.77 293.969 236.518 295 232.324 295H225.456V270.724H233.072C235.611 270.724 237.81 271.177 239.668 272.084C241.55 272.991 243 274.328 244.02 276.096C245.063 277.841 245.584 280.017 245.584 282.624ZM240.246 282.76C240.246 280.063 239.657 278.091 238.478 276.844C237.3 275.575 235.588 274.94 233.344 274.94H230.59V290.75H232.8C237.764 290.75 240.246 288.087 240.246 282.76ZM97.4934 322.828C97.4934 325.344 97.074 327.543 96.2354 329.424C95.4194 331.283 94.1614 332.733 92.4614 333.776C90.7614 334.819 88.5854 335.34 85.9334 335.34C83.304 335.34 81.128 334.819 79.4054 333.776C77.7054 332.733 76.436 331.271 75.5974 329.39C74.7814 327.509 74.3734 325.31 74.3734 322.794C74.3734 320.278 74.7814 318.091 75.5974 316.232C76.436 314.373 77.7054 312.934 79.4054 311.914C81.128 310.871 83.3154 310.35 85.9674 310.35C88.5967 310.35 90.7614 310.871 92.4614 311.914C94.1614 312.934 95.4194 314.385 96.2354 316.266C97.074 318.125 97.4934 320.312 97.4934 322.828ZM79.7794 322.828C79.7794 325.367 80.2667 327.373 81.2414 328.846C82.216 330.297 83.78 331.022 85.9334 331.022C88.132 331.022 89.7074 330.297 90.6594 328.846C91.6114 327.373 92.0874 325.367 92.0874 322.828C92.0874 320.267 91.6114 318.261 90.6594 316.81C89.7074 315.359 88.1434 314.634 85.9674 314.634C83.7914 314.634 82.216 315.359 81.2414 316.81C80.2667 318.261 79.7794 320.267 79.7794 322.828ZM112.824 314.668C110.852 314.668 109.345 315.405 108.302 316.878C107.259 318.351 106.738 320.369 106.738 322.93C106.738 325.514 107.214 327.52 108.166 328.948C109.141 330.353 110.693 331.056 112.824 331.056C113.821 331.056 114.807 330.943 115.782 330.716C116.779 330.489 117.856 330.172 119.012 329.764V334.082C117.947 334.513 116.893 334.83 115.85 335.034C114.807 335.238 113.64 335.34 112.348 335.34C109.855 335.34 107.792 334.83 106.16 333.81C104.551 332.767 103.361 331.317 102.59 329.458C101.819 327.577 101.434 325.389 101.434 322.896C101.434 320.448 101.876 318.283 102.76 316.402C103.644 314.521 104.925 313.047 106.602 311.982C108.302 310.917 110.376 310.384 112.824 310.384C114.025 310.384 115.227 310.543 116.428 310.86C117.652 311.155 118.819 311.563 119.93 312.084L118.264 316.266C117.357 315.835 116.439 315.461 115.51 315.144C114.603 314.827 113.708 314.668 112.824 314.668ZM143.924 326.432C143.924 328.109 143.55 329.628 142.802 330.988C142.077 332.325 140.966 333.391 139.47 334.184C137.997 334.955 136.127 335.34 133.86 335.34C130.642 335.34 128.194 334.524 126.516 332.892C124.839 331.237 124 329.061 124 326.364V310.724H129.134V325.582C129.134 327.577 129.542 328.982 130.358 329.798C131.174 330.614 132.387 331.022 133.996 331.022C135.674 331.022 136.886 330.58 137.634 329.696C138.405 328.812 138.79 327.429 138.79 325.548V310.724H143.924V326.432ZM157.622 310.724C160.75 310.724 163.028 311.404 164.456 312.764C165.906 314.101 166.632 315.949 166.632 318.306C166.632 319.711 166.337 321.037 165.748 322.284C165.158 323.508 164.172 324.494 162.79 325.242C161.43 325.99 159.571 326.364 157.214 326.364H155.004V335H149.87V310.724H157.622ZM157.35 314.94H155.004V322.148H156.704C158.154 322.148 159.299 321.865 160.138 321.298C160.999 320.709 161.43 319.768 161.43 318.476C161.43 316.119 160.07 314.94 157.35 314.94ZM184.384 335L182.616 329.22H173.776L172.008 335H166.466L175.034 310.622H181.324L189.926 335H184.384ZM179.624 319.258C179.51 318.873 179.363 318.385 179.182 317.796C179 317.207 178.819 316.606 178.638 315.994C178.456 315.382 178.309 314.849 178.196 314.396C178.082 314.849 177.924 315.416 177.72 316.096C177.538 316.753 177.357 317.388 177.176 318C177.017 318.589 176.892 319.009 176.802 319.258L175.068 324.902H181.392L179.624 319.258ZM202.638 314.668C200.666 314.668 199.159 315.405 198.116 316.878C197.074 318.351 196.552 320.369 196.552 322.93C196.552 325.514 197.028 327.52 197.98 328.948C198.955 330.353 200.508 331.056 202.638 331.056C203.636 331.056 204.622 330.943 205.596 330.716C206.594 330.489 207.67 330.172 208.826 329.764V334.082C207.761 334.513 206.707 334.83 205.664 335.034C204.622 335.238 203.454 335.34 202.162 335.34C199.669 335.34 197.606 334.83 195.974 333.81C194.365 332.767 193.175 331.317 192.404 329.458C191.634 327.577 191.248 325.389 191.248 322.896C191.248 320.448 191.69 318.283 192.574 316.402C193.458 314.521 194.739 313.047 196.416 311.982C198.116 310.917 200.19 310.384 202.638 310.384C203.84 310.384 205.041 310.543 206.242 310.86C207.466 311.155 208.634 311.563 209.744 312.084L208.078 316.266C207.172 315.835 206.254 315.461 205.324 315.144C204.418 314.827 203.522 314.668 202.638 314.668ZM213.985 335V310.724H219.119V335H213.985ZM247.273 322.828C247.273 325.344 246.853 327.543 246.015 329.424C245.199 331.283 243.941 332.733 242.241 333.776C240.541 334.819 238.365 335.34 235.713 335.34C233.083 335.34 230.907 334.819 229.185 333.776C227.485 332.733 226.215 331.271 225.377 329.39C224.561 327.509 224.153 325.31 224.153 322.794C224.153 320.278 224.561 318.091 225.377 316.232C226.215 314.373 227.485 312.934 229.185 311.914C230.907 310.871 233.095 310.35 235.747 310.35C238.376 310.35 240.541 310.871 242.241 311.914C243.941 312.934 245.199 314.385 246.015 316.266C246.853 318.125 247.273 320.312 247.273 322.828ZM229.559 322.828C229.559 325.367 230.046 327.373 231.021 328.846C231.995 330.297 233.559 331.022 235.713 331.022C237.911 331.022 239.487 330.297 240.439 328.846C241.391 327.373 241.867 325.367 241.867 322.828C241.867 320.267 241.391 318.261 240.439 316.81C239.487 315.359 237.923 314.634 235.747 314.634C233.571 314.634 231.995 315.359 231.021 316.81C230.046 318.261 229.559 320.267 229.559 322.828ZM273.823 335H267.295L256.721 316.64H256.585C256.631 317.796 256.676 318.952 256.721 320.108C256.789 321.264 256.846 322.42 256.891 323.576V335H252.301V310.724H258.795L269.335 328.914H269.437C269.415 327.781 269.381 326.659 269.335 325.548C269.29 324.437 269.245 323.327 269.199 322.216V310.724H273.823V335ZM294.817 335L293.049 329.22H284.209L282.441 335H276.899L285.467 310.622H291.757L300.359 335H294.817ZM290.057 319.258C289.944 318.873 289.797 318.385 289.615 317.796C289.434 317.207 289.253 316.606 289.071 315.994C288.89 315.382 288.743 314.849 288.629 314.396C288.516 314.849 288.357 315.416 288.153 316.096C287.972 316.753 287.791 317.388 287.609 318C287.451 318.589 287.326 319.009 287.235 319.258L285.501 324.902H291.825L290.057 319.258ZM303.434 335V310.724H308.568V330.75H318.428V335H303.434Z" fill="white"/>
<g clip-path="url(#clip0)">
<path d="M147.161 171.927H142C147.677 167.54 148.968 159.54 144.581 153.862C140.194 148.185 132.194 146.894 126.516 151.282C120.839 155.669 119.548 163.669 123.936 169.346C124.71 170.378 125.484 171.152 126.516 171.927H121.355C115.677 171.927 111.032 176.572 111.032 182.249V192.572H157.484V182.249C157.484 176.572 152.839 171.927 147.161 171.927ZM126.516 161.604C126.516 157.217 129.871 153.862 134.258 153.862C138.645 153.862 142 157.217 142 161.604C142 165.991 138.645 169.346 134.258 169.346C129.871 169.346 126.516 165.991 126.516 161.604ZM152.323 187.411H116.194V182.249C116.194 179.411 118.516 177.088 121.355 177.088H147.161C150 177.088 152.323 179.411 152.323 182.249V187.411Z" fill="#F2F2F2"/>
<path d="M271.032 171.927H265.871C271.548 167.54 272.839 159.54 268.452 153.862C264.065 148.185 256.065 146.894 250.387 151.282C244.71 155.669 243.419 163.669 247.806 169.346C248.581 170.378 249.355 171.152 250.387 171.927H245.226C239.548 171.927 234.903 176.572 234.903 182.249V192.572H281.355V182.249C281.355 176.572 276.71 171.927 271.032 171.927ZM250.387 161.604C250.387 157.217 253.742 153.862 258.129 153.862C262.516 153.862 265.871 157.217 265.871 161.604C265.871 165.991 262.516 169.346 258.129 169.346C253.742 169.346 250.387 165.991 250.387 161.604ZM276.194 187.411H240.065V182.249C240.065 179.411 242.387 177.088 245.226 177.088H271.032C273.871 177.088 276.194 179.411 276.194 182.249V187.411Z" fill="#F2F2F2"/>
<path d="M219.419 84.1848C219.419 78.5074 214.774 73.8622 209.097 73.8622H203.935C209.613 69.4751 210.903 61.4751 206.516 55.7977C202.129 50.1203 194.129 48.83 188.452 53.217C182.774 57.6041 181.484 65.6041 185.871 71.2816C186.645 72.3138 187.419 73.088 188.452 73.8622H183.29C177.613 73.8622 172.968 78.5074 172.968 84.1848V94.5074H219.419V84.1848ZM188.452 63.5396C188.452 59.1525 191.806 55.7977 196.194 55.7977C200.581 55.7977 203.935 59.1525 203.935 63.5396C203.935 67.9267 200.581 71.2816 196.194 71.2816C191.806 71.2816 188.452 67.9267 188.452 63.5396ZM214.258 89.3461H178.129V84.1848C178.129 81.3461 180.452 79.0235 183.29 79.0235H209.097C211.935 79.0235 214.258 81.3461 214.258 84.1848V89.3461Z" fill="#F2F2F2"/>
<path d="M263.29 138.378H268.452C268.452 112.572 254.774 88.83 232.323 75.6687L229.742 80.0558C250.387 92.1848 263.29 114.378 263.29 138.378Z" fill="#F2F2F2"/>
<path d="M129.097 138.378C129.097 114.378 142 92.1848 162.645 80.3139L160.065 75.9268C137.871 88.83 123.935 112.572 123.935 138.378V138.636H129.097V138.378Z" fill="#F2F2F2"/>
<path d="M196.193 205.475C184.581 205.475 172.968 202.378 162.903 196.701L160.322 201.088C182.774 213.991 210.387 213.733 232.581 200.83L230 196.443C219.677 202.378 208.064 205.475 196.193 205.475Z" fill="#F2F2F2"/>
<path d="M185.871 166.765H206.516V151.282H222V130.636H206.516V115.153H185.871V130.636H170.387V151.282H185.871V166.765ZM175.548 146.12V135.798H191.032V120.314H201.355V135.798H216.839V146.12H201.355V161.604H191.032V146.12H175.548Z" fill="#F2F2F2"/>
</g>
<defs>
<clipPath id="clip0">
<rect width="170.323" height="160" fill="white" transform="translate(111.032 50.6365)"/>
</clipPath>
</defs>
</svg>
