<svg width="171" height="160" viewBox="0 0 171 160" fill="none" xmlns="http://www.w3.org/2000/svg">
<g clip-path="url(#clip0)">
<path d="M36.1291 121.29H30.9678C36.6452 116.903 37.9355 108.903 33.5484 103.226C29.1613 97.5485 21.1613 96.2582 15.4839 100.645C9.80648 105.032 8.51616 113.032 12.9033 118.71C13.6774 119.742 14.4516 120.516 15.4839 121.29H10.3226C4.64519 121.29 3.05176e-05 125.936 3.05176e-05 131.613V141.936H46.4516V131.613C46.4516 125.936 41.8065 121.29 36.1291 121.29ZM15.4839 110.968C15.4839 106.581 18.8387 103.226 23.2258 103.226C27.6129 103.226 30.9678 106.581 30.9678 110.968C30.9678 115.355 27.6129 118.71 23.2258 118.71C18.8387 118.71 15.4839 115.355 15.4839 110.968ZM41.2904 136.774H5.16132V131.613C5.16132 128.774 7.4839 126.452 10.3226 126.452H36.1291C38.9678 126.452 41.2904 128.774 41.2904 131.613V136.774Z" fill="#357DBD"/>
<path d="M160 121.29H154.839C160.516 116.903 161.806 108.903 157.419 103.226C153.032 97.5485 145.032 96.2582 139.355 100.645C133.677 105.032 132.387 113.032 136.774 118.71C137.548 119.742 138.323 120.516 139.355 121.29H134.194C128.516 121.29 123.871 125.936 123.871 131.613V141.936H170.323V131.613C170.323 125.936 165.677 121.29 160 121.29ZM139.355 110.968C139.355 106.581 142.71 103.226 147.097 103.226C151.484 103.226 154.839 106.581 154.839 110.968C154.839 115.355 151.484 118.71 147.097 118.71C142.71 118.71 139.355 115.355 139.355 110.968ZM165.161 136.774H129.032V131.613C129.032 128.774 131.355 126.452 134.194 126.452H160C162.839 126.452 165.161 128.774 165.161 131.613V136.774Z" fill="#357DBD"/>
<path d="M108.387 33.5483C108.387 27.8709 103.742 23.2257 98.0645 23.2257H92.9032C98.5806 18.8386 99.8709 10.8386 95.4838 5.16122C91.0967 -0.5162 83.0967 -1.80652 77.4193 2.58057C71.7419 6.96767 70.4516 14.9677 74.8387 20.6451C75.6129 21.6773 76.3871 22.4515 77.4193 23.2257H72.258C66.5806 23.2257 61.9355 27.8709 61.9355 33.5483V43.8709H108.387V33.5483ZM77.4193 12.9032C77.4193 8.51606 80.7742 5.16122 85.1613 5.16122C89.5484 5.16122 92.9032 8.51606 92.9032 12.9032C92.9032 17.2903 89.5484 20.6451 85.1613 20.6451C80.7742 20.6451 77.4193 17.2903 77.4193 12.9032ZM103.226 38.7096H67.0967V33.5483C67.0967 30.7096 69.4193 28.387 72.258 28.387H98.0645C100.903 28.387 103.226 30.7096 103.226 33.5483V38.7096Z" fill="#357DBD"/>
<path d="M152.258 87.7419H157.419C157.419 61.9354 143.742 38.1935 121.29 25.0322L118.71 29.4193C139.355 41.5484 152.258 63.7419 152.258 87.7419Z" fill="#357DBD"/>
<path d="M18.0645 87.7419C18.0645 63.7419 30.9677 41.5483 51.6129 29.6774L49.0323 25.2903C26.8387 38.1935 12.9032 61.9354 12.9032 87.7419V88H18.0645V87.7419Z" fill="#357DBD"/>
<path d="M85.1612 154.839C73.5483 154.839 61.9354 151.742 51.8709 146.064L49.2902 150.452C71.7418 163.355 99.3547 163.097 121.548 150.193L118.968 145.806C108.645 151.742 97.0322 154.839 85.1612 154.839Z" fill="#357DBD"/>
<path d="M74.8387 116.129H95.4839V100.645H110.968V80H95.4839V64.5161H74.8387V80H59.3548V100.645H74.8387V116.129ZM64.5161 95.4839V85.1613H80V69.6774H90.3226V85.1613H105.806V95.4839H90.3226V110.968H80V95.4839H64.5161Z" fill="#357DBD"/>
</g>
<defs>
<clipPath id="clip0">
<rect width="170.323" height="160" fill="white"/>
</clipPath>
</defs>
</svg>
