<svg width="58" height="59" viewBox="0 0 58 59" fill="none" xmlns="http://www.w3.org/2000/svg">
<rect y="0.927734" width="58" height="58" rx="29" fill="#357DBD"/>
<g clip-path="url(#clip0_1912:7398)">
<path d="M32.8429 48.6673C32.1612 48.5019 31.4795 48.3221 30.7907 48.171C27.6118 47.4733 24.7415 46.121 22.2587 44.0135C20.4288 42.4599 18.7999 40.7048 17.9532 38.3959C17.4293 36.9789 16.7046 35.641 16.3673 34.1592C15.8291 31.8143 15.8435 29.4982 16.8266 27.254C17.2356 26.3118 17.8455 25.5062 18.6349 24.8444C18.843 24.6718 18.9291 24.4848 18.9291 24.2042C18.9147 21.9529 18.9219 19.7087 18.9219 17.4573C18.9219 16.5438 19.3094 15.9468 20.0413 15.695C20.2494 15.6231 20.4575 15.5943 20.6728 15.5943C21.2325 15.5871 21.7922 15.5871 22.3519 15.5943C23.0695 15.6087 23.3996 15.7885 23.9593 16.4647C24.2607 16.0906 24.5262 15.695 24.8563 15.357C25.4088 14.7815 26.0188 14.2996 26.7507 13.9759C26.9516 13.8896 26.9947 13.7673 26.9947 13.5659C26.9947 13.2063 26.9444 12.8466 27.0306 12.4942C27.1167 12.1273 27.3893 11.9044 27.741 11.9115C28.0782 11.9187 28.3222 12.1345 28.4155 12.487C28.4872 12.7459 28.4585 13.0121 28.4514 13.271C28.4514 13.4436 28.5016 13.5084 28.6738 13.4796C28.803 13.458 28.9465 13.4293 29.0613 13.4652C29.7574 13.681 30.1664 13.3573 30.4534 12.7531C30.5108 12.6236 30.6041 12.5086 30.7046 12.4079C30.9772 12.1129 31.3289 12.0626 31.6374 12.264C31.9531 12.4654 32.0464 12.8466 31.8814 13.2063C31.867 13.235 31.8527 13.271 31.8312 13.2998C31.6948 13.5443 31.3576 13.7817 31.4293 14.0191C31.4867 14.2133 31.8599 14.3068 32.0895 14.465C33.0439 15.1196 33.7614 15.9827 34.3212 16.9897C34.436 17.1911 34.5364 17.2775 34.7876 17.2487C35.663 17.1408 36.5457 17.1408 37.4283 17.1624C38.0813 17.1768 38.354 17.4573 38.354 18.119C38.354 18.8815 38.354 19.6511 38.354 20.4136C38.354 21.0897 38.0741 21.3774 37.3996 21.3702C36.3232 21.3558 35.2971 21.5429 34.357 22.1111C34.2279 22.1902 34.1059 22.2837 33.905 22.4132C34.601 22.5571 35.2038 22.7585 35.742 23.1037C35.8711 23.19 35.9357 23.0749 36.0075 23.003C36.1725 22.8448 36.316 22.665 36.5528 22.6146C36.8901 22.5427 37.1699 22.6362 37.3493 22.9455C37.5216 23.2476 37.5 23.5856 37.2417 23.7942C36.8973 24.0748 37.048 24.269 37.2058 24.5711C37.5 25.1393 37.8014 25.5421 38.5405 25.463C38.928 25.4198 39.2079 25.8083 39.2007 26.1607C39.1935 26.5419 38.8993 26.8872 38.4544 26.8656C37.9952 26.844 37.9665 27.0454 37.9808 27.3907C37.9952 27.7 37.9306 28.0093 37.8445 28.3042C37.7799 28.52 37.7871 29.117 37.9808 29.2393C38.7767 30.4041 40.8179 31.4784 41.9347 36.2668C42.2002 36.8134 42.1499 37.0724 41.6907 37.4464C41.1095 37.5543 40.9157 37.4464 40.6287 36.8782C39.5287 31.5858 35.6487 28.7645 33.3955 29.2393C33.1013 29.304 32.8429 29.268 32.5918 29.0666C32.3693 28.894 32.1182 28.7502 31.8599 28.6279C30.7978 28.1316 29.6641 27.887 28.5159 27.6784C28.193 27.6209 28.0782 27.7216 27.9275 27.9877C27.3535 29.0451 26.6 29.9586 25.6887 30.7498C24.8061 31.5194 23.7871 32.0517 22.761 32.5768C22.0362 32.9436 21.3545 33.3752 20.802 33.9866C20.0342 34.6771 19.5534 35.5403 19.3309 36.5401C19.2305 36.986 19.1372 37.4608 19.3022 37.9139C19.5893 38.698 20.0198 39.4173 20.5221 40.079C22.761 43.0209 25.6528 45.0349 29.1402 46.2074C29.5995 46.3584 30.0516 46.531 30.5467 46.567C30.8265 46.7468 31.1566 46.754 31.458 46.8331C32.2689 47.0274 33.0726 47.2575 33.9121 47.2144C35.1751 47.1496 36.2801 46.6749 37.2848 45.9196C39.3155 44.4019 40.4852 42.4167 40.722 39.8776C40.8152 38.8706 40.7291 37.878 40.6287 36.8782C40.5713 36.3027 40.6789 36.1445 41.1884 35.9071C41.7912 35.9647 41.9849 36.1804 42.0567 36.7775C42.2145 38.065 42.2576 39.3381 42.0782 40.6329C41.8701 42.1002 41.3606 43.4453 40.521 44.6465C39.3657 46.2937 37.8804 47.5381 36.0003 48.2861C35.5052 48.4803 34.9813 48.5235 34.4718 48.6673C33.9337 48.6673 33.3883 48.6673 32.8429 48.6673ZM21.4621 23.4706C21.8066 23.449 22.1438 23.3771 22.4955 23.4202C22.6677 23.4418 22.6892 23.3483 22.6892 23.2116C22.6892 21.2623 22.682 19.3131 22.6892 17.3638C22.6892 17.1408 22.5887 17.0545 22.3878 17.0617C22.0793 17.0689 21.7707 17.0761 21.4621 17.0904C21.2038 17.0833 20.9383 17.0833 20.68 17.0761C20.4719 17.0689 20.3786 17.1408 20.3786 17.3638C20.3858 19.4138 20.3858 21.4637 20.3786 23.5137C20.3786 23.7079 20.4504 23.7367 20.6082 23.6863C20.8809 23.5928 21.1608 23.4993 21.4621 23.4706ZM28.2504 26.1967C28.846 26.3118 29.4416 26.4125 30.03 26.5419C30.2955 26.5995 30.3816 26.5347 30.4175 26.2686C30.561 25.1393 30.9055 24.0676 31.4867 23.0893C32.599 21.1976 34.2709 20.1834 36.438 19.9748C36.9403 19.9245 36.9403 19.946 36.8973 19.4497C36.8973 19.3059 36.8901 19.162 36.9116 19.0181C36.9547 18.7017 36.8542 18.5938 36.5098 18.6081C34.7015 18.6801 32.9362 18.9103 31.2499 19.608C28.7958 20.6294 27.4252 22.4348 27.2745 25.1177C27.2315 25.7004 27.6405 26.1463 28.2504 26.1967ZM31.4006 15.7885C30.1305 14.8247 28.7599 14.6305 27.3248 15.321C25.904 16.0187 25.05 17.2415 24.4688 18.6657C24.3253 19.0253 24.1315 19.385 24.1315 19.7878C24.1244 21.0322 24.1315 22.2693 24.1244 23.5137C24.1244 23.6576 24.1531 23.7511 24.3038 23.8158C24.6625 23.9597 25.0213 24.1251 25.3801 24.2834C25.4591 24.3337 25.538 24.3841 25.6097 24.4416C25.8107 24.5855 25.8753 24.5351 25.904 24.2906C26.2053 21.9529 27.375 20.1762 29.3699 18.939C30.4032 18.2989 31.5298 17.9032 32.6994 17.6155C32.8573 17.5796 32.9936 17.5652 32.8501 17.3566C32.4411 16.7524 32.0177 16.1841 31.4006 15.7885ZM20.6082 32.2315C21.4263 31.6273 22.3448 31.2101 23.2274 30.7282C24.7128 29.9226 25.8465 28.7645 26.6718 27.2972C26.7507 27.1605 26.7579 27.0814 26.6287 26.9663C25.7963 26.2542 24.9209 25.5997 23.8804 25.2184C22.517 24.6646 21.211 24.7365 19.9911 25.5997C18.8932 26.3765 18.1828 27.441 17.8025 28.7286C17.3791 30.1672 17.3935 31.6201 17.6231 33.0875C17.7379 33.7924 17.9029 34.4829 18.233 35.2022C18.7784 33.9506 19.6036 33.0156 20.6082 32.2315ZM33.1228 23.8302C32.7927 23.7295 32.6133 23.9453 32.4626 24.2834C32.1038 25.0962 31.8886 25.9449 31.7738 26.8225C31.7594 26.9232 31.7307 27.0239 31.8742 27.0886C32.3478 27.2828 32.8071 27.4914 33.2448 27.7647C33.3237 27.8151 33.4529 27.7935 33.5605 27.7791C34.4575 27.6353 35.3401 27.7072 36.2084 27.9517C36.4237 28.0093 36.4595 27.9661 36.4954 27.7575C36.8614 25.7147 35.2755 23.8302 33.1228 23.8302Z" fill="white"/>
<path d="M25.386 42.8213C25.0128 42.5408 24.6469 42.2602 24.2737 41.9797C24.0226 41.7855 23.8791 41.541 23.9221 41.2101C24.202 40.5483 24.6684 40.4404 25.2712 40.9296C26.6131 42.0013 28.0841 42.8285 29.7058 43.3967C30.1651 43.555 30.6315 43.6916 31.1051 43.8139C31.5859 43.9362 31.837 44.2958 31.7509 44.6914C31.6648 45.1158 31.263 45.3388 30.7822 45.2237C29.4977 44.9072 28.2707 44.4397 27.0938 43.8355C26.6633 43.6197 26.283 43.3104 25.8165 43.1522C25.7878 43.0371 25.7017 43.0155 25.6013 43.0083C25.6013 42.9508 25.5726 42.9364 25.5223 42.9436H25.5295C25.5152 42.8644 25.4434 42.8501 25.386 42.8213Z" fill="white"/>
</g>
<defs>
<clipPath id="clip0_1912:7398">
<rect width="26.2132" height="36.7414" fill="white" transform="translate(16 11.9277)"/>
</clipPath>
</defs>
</svg>
