<svg width="58" height="59" viewBox="0 0 58 59" fill="none" xmlns="http://www.w3.org/2000/svg">
<rect y="0.927734" width="58" height="58" rx="29" fill="#6EACF0"/>
<g clip-path="url(#clip0_1912:7392)">
<path d="M24.9374 48.6691C24.3131 48.5471 23.6745 48.4682 23.0645 48.3032C21.8517 47.9731 20.9547 47.2267 20.4309 46.0786C20.2945 45.7844 20.1223 45.6982 19.8281 45.648C17.8188 45.2964 16.1827 44.3994 15.3 42.4618C14.8192 41.407 14.8551 40.3162 15.2067 39.2254C15.2498 39.0819 15.3072 38.9384 15.3359 38.8523C14.7618 38.4289 14.1805 38.0629 13.6854 37.6108C12.5875 36.6062 12.0923 35.3288 12.0851 33.8506C12.078 32.5948 12.4368 31.461 13.1472 30.4348C13.2835 30.241 13.2979 30.0903 13.1974 29.8607C12.3219 27.9088 11.877 25.8636 12.0277 23.718C12.1784 21.6656 12.9104 19.8501 14.3671 18.379C15.3359 17.4031 16.5128 16.7716 17.8475 16.4486C17.948 16.4271 18.07 16.3554 18.1058 16.2692C19.1033 14.2097 20.8112 13.0257 22.9281 12.3726C23.5668 12.1789 24.2557 12.1215 24.9159 11.9923C24.9949 11.978 25.0738 11.9493 25.1527 11.9277C25.5618 11.9277 25.9636 11.9277 26.3727 11.9277C26.5808 11.9636 26.7889 11.9995 26.997 12.0354C27.7935 12.1717 28.4178 12.5808 28.8915 13.2481C29.2718 12.7099 29.7311 12.3224 30.3338 12.1502C30.6855 12.0497 31.0443 11.9995 31.4031 11.9277C31.7834 11.9277 32.1709 11.9277 32.5512 11.9277C33.2401 12.0497 33.9434 12.1143 34.6108 12.3009C36.5196 12.8176 38.1127 13.8222 39.2393 15.4942C39.2537 15.5158 39.2752 15.5301 39.2824 15.5516C39.5048 16.2764 40.0717 16.4989 40.7391 16.7213C42.5331 17.317 43.8464 18.5369 44.7362 20.1945C45.6906 21.9527 45.8987 23.84 45.6906 25.8062C45.5399 27.2271 45.1309 28.569 44.5855 29.875C44.4994 30.076 44.4922 30.2123 44.6285 30.4061C45.7982 32.0637 46.1068 33.8649 45.382 35.7809C44.9299 36.9722 44.076 37.8405 42.9852 38.472C42.7915 38.5868 42.5905 38.6872 42.447 38.7662C42.5762 39.4623 42.7556 40.1153 42.7986 40.7827C42.9135 42.4618 42.0739 43.5885 40.61 44.2989C39.7775 44.7008 38.8877 44.9089 37.962 44.9448C37.6391 44.9591 37.474 45.0739 37.3305 45.3897C36.6488 46.911 35.4145 47.808 33.8716 48.3175C33.3908 48.4754 32.8885 48.5615 32.4005 48.6835C32.092 48.6835 31.7762 48.6835 31.4677 48.6835C30.9653 48.5184 30.4415 48.4036 29.975 48.174C29.566 47.9659 29.2215 47.6214 28.913 47.3774C28.4465 47.7004 28.0088 48.0663 27.5136 48.3319C27.1477 48.5256 26.7099 48.5758 26.3009 48.6835C25.8488 48.6691 25.3967 48.6691 24.9374 48.6691ZM17.4026 38.027C17.2447 38.3284 17.051 38.6227 16.929 38.9384C16.728 39.4766 16.4625 40.0292 16.4266 40.5889C16.3405 41.9739 17.1084 42.9139 18.2565 43.5813C18.9598 43.9832 19.7133 44.1985 20.5313 44.2272C21.3351 44.2559 21.3422 44.2774 21.6006 45.0596C21.9091 45.9996 22.5406 46.5953 23.4807 46.8966C24.3705 47.1765 25.2819 47.2124 26.2004 47.1622C26.918 47.1191 27.4562 46.7603 27.8366 46.1647C28.1451 45.6839 28.1451 45.1457 28.1451 44.6147C28.1523 35.4939 28.1523 26.366 28.1451 17.2452C28.1451 16.5419 28.0949 15.8387 28.0231 15.1426C27.9155 14.0877 27.3701 13.4921 26.4803 13.4347C25.0451 13.3414 23.6529 13.528 22.3469 14.1523C20.9619 14.8197 19.8209 15.7526 19.3186 17.2667C19.1966 17.6399 18.9885 17.7619 18.6297 17.8193C16.3334 18.1996 14.8192 19.5487 13.9796 21.6728C13.3338 23.309 13.3194 24.9953 13.7141 26.6889C13.9007 27.4782 14.1518 28.2461 14.3886 29.0713C14.5106 28.9852 14.5465 28.9565 14.5824 28.9278C16.2185 27.6361 18.0341 27.0764 20.1223 27.4926C21.2561 27.7222 22.3182 28.1026 23.2439 28.813C23.4448 28.9709 23.6314 29.2077 23.7103 29.4517C23.8036 29.7315 23.6673 30.0042 23.3874 30.1764C23.0286 30.3989 22.7344 30.2554 22.433 30.0473C20.6103 28.8202 18.6727 28.3609 16.6204 29.3799C14.9914 30.1908 13.8361 31.4179 13.5921 33.3339C13.3983 34.8911 14.1088 36.4053 15.4866 37.1444C16.0965 37.4745 16.7496 37.7328 17.4026 38.027ZM43.5952 31.4897C43.0139 31.9418 42.4901 32.4369 41.8873 32.7957C40.409 33.6855 38.7657 33.9654 37.0578 33.951C36.5698 33.951 36.2828 33.6999 36.2613 33.2693C36.2397 32.8388 36.4981 32.5589 36.9789 32.5087C37.4884 32.4584 37.9979 32.4225 38.5145 32.3723C41.1338 32.1355 42.7341 30.6142 43.6167 28.2461C44.2913 26.4305 44.5496 24.5648 44.0975 22.6416C43.7028 20.9337 42.8202 19.5559 41.3347 18.5943C40.5956 18.1135 39.756 17.8839 38.902 17.7547C38.6652 17.7188 38.5791 17.6112 38.5217 17.4174C38.1629 16.2334 37.3951 15.3651 36.3833 14.6905C34.9409 13.7217 33.3334 13.3701 31.6112 13.4132C30.219 13.4491 29.9535 14.0877 29.7669 15.0708C29.6593 15.6665 29.6306 16.2836 29.6306 16.8864C29.6234 25.9784 29.6234 35.0633 29.6234 44.1554C29.6234 44.5501 29.6378 44.9448 29.6665 45.3394C29.7311 46.2795 30.6065 47.1048 31.5538 47.1622C32.6158 47.2267 33.5774 46.9397 34.4816 46.423C35.1777 46.0212 35.7159 45.4614 36.0029 44.7582C35.4217 44.3492 34.8332 44.0119 34.3237 43.5741C32.9962 42.4331 32.6158 40.8759 32.5584 39.2111C32.5441 38.7877 32.8455 38.4504 33.2114 38.4074C33.6061 38.3643 33.886 38.5653 34.0008 39.0173C34.0439 39.1896 34.0367 39.369 34.051 39.5484C34.1156 40.675 34.4242 41.7012 35.2997 42.4906C35.8163 42.9642 36.412 43.4091 37.0865 43.4737C38.2921 43.5885 39.469 43.3589 40.4951 42.6556C41.1984 42.1748 41.4854 41.45 41.3347 40.6248C41.2199 40.0005 40.9616 39.4048 40.7535 38.8021C40.6602 38.5294 40.531 38.2639 40.4162 38.0055C41.0836 37.7041 41.7294 37.4601 42.325 37.1229C44.4635 35.9173 44.851 33.3196 43.5952 31.4897Z" fill="white"/>
<path d="M23.7257 40.2013C23.7257 40.3305 23.7329 40.4668 23.7257 40.596C23.6898 41.0194 23.4171 41.2921 23.0153 41.2921C22.599 41.2992 22.3264 41.0265 22.2833 40.5816C22.2259 40.0362 22.1828 39.4909 22.0752 38.9527C21.7092 37.0295 20.5395 35.867 18.602 35.4651C17.9561 35.3288 17.6763 34.7547 18.0279 34.2811C18.2288 34.0084 18.5087 33.9581 18.8173 34.0155C21.4509 34.482 23.0727 36.276 23.5678 38.8235C23.6539 39.2756 23.697 39.742 23.7544 40.2013C23.7472 40.2013 23.74 40.2013 23.7257 40.2013Z" fill="white"/>
<path d="M20.353 23.7609C20.109 23.6676 19.8004 23.6317 19.6066 23.4595C19.4559 23.3232 19.3411 23.0074 19.3914 22.8137C19.4416 22.6056 19.6712 22.34 19.8722 22.2826C20.3027 22.1606 20.7692 22.1894 21.2069 22.1104C22.2044 21.9454 23.087 21.565 23.5607 20.5891C23.6468 20.4097 23.6898 20.2088 23.7185 20.015C23.7975 19.5342 24.1563 19.24 24.6084 19.3118C24.9959 19.3763 25.247 19.771 25.1753 20.2231C24.9313 21.8521 23.8979 22.8065 22.4125 23.316C21.7738 23.5385 21.0777 23.6102 20.353 23.7609Z" fill="white"/>
<path d="M34.0592 21.7876C34.0448 21.1346 34.296 20.7973 34.7122 20.7542C35.0925 20.7184 35.437 21.0054 35.4944 21.4718C35.7312 23.4596 37.353 24.6508 39.0465 24.9809C39.5345 25.0742 40.0368 25.0957 40.532 25.1316C41.1707 25.1747 41.5366 25.6555 41.307 26.1865C41.1491 26.5453 40.8262 26.6386 40.4817 26.6242C38.6806 26.5525 36.9942 26.1363 35.6379 24.8446C34.7194 23.9691 34.1596 22.9071 34.0592 21.7876Z" fill="white"/>
</g>
<defs>
<clipPath id="clip0_1912:7392">
<rect width="33.7777" height="36.7414" fill="white" transform="translate(12 11.9277)"/>
</clipPath>
</defs>
</svg>
