<svg width="58" height="58" viewBox="0 0 58 58" fill="none" xmlns="http://www.w3.org/2000/svg">
<rect width="58" height="58" rx="29" fill="#6EACF0"/>
<g clip-path="url(#clip0_1912:7414)">
<path d="M44.1888 18.564C41.9726 15.4894 38.7319 13.1291 35.0731 11.9175C31.3864 10.6988 27.407 10.6918 23.8597 11.9105C20.1452 13.1852 17.1763 15.1672 15.0507 17.8076C12.9182 20.455 11.601 23.7818 11.1341 27.7178C10.6253 31.9761 11.6149 36.0032 14.082 39.6802C17.03 44.0785 21.1557 46.7679 26.3477 47.6854C26.9959 47.7974 27.4976 47.7134 27.8391 47.4263C28.1806 47.1391 28.3548 46.6558 28.3548 45.9975C28.3548 45.6053 28.3618 45.2131 28.3618 44.8209C28.3688 44.0295 28.3757 43.217 28.3618 42.4116C28.3548 41.9003 28.3548 41.3821 28.3479 40.8708C28.327 38.4615 28.3061 35.9752 28.2433 33.5309C28.2015 31.6889 27.3304 30.3442 25.6578 29.5388C25.0584 29.2517 24.487 28.8594 24.0618 28.5583C23.5113 28.1661 23.2534 27.6268 23.3092 26.9614C23.3231 26.7934 23.3649 26.2681 22.891 26.135C22.661 26.065 22.3335 26.114 22.1244 26.2471C21.7202 26.4922 21.8666 26.9684 21.9153 27.1435C22.0199 27.4727 22.0896 27.7739 22.1244 28.061C22.1244 28.075 22.1035 28.11 22.0896 28.1381C22.0617 28.1171 22.0408 28.103 22.0268 28.089C21.9362 27.949 21.8735 27.7949 21.8038 27.6338L21.776 27.5708C21.5878 27.1295 21.2742 26.9474 20.9397 27.0805C20.6679 27.1926 20.3961 27.4587 20.2846 27.7318C20.1452 28.061 20.3124 28.3762 20.7306 28.5933C20.9675 28.7194 21.1905 28.8524 21.3927 28.9995C21.3996 29.0065 21.4066 29.0275 21.4136 29.0485C21.3857 29.0626 21.3578 29.0766 21.3439 29.0836C21.1557 29.0485 20.9466 28.9855 20.6888 28.8805C20.2567 28.7054 19.8943 28.8034 19.7549 29.1326C19.6364 29.4127 19.6225 29.7979 19.7201 30.0921C19.8246 30.4143 20.1661 30.5473 20.5912 30.4213C20.9118 30.3302 21.2254 30.2672 21.5181 30.2252C21.546 30.2252 21.5878 30.2322 21.6366 30.2532C21.6157 30.2882 21.5878 30.3232 21.5739 30.3302C21.2881 30.4703 20.9745 30.5894 20.6679 30.7014L20.6191 30.7224C20.3752 30.8135 20.194 30.9606 20.1173 31.1356C20.0615 31.2547 20.0546 31.3878 20.1034 31.5138C20.2218 31.836 20.4797 32.1652 20.7794 32.3823C21.0303 32.5644 21.539 32.1582 21.6226 32.0741C21.755 31.9411 21.8526 31.787 21.9432 31.6399C22.0199 31.5209 22.0896 31.4088 22.1732 31.3107C22.215 31.2617 22.2986 31.2197 22.3823 31.1847C22.3962 31.2897 22.4101 31.3878 22.3892 31.4578C22.3335 31.6049 22.2499 31.752 22.1662 31.9061C22.0687 32.0741 21.9711 32.2492 21.9014 32.4453C21.8247 32.6765 21.8456 33.0477 22.0129 33.2368C22.1662 33.4189 22.5704 33.5449 22.8074 33.4469C23.0443 33.3418 23.1768 33.0336 23.2743 32.8095C23.3231 32.6905 23.3161 32.5644 23.3022 32.4523C23.2952 32.3963 23.2952 32.3473 23.2952 32.3053C23.3301 31.759 24.0061 31.0796 24.4939 31.0796C24.5009 31.0796 24.5009 31.0796 24.5079 31.0796C26.062 31.1146 26.6892 31.5979 26.9122 32.9076C27.0655 33.8181 27.1422 34.7986 27.1561 35.9192C27.1771 38.2304 27.1701 40.5766 27.1701 42.8528C27.1701 43.7493 27.1701 44.6458 27.1701 45.5353C27.1701 46.0605 27.1492 46.3827 27.0237 46.4808C26.9053 46.5788 26.5916 46.5438 26.0899 46.4527C18.1938 44.9329 12.3537 37.9783 12.2143 29.917C12.1515 25.7008 13.406 21.9678 15.9497 18.7741C19.0022 14.9501 22.9956 12.7789 27.8182 12.3237C31.7628 11.9455 35.4982 12.898 38.9131 15.1532C45.4641 19.4605 48.2866 28.1871 45.4781 35.4429C43.1504 41.4591 38.7389 45.1711 32.376 46.4667C32.0346 46.5368 31.8325 46.5298 31.7349 46.4457C31.6373 46.3617 31.5885 46.1656 31.5885 45.8224C31.5885 44.996 31.5885 44.1695 31.5885 43.3431C31.5885 40.9338 31.5816 38.4475 31.5955 36.0032C31.6025 35.2048 31.6513 34.3433 31.7558 33.2998C31.8952 31.899 32.3621 31.3598 33.6862 31.0936C34.1671 30.9956 34.6201 31.0936 34.9546 31.3738C35.2961 31.6539 35.4773 32.0881 35.4634 32.5994C35.4564 33.0897 35.6306 33.3768 35.993 33.4399C36.23 33.4819 36.5575 33.3908 36.7527 33.2298C37.0175 33.0056 37.0314 32.6835 36.8015 32.2702C36.6272 31.9621 36.453 31.6469 36.3276 31.3107C36.3206 31.2827 36.3485 31.1917 36.3624 31.1286C36.4251 31.1497 36.4948 31.1707 36.5157 31.1987C36.683 31.3948 36.8363 31.6259 36.9827 31.843C37.0245 31.9131 37.0733 31.9761 37.122 32.0461C37.2126 32.1792 37.4008 32.4033 37.6517 32.4523C37.7771 32.4734 37.9026 32.4453 38.0071 32.3683C38.2929 32.1652 38.5438 31.829 38.6692 31.4788C38.7319 31.2967 38.6971 31.1146 38.5577 30.9676C38.4322 30.8275 38.265 30.7434 38.1395 30.7014C37.8608 30.5964 37.4984 30.4633 37.143 30.2952C37.136 30.2882 37.1151 30.2672 37.1011 30.2462C37.129 30.2322 37.1569 30.2112 37.1708 30.2112C37.3172 30.2322 37.4566 30.2672 37.6099 30.3022C37.819 30.3512 38.035 30.4003 38.258 30.4143C38.4741 30.4283 38.948 30.3372 39.0386 30.0781C39.1431 29.7909 39.1222 29.3917 38.9898 29.1186C38.8643 28.8594 38.3556 28.8524 38.2023 28.8524C38.0559 28.8594 37.9305 28.9085 37.805 28.9575C37.7214 28.9925 37.6378 29.0275 37.5681 29.0345C37.5263 29.0415 37.4635 29.0345 37.4078 29.0205C37.4287 28.9715 37.4566 28.9295 37.4844 28.9085C37.6238 28.8034 37.7771 28.7264 37.9374 28.6353C38.0002 28.6003 38.0629 28.5723 38.1256 28.5373C38.481 28.3412 38.6204 28.005 38.4741 27.7038C38.3695 27.4867 38.1465 27.1926 37.8608 27.0735C37.5263 26.9404 37.1987 27.1155 37.0036 27.5287C36.913 27.7178 36.8084 27.9139 36.7039 28.096C36.69 28.1171 36.683 28.1381 36.669 28.1521C36.6481 28.068 36.6342 27.991 36.6481 27.9279C36.669 27.7949 36.7039 27.6688 36.7457 27.5287C36.8015 27.3466 36.8502 27.1645 36.8712 26.9684C36.8921 26.7443 36.8084 26.4152 36.6272 26.2331C36.46 26.065 36.0627 26.0159 35.8676 26.142C35.6655 26.2681 35.4564 26.5902 35.4704 26.8424C35.5261 27.6618 35.1916 28.2851 34.4459 28.7544C34.0556 28.9995 33.6444 29.2306 33.2542 29.4618C33.0381 29.5878 32.8151 29.7139 32.5991 29.84C31.5816 30.4423 30.9822 31.1987 30.7801 32.1512C30.6407 32.8095 30.4735 33.685 30.4595 34.5605C30.4247 36.6265 30.4177 38.7207 30.4177 40.7517C30.4177 41.3751 30.4177 42.0054 30.4177 42.6287C30.4177 43.9174 30.4177 45.094 30.4247 46.2146C30.4317 47.013 30.8916 47.6013 31.5885 47.7134C31.6931 47.7274 31.7976 47.7344 31.9021 47.7344C32.16 47.7344 32.4179 47.6924 32.6897 47.6434C36.676 46.922 40.3697 44.8349 43.1016 41.7673C45.8335 38.6926 47.4782 34.7776 47.7221 30.7364C47.98 26.2821 46.7952 22.1849 44.1888 18.564Z" fill="white"/>
<path d="M32.9182 35.3802C32.8485 35.5552 32.7718 35.7303 32.7021 35.9124C32.3746 36.7599 32.3537 37.6494 32.6464 38.5458C33.2248 40.3388 34.3956 41.3263 36.11 41.4734C36.2564 41.4874 36.4097 41.4944 36.5561 41.4944C39.044 41.4944 41.5669 39.7575 43.0862 36.963C43.9922 35.2961 44.5009 33.2931 44.6473 30.8488C44.8494 27.459 44.4451 24.7766 43.3858 22.4093C41.8247 18.9215 38.382 16.7363 35.5595 17.4297C33.3781 17.969 31.9425 20 31.9843 22.4863C32.0052 23.5509 32.4164 24.4264 32.8206 25.1478C33.176 25.7781 33.2039 26.3734 32.9182 26.9617C32.6951 27.4099 32.7648 27.8092 33.1133 28.0473C33.2666 28.1523 33.4199 28.1874 33.5663 28.1453C33.7545 28.0963 33.9078 27.9282 34.0402 27.6481C34.4583 26.7516 34.5071 25.8691 34.1865 25.0357C34.082 24.7555 33.9496 24.4964 33.8172 24.2443C33.7545 24.1252 33.6987 24.0061 33.636 23.8801C32.9878 22.5144 33.2109 20.8475 34.1935 19.8249C34.8695 19.1176 35.7128 18.7534 36.7024 18.7464C38.6329 18.7324 40.7027 20.2241 41.985 22.5354C43.1907 24.7205 43.4486 27.2138 43.5392 29.364C43.4904 29.7632 43.4486 30.1764 43.4067 30.5756C43.3161 31.4581 43.2186 32.3686 43.0443 33.237C42.5007 35.9054 41.3439 37.8244 39.6085 38.924C38.3889 39.6944 36.4864 40.3598 35.1274 39.6944C34.5698 39.4213 34.0681 38.798 33.852 38.1186C33.6987 37.6353 33.6081 36.8789 34.0541 36.0385C34.1865 35.7864 34.305 35.4852 34.4165 35.093C34.6953 34.1195 34.5838 33.23 34.089 32.4526C33.9844 32.2915 33.8241 32.0744 33.5942 32.0464C33.4478 32.0254 33.3084 32.0744 33.169 32.1935C32.8415 32.4736 32.8066 32.8728 33.0645 33.2931C33.3572 33.7623 33.3781 34.2666 33.1412 34.8829C33.0575 35.044 32.9809 35.2121 32.9182 35.3802Z" fill="white"/>
<path d="M26.59 22.4791C26.6318 19.9928 25.1961 17.9617 23.0148 17.4224C20.1923 16.722 16.7495 18.9142 15.1884 22.402C14.1291 24.7693 13.7249 27.4517 13.927 30.8415C14.0734 33.2928 14.5821 35.2888 15.4881 36.9557C17.0074 39.7502 19.5302 41.4871 22.0182 41.4871C22.1646 41.4871 22.3179 41.4801 22.4642 41.4661C24.1856 41.319 25.3495 40.3385 25.9279 38.5386C26.2206 37.6421 26.1997 36.7596 25.8721 35.9052C25.8025 35.7231 25.7328 35.548 25.6561 35.3729C25.5864 35.2048 25.5167 35.0367 25.454 34.8616C25.217 34.2453 25.2449 33.741 25.5307 33.2718C25.7885 32.8586 25.7467 32.4593 25.4261 32.1722C25.2867 32.0531 25.1474 32.0041 25.001 32.0251C24.771 32.0601 24.6038 32.2773 24.5062 32.4313C24.0114 33.2087 23.8999 34.0912 24.1786 35.0717C24.2901 35.4639 24.4017 35.7651 24.541 36.0172C24.9871 36.8577 24.8965 37.6141 24.7431 38.0973C24.5271 38.7767 24.0253 39.393 23.4678 39.6732C22.1088 40.3455 20.2062 39.6802 18.9866 38.9028C17.2513 37.7962 16.0944 35.8842 15.5508 33.2158C15.3766 32.3473 15.279 31.4368 15.1884 30.5543C15.1466 30.1551 15.1048 29.7489 15.056 29.3427C15.1466 27.1856 15.4045 24.6922 16.6101 22.5141C17.8855 20.2099 19.9484 18.7251 21.8649 18.7251C21.8719 18.7251 21.8788 18.7251 21.8928 18.7251C22.8754 18.7321 23.7187 19.0963 24.4017 19.8037C25.3773 20.8262 25.6073 22.4931 24.9592 23.8588C24.9034 23.9779 24.8407 24.1039 24.778 24.223C24.6525 24.4751 24.5201 24.7413 24.4086 25.0144C24.088 25.8549 24.1368 26.7303 24.555 27.6268C24.6874 27.9139 24.8407 28.075 25.0289 28.1241C25.1752 28.1661 25.3286 28.1311 25.4819 28.026C25.8234 27.7879 25.8931 27.3957 25.677 26.9404C25.3843 26.3521 25.4192 25.7568 25.7746 25.1265C26.1579 24.4191 26.576 23.5436 26.59 22.4791Z" fill="white"/>
</g>
<defs>
<clipPath id="clip0_1912:7414">
<rect width="36.7414" height="36.7414" fill="white" transform="translate(11 11)"/>
</clipPath>
</defs>
</svg>
