<svg width="58" height="58" viewBox="0 0 58 58" fill="none" xmlns="http://www.w3.org/2000/svg">
<rect width="58" height="58" rx="29" fill="#357DBD"/>
<mask id="path-2-outside-1_1912:7408" maskUnits="userSpaceOnUse" x="7.8457" y="10.7356" width="42" height="37" fill="black">
<rect fill="white" x="7.8457" y="10.7356" width="42" height="37"/>
<path d="M27.2758 17.2326C27.3012 17.2368 27.3212 17.2141 27.3212 17.1883V13.348C27.3212 13.1106 27.5147 12.9171 27.7522 12.9171H30.5135C30.7509 12.9171 30.9444 13.1106 30.9444 13.348V14.8166C30.9444 15.2793 31.5769 15.404 31.7583 14.9844C31.7609 14.9783 31.763 14.9683 31.7667 14.9628C31.7704 14.9573 31.7724 14.9542 31.775 14.9481C32.1878 13.9755 32.7235 13.0821 33.5826 12.4158C34.6116 11.6156 35.7108 11.5364 36.8628 12.0993C38.094 12.6973 39.0086 13.6734 39.7825 14.7639C43.8102 20.4273 46.8002 26.592 48.603 33.3106C49.1922 35.518 49.5088 37.7781 49.3241 40.0733C49.0603 43.3623 47.5389 46.1061 43.564 46.748C40.5212 47.2405 37.5224 46.9679 34.7523 45.5081C32.3427 44.2329 30.8213 42.2191 30.2936 39.5545C30.0298 38.2266 29.9859 36.8547 29.9067 35.5004C29.7924 33.5129 29.6781 31.5254 29.6693 29.538C29.6605 27.7704 29.81 26.0027 29.8891 24.2351C29.9067 23.9185 29.9507 23.602 29.9683 23.2854C29.9859 23.0215 29.8979 22.7577 29.722 22.5642C29.6253 22.4587 29.5286 22.3532 29.423 22.2389C29.2559 22.0718 28.9921 22.063 28.8162 22.2301C28.6052 22.4323 28.4117 22.617 28.3062 22.8545C28.1831 23.1535 28.2886 23.5668 28.3238 23.9185C28.5524 26.504 28.6491 29.0895 28.5172 31.6837C28.4469 33.1436 28.4293 34.6122 28.2974 36.072C28.1479 37.6813 28.1655 39.317 27.5763 40.856C26.7496 43.0106 25.325 44.6375 23.2496 45.64C20.2244 47.091 17.0321 47.3636 13.7959 46.5634C11.0521 45.895 9.56594 43.9603 9.06467 41.2429C8.59858 38.6926 8.93276 36.1775 9.53955 33.6976C10.8938 28.1485 13.277 23.0303 16.1879 18.1408C17.164 16.4963 18.1842 14.8694 19.5297 13.4887C19.943 13.0578 20.4179 12.6797 20.9191 12.3543C22.5285 11.299 24.2697 11.642 25.4393 13.1633C26.3275 14.3242 26.8112 15.6521 27.1805 17.0328C27.1959 17.0942 27.2247 17.1489 27.2434 17.2028C27.2485 17.2173 27.2606 17.23 27.2758 17.2326ZM19.1841 26.0307C18.9017 26.1692 18.5385 25.9981 18.5227 25.684C18.5108 25.4483 18.5461 25.2272 18.6133 25.0151C18.7876 24.4652 18.431 23.8768 17.8905 24.0785C17.422 24.2533 16.9795 24.4766 16.5548 24.7451C16.341 24.8804 16.0509 24.8604 15.8889 24.666C15.7376 24.4693 15.7873 24.1871 15.9933 24.0488C17.0413 23.345 18.1896 22.9527 19.4212 22.7752C19.7642 22.7257 20.0354 22.4361 19.9845 22.0934C19.8913 21.467 19.6567 20.9071 19.2632 20.4087C19.1189 20.2259 19.1057 19.9632 19.2531 19.7829C19.4212 19.5774 19.7287 19.563 19.8982 19.7673C20.4808 20.4699 20.7819 21.2767 20.8987 22.1597C20.9365 22.4447 21.1719 22.6756 21.4586 22.6957C21.9072 22.7272 22.2202 22.2451 22.0919 21.814C21.7052 20.5145 21.8732 19.2197 22.1923 17.8914C22.2524 17.641 22.5294 17.5038 22.7746 17.5827C22.9915 17.6525 23.1069 17.8709 23.0584 18.0935C23.0441 18.1587 23.03 18.2237 23.0158 18.2887C22.9236 18.7123 23.2626 19.1292 23.6876 19.0441C23.9895 18.9837 24.2636 18.8739 24.496 18.6604C24.6648 18.5054 24.9086 18.4297 25.1129 18.5336C25.3427 18.6504 25.4325 18.9401 25.2669 19.1376C24.772 19.7278 24.1156 19.924 23.391 19.9978C23.0039 20.0373 22.6957 20.3734 22.7359 20.7604C22.748 20.8773 22.7627 20.9919 22.7835 21.1044C22.977 22.0542 23.4255 22.8193 24.4104 23.1447C24.6742 23.2326 24.8589 23.215 25.0348 22.9424C25.58 22.1157 26.1692 21.3155 26.7232 20.4888C26.8376 20.313 26.9255 20.0403 26.8815 19.8469C26.6441 18.7564 26.4067 17.6571 26.0901 16.5843C25.7207 15.3003 25.2194 14.0691 24.1554 13.1721C23.5398 12.6533 22.8626 12.4774 22.0887 12.7676C21.0071 13.1546 20.2508 13.946 19.556 14.7991C18.0083 16.6986 16.7859 18.8004 15.6339 20.9549C13.2331 25.4311 11.1928 30.0568 10.1551 35.0607C9.74182 37.0481 9.58352 39.0444 9.93529 41.0671C10.375 43.5734 11.9931 45.2794 14.4643 45.7983C16.6804 46.2644 18.8965 46.15 21.051 45.5081C24.3928 44.5143 26.6793 42.4477 27.0926 38.8158C27.3564 36.5205 27.5147 34.2164 27.5851 31.9036C27.6554 29.8018 27.5587 27.6824 27.5147 25.5806C27.5131 25.4708 27.5093 25.3609 27.5039 25.2505C27.4758 24.669 26.739 24.4152 26.3415 24.8406C25.4872 25.7549 24.6564 26.6439 23.83 27.5329C23.7772 27.5945 23.742 27.6824 23.7332 27.7704C23.6427 28.4718 23.9274 29.0891 24.5096 29.4559C24.687 29.5677 24.8106 29.7504 24.786 29.9586C24.7551 30.2205 24.5101 30.4228 24.2608 30.3366C23.6479 30.1247 23.2951 29.6749 23.0493 29.0925C22.9505 28.8583 22.5982 28.783 22.4845 29.0103C22.2295 29.5819 21.9392 30.136 21.7546 30.734C21.3237 32.0971 21.4644 33.4162 22.4229 34.5242C22.8334 34.9955 23.3687 35.3551 23.8925 35.762C24.0401 35.8766 24.1049 36.0394 24.0376 36.2137C23.9506 36.439 23.6804 36.5857 23.465 36.4766C23.2791 36.3823 23.1009 36.2797 22.9296 36.169C22.37 35.8074 21.4443 36.231 21.5746 36.8844C21.6334 37.1791 21.7012 37.4712 21.781 37.7605C22.1239 39.0356 22.4581 40.302 22.4229 41.6299C22.4091 42.1474 22.3412 42.6649 22.1256 43.1612C22.0246 43.3938 21.7264 43.4537 21.5083 43.3243C21.3167 43.2106 21.2505 42.9833 21.3132 42.7695C21.7934 41.1294 21.3557 39.5976 20.9221 38.029C20.7794 37.5126 20.1116 37.3457 19.7722 37.7603C18.683 39.0907 17.8202 40.5038 17.4534 42.2163C17.4039 42.4471 17.2023 42.6096 16.9681 42.5799C16.7324 42.5499 16.5466 42.3375 16.5831 42.1027C16.6389 41.7438 16.7226 41.3961 16.8305 41.0555C17.0297 40.4265 16.2877 39.6019 15.6297 39.6491C15.2241 39.6782 14.8128 39.6578 14.3914 39.587C14.2485 39.563 14.1611 39.4198 14.1978 39.2796C14.2404 39.1165 14.281 38.9595 14.3213 38.8036C14.3319 38.7624 14.3835 38.7584 14.4059 38.7946C14.4148 38.809 14.4306 38.8147 14.4474 38.8129C15.0986 38.7459 15.7743 38.7605 16.3902 38.5783C18.0171 38.1122 19.2307 37.0042 20.3387 35.773C20.4179 35.6851 20.4179 35.5004 20.4179 35.3685C20.4179 34.7089 20.3299 34.0494 20.4003 33.3986C20.496 32.5372 20.6502 31.6811 20.8008 30.8138C20.8696 30.418 20.5697 30.0498 20.1696 30.0857C19.1098 30.1808 18.1713 30.5826 17.5008 31.5706C17.3653 31.7702 17.1113 31.8609 16.8936 31.7567C16.6697 31.6495 16.5678 31.378 16.6977 31.1665C16.8914 30.851 17.1242 30.5787 17.3927 30.3398C17.7537 30.0186 17.7569 29.4478 17.2745 29.4199C17.0774 29.4085 16.8789 29.4192 16.6804 29.4324C16.2703 29.4598 15.8602 29.5243 15.4295 29.5889C15.2117 29.6215 15.0177 29.5378 14.95 29.3282C14.8629 29.0581 15.0294 28.7298 15.3098 28.6866C15.859 28.6018 16.3878 28.5114 16.9266 28.4915C17.7093 28.4651 18.4656 28.641 19.046 29.2478C19.1163 29.3181 19.2834 29.3357 19.3977 29.3269C19.9078 29.2829 20.4091 29.1862 20.9191 29.1862C21.2973 29.1862 21.4907 29.0807 21.6754 28.7289C22.2734 27.5681 22.9066 26.4249 23.5486 25.2816C23.623 25.1506 23.7026 25.0215 23.7868 24.89C24.042 24.4917 23.8196 23.9652 23.3541 23.8803C22.8443 23.7874 22.3539 23.7022 21.8601 23.6371C21.4907 23.5844 20.9895 23.4964 20.752 23.6811C20.1101 24.1736 19.5121 24.754 19.4593 25.6686C19.4514 25.7788 19.3518 25.9032 19.2553 25.9848C19.2336 26.0033 19.2097 26.0181 19.1841 26.0307ZM42.4628 39.6344C41.8292 39.5778 41.1564 40.3327 41.3513 40.9383C41.4735 41.3179 41.5706 41.7075 41.6386 42.1113C41.6787 42.3496 41.4954 42.5672 41.2552 42.5937C41.0215 42.6195 40.8175 42.4573 40.7678 42.2275C40.3882 40.4733 39.4914 39.0438 38.3855 37.699C38.0664 37.3109 37.4565 37.4616 37.3201 37.9451C36.8786 39.5397 36.3838 41.1267 36.8963 42.7768C36.9638 42.994 36.8778 43.2379 36.68 43.3502C36.4597 43.4754 36.1825 43.3906 36.0879 43.1556C35.7398 42.2907 35.7077 41.3986 35.8515 40.513C36.045 39.3434 36.3792 38.1914 36.6166 37.0218C36.7701 36.2456 36.8658 35.4611 36.9837 34.6764C36.9899 34.6355 36.9598 34.5953 36.9204 34.5828C36.8894 34.5729 36.8595 34.5863 36.8411 34.6132C36.298 35.406 35.6147 36.0273 34.7588 36.4663C34.5338 36.5817 34.2652 36.4649 34.176 36.2283C34.0941 36.0111 34.1938 35.7687 34.3977 35.6575C35.5975 35.0033 36.4181 34.0645 36.6342 32.6159C36.7607 31.7507 36.3834 30.1953 35.876 29.2689C35.6699 28.8927 35.2167 29.0032 35.0151 29.3818C34.7194 29.9372 34.4168 30.2093 33.951 30.349C33.6976 30.425 33.4564 30.2257 33.4324 29.9622C33.4278 29.9117 33.4232 29.8608 33.4186 29.8093C33.4064 29.6726 33.5004 29.5657 33.6266 29.5116C34.4445 29.2126 34.7874 27.9374 34.1982 27.2955C33.653 26.6975 33.099 26.1171 32.5449 25.5367C32.3207 25.2982 32.0951 25.0612 31.8651 24.8216C31.4646 24.4043 30.7572 24.6674 30.723 25.2448C30.6807 25.9611 30.6434 26.6591 30.6278 27.357C30.5487 30.7955 30.6542 34.234 30.9796 37.6637C31.0499 38.3848 31.0939 39.1323 31.2874 39.8271C32.1316 42.8786 34.2422 44.6638 37.197 45.5169C39.0965 46.0709 41.0488 46.194 43.0099 45.9478C44.3115 45.7895 45.525 45.341 46.5276 44.4264C47.917 43.1513 48.3567 41.4804 48.4535 39.6952C48.5942 37.224 48.1281 34.8144 47.4246 32.4576C45.6218 26.4249 42.8692 20.8494 39.29 15.6785C38.5689 14.632 37.7335 13.6558 36.5902 13.0226C35.6317 12.4862 34.7611 12.5038 33.9784 13.2689C33.4419 13.7965 32.9846 14.4561 32.6505 15.142C31.9381 16.6018 31.6128 18.1936 31.3138 19.7765C31.2786 19.9436 31.217 20.1635 31.2874 20.2778C31.8874 21.1625 32.501 22.0337 33.1103 22.9033C33.2678 23.1281 33.5508 23.24 33.8036 23.1328C34.873 22.6793 35.5435 21.621 35.4604 20.538C35.4375 20.2395 35.1598 20.0509 34.861 20.033C34.1246 19.989 33.4552 19.7806 32.9572 19.1809C32.7901 18.9797 32.9032 18.6767 33.1379 18.5614C33.335 18.4647 33.5485 18.54 33.7116 18.6869C33.9682 18.9182 34.2616 19.0357 34.5821 19.0932C34.9961 19.1674 35.31 18.7582 35.2217 18.3469C35.2065 18.2763 35.1914 18.2059 35.1764 18.1356C35.1297 17.9171 35.2586 17.6966 35.4695 17.623C35.7033 17.5413 35.9574 17.6613 36.029 17.8985C36.345 18.9461 36.5697 20.4625 36.171 21.8621C36.0485 22.2922 36.352 22.7821 36.7984 22.7553C37.0898 22.7378 37.3317 22.4987 37.3633 22.2084C37.4613 21.3105 37.7612 20.5094 38.3598 19.8191C38.5351 19.6169 38.8576 19.6633 39.0161 19.8789C39.1442 20.0529 39.1212 20.278 38.9893 20.4492C38.5915 20.9657 38.338 21.5324 38.2506 22.1818C38.2055 22.5174 38.4728 22.7966 38.8079 22.8453C40.0384 23.0242 41.19 23.4094 42.2378 24.1217C42.4526 24.2677 42.4727 24.5797 42.3047 24.7778C42.1629 24.9451 41.9317 24.972 41.7409 24.864C41.0021 24.4457 40.4101 24.1637 39.9388 24.0077C39.4854 23.8575 39.278 24.3068 39.4872 24.7363C39.6505 25.0716 39.7463 25.4275 39.7037 25.8254C39.6738 26.1049 39.3429 26.2201 39.0877 26.1023C38.9098 26.0202 38.825 25.848 38.8021 25.6535C38.7001 24.7855 38.0682 24.2491 37.4784 23.6987C37.4169 23.6459 37.285 23.6371 37.1882 23.6547C36.4544 23.7518 35.7206 23.853 35.0041 23.9497C34.5431 24.012 34.2851 24.5159 34.5056 24.9255C35.2646 26.3353 35.9991 27.6992 36.7397 29.0631C36.7925 29.1686 36.986 29.239 37.1179 29.2478C37.54 29.2829 37.9797 29.2126 38.3842 29.3005C38.8327 29.3885 39.2109 29.4676 39.5363 29.0367C39.6418 28.896 39.844 28.8169 40.0287 28.7641C41.0608 28.4279 42.065 28.5435 43.0785 28.7958C43.289 28.8482 43.3859 29.0597 43.3529 29.2742C43.2913 29.6523 43.133 29.7578 42.7285 29.6435C42.2712 29.5116 41.7788 29.4588 41.3039 29.4676C40.9208 29.4758 40.5377 29.5972 40.1547 29.678C40.1047 29.6885 40.0696 29.7373 40.0754 29.788C40.0784 29.8137 40.0941 29.8358 40.1162 29.8492C40.706 30.2094 41.2134 30.6465 41.5769 31.2312C41.7063 31.4392 41.5939 31.7102 41.3726 31.8153C41.1526 31.9198 40.9037 31.8204 40.7672 31.6187C40.1138 30.6531 39.0003 30.1971 38.0007 30.1496C37.5949 30.1303 37.3523 30.5431 37.4592 30.935C37.8702 32.4419 37.9713 33.9813 37.8126 35.5531C37.8038 35.6323 37.8566 35.7554 37.9269 35.817C38.4986 36.3622 39.035 36.9514 39.6594 37.4351C40.7866 38.3047 42.0097 38.931 43.4839 38.7673C43.7168 38.7414 43.9404 38.868 44.0013 39.0943C44.0683 39.3432 43.9062 39.6066 43.6494 39.6298C43.2426 39.6665 42.8483 39.6688 42.4628 39.6344Z"/>
</mask>
<path d="M27.2758 17.2326C27.3012 17.2368 27.3212 17.2141 27.3212 17.1883V13.348C27.3212 13.1106 27.5147 12.9171 27.7522 12.9171H30.5135C30.7509 12.9171 30.9444 13.1106 30.9444 13.348V14.8166C30.9444 15.2793 31.5769 15.404 31.7583 14.9844C31.7609 14.9783 31.763 14.9683 31.7667 14.9628C31.7704 14.9573 31.7724 14.9542 31.775 14.9481C32.1878 13.9755 32.7235 13.0821 33.5826 12.4158C34.6116 11.6156 35.7108 11.5364 36.8628 12.0993C38.094 12.6973 39.0086 13.6734 39.7825 14.7639C43.8102 20.4273 46.8002 26.592 48.603 33.3106C49.1922 35.518 49.5088 37.7781 49.3241 40.0733C49.0603 43.3623 47.5389 46.1061 43.564 46.748C40.5212 47.2405 37.5224 46.9679 34.7523 45.5081C32.3427 44.2329 30.8213 42.2191 30.2936 39.5545C30.0298 38.2266 29.9859 36.8547 29.9067 35.5004C29.7924 33.5129 29.6781 31.5254 29.6693 29.538C29.6605 27.7704 29.81 26.0027 29.8891 24.2351C29.9067 23.9185 29.9507 23.602 29.9683 23.2854C29.9859 23.0215 29.8979 22.7577 29.722 22.5642C29.6253 22.4587 29.5286 22.3532 29.423 22.2389C29.2559 22.0718 28.9921 22.063 28.8162 22.2301C28.6052 22.4323 28.4117 22.617 28.3062 22.8545C28.1831 23.1535 28.2886 23.5668 28.3238 23.9185C28.5524 26.504 28.6491 29.0895 28.5172 31.6837C28.4469 33.1436 28.4293 34.6122 28.2974 36.072C28.1479 37.6813 28.1655 39.317 27.5763 40.856C26.7496 43.0106 25.325 44.6375 23.2496 45.64C20.2244 47.091 17.0321 47.3636 13.7959 46.5634C11.0521 45.895 9.56594 43.9603 9.06467 41.2429C8.59858 38.6926 8.93276 36.1775 9.53955 33.6976C10.8938 28.1485 13.277 23.0303 16.1879 18.1408C17.164 16.4963 18.1842 14.8694 19.5297 13.4887C19.943 13.0578 20.4179 12.6797 20.9191 12.3543C22.5285 11.299 24.2697 11.642 25.4393 13.1633C26.3275 14.3242 26.8112 15.6521 27.1805 17.0328C27.1959 17.0942 27.2247 17.1489 27.2434 17.2028C27.2485 17.2173 27.2606 17.23 27.2758 17.2326ZM19.1841 26.0307C18.9017 26.1692 18.5385 25.9981 18.5227 25.684C18.5108 25.4483 18.5461 25.2272 18.6133 25.0151C18.7876 24.4652 18.431 23.8768 17.8905 24.0785C17.422 24.2533 16.9795 24.4766 16.5548 24.7451C16.341 24.8804 16.0509 24.8604 15.8889 24.666C15.7376 24.4693 15.7873 24.1871 15.9933 24.0488C17.0413 23.345 18.1896 22.9527 19.4212 22.7752C19.7642 22.7257 20.0354 22.4361 19.9845 22.0934C19.8913 21.467 19.6567 20.9071 19.2632 20.4087C19.1189 20.2259 19.1057 19.9632 19.2531 19.7829C19.4212 19.5774 19.7287 19.563 19.8982 19.7673C20.4808 20.4699 20.7819 21.2767 20.8987 22.1597C20.9365 22.4447 21.1719 22.6756 21.4586 22.6957C21.9072 22.7272 22.2202 22.2451 22.0919 21.814C21.7052 20.5145 21.8732 19.2197 22.1923 17.8914C22.2524 17.641 22.5294 17.5038 22.7746 17.5827C22.9915 17.6525 23.1069 17.8709 23.0584 18.0935C23.0441 18.1587 23.03 18.2237 23.0158 18.2887C22.9236 18.7123 23.2626 19.1292 23.6876 19.0441C23.9895 18.9837 24.2636 18.8739 24.496 18.6604C24.6648 18.5054 24.9086 18.4297 25.1129 18.5336C25.3427 18.6504 25.4325 18.9401 25.2669 19.1376C24.772 19.7278 24.1156 19.924 23.391 19.9978C23.0039 20.0373 22.6957 20.3734 22.7359 20.7604C22.748 20.8773 22.7627 20.9919 22.7835 21.1044C22.977 22.0542 23.4255 22.8193 24.4104 23.1447C24.6742 23.2326 24.8589 23.215 25.0348 22.9424C25.58 22.1157 26.1692 21.3155 26.7232 20.4888C26.8376 20.313 26.9255 20.0403 26.8815 19.8469C26.6441 18.7564 26.4067 17.6571 26.0901 16.5843C25.7207 15.3003 25.2194 14.0691 24.1554 13.1721C23.5398 12.6533 22.8626 12.4774 22.0887 12.7676C21.0071 13.1546 20.2508 13.946 19.556 14.7991C18.0083 16.6986 16.7859 18.8004 15.6339 20.9549C13.2331 25.4311 11.1928 30.0568 10.1551 35.0607C9.74182 37.0481 9.58352 39.0444 9.93529 41.0671C10.375 43.5734 11.9931 45.2794 14.4643 45.7983C16.6804 46.2644 18.8965 46.15 21.051 45.5081C24.3928 44.5143 26.6793 42.4477 27.0926 38.8158C27.3564 36.5205 27.5147 34.2164 27.5851 31.9036C27.6554 29.8018 27.5587 27.6824 27.5147 25.5806C27.5131 25.4708 27.5093 25.3609 27.5039 25.2505C27.4758 24.669 26.739 24.4152 26.3415 24.8406C25.4872 25.7549 24.6564 26.6439 23.83 27.5329C23.7772 27.5945 23.742 27.6824 23.7332 27.7704C23.6427 28.4718 23.9274 29.0891 24.5096 29.4559C24.687 29.5677 24.8106 29.7504 24.786 29.9586C24.7551 30.2205 24.5101 30.4228 24.2608 30.3366C23.6479 30.1247 23.2951 29.6749 23.0493 29.0925C22.9505 28.8583 22.5982 28.783 22.4845 29.0103C22.2295 29.5819 21.9392 30.136 21.7546 30.734C21.3237 32.0971 21.4644 33.4162 22.4229 34.5242C22.8334 34.9955 23.3687 35.3551 23.8925 35.762C24.0401 35.8766 24.1049 36.0394 24.0376 36.2137C23.9506 36.439 23.6804 36.5857 23.465 36.4766C23.2791 36.3823 23.1009 36.2797 22.9296 36.169C22.37 35.8074 21.4443 36.231 21.5746 36.8844C21.6334 37.1791 21.7012 37.4712 21.781 37.7605C22.1239 39.0356 22.4581 40.302 22.4229 41.6299C22.4091 42.1474 22.3412 42.6649 22.1256 43.1612C22.0246 43.3938 21.7264 43.4537 21.5083 43.3243C21.3167 43.2106 21.2505 42.9833 21.3132 42.7695C21.7934 41.1294 21.3557 39.5976 20.9221 38.029C20.7794 37.5126 20.1116 37.3457 19.7722 37.7603C18.683 39.0907 17.8202 40.5038 17.4534 42.2163C17.4039 42.4471 17.2023 42.6096 16.9681 42.5799C16.7324 42.5499 16.5466 42.3375 16.5831 42.1027C16.6389 41.7438 16.7226 41.3961 16.8305 41.0555C17.0297 40.4265 16.2877 39.6019 15.6297 39.6491C15.2241 39.6782 14.8128 39.6578 14.3914 39.587C14.2485 39.563 14.1611 39.4198 14.1978 39.2796C14.2404 39.1165 14.281 38.9595 14.3213 38.8036C14.3319 38.7624 14.3835 38.7584 14.4059 38.7946C14.4148 38.809 14.4306 38.8147 14.4474 38.8129C15.0986 38.7459 15.7743 38.7605 16.3902 38.5783C18.0171 38.1122 19.2307 37.0042 20.3387 35.773C20.4179 35.6851 20.4179 35.5004 20.4179 35.3685C20.4179 34.7089 20.3299 34.0494 20.4003 33.3986C20.496 32.5372 20.6502 31.6811 20.8008 30.8138C20.8696 30.418 20.5697 30.0498 20.1696 30.0857C19.1098 30.1808 18.1713 30.5826 17.5008 31.5706C17.3653 31.7702 17.1113 31.8609 16.8936 31.7567C16.6697 31.6495 16.5678 31.378 16.6977 31.1665C16.8914 30.851 17.1242 30.5787 17.3927 30.3398C17.7537 30.0186 17.7569 29.4478 17.2745 29.4199C17.0774 29.4085 16.8789 29.4192 16.6804 29.4324C16.2703 29.4598 15.8602 29.5243 15.4295 29.5889C15.2117 29.6215 15.0177 29.5378 14.95 29.3282C14.8629 29.0581 15.0294 28.7298 15.3098 28.6866C15.859 28.6018 16.3878 28.5114 16.9266 28.4915C17.7093 28.4651 18.4656 28.641 19.046 29.2478C19.1163 29.3181 19.2834 29.3357 19.3977 29.3269C19.9078 29.2829 20.4091 29.1862 20.9191 29.1862C21.2973 29.1862 21.4907 29.0807 21.6754 28.7289C22.2734 27.5681 22.9066 26.4249 23.5486 25.2816C23.623 25.1506 23.7026 25.0215 23.7868 24.89C24.042 24.4917 23.8196 23.9652 23.3541 23.8803C22.8443 23.7874 22.3539 23.7022 21.8601 23.6371C21.4907 23.5844 20.9895 23.4964 20.752 23.6811C20.1101 24.1736 19.5121 24.754 19.4593 25.6686C19.4514 25.7788 19.3518 25.9032 19.2553 25.9848C19.2336 26.0033 19.2097 26.0181 19.1841 26.0307ZM42.4628 39.6344C41.8292 39.5778 41.1564 40.3327 41.3513 40.9383C41.4735 41.3179 41.5706 41.7075 41.6386 42.1113C41.6787 42.3496 41.4954 42.5672 41.2552 42.5937C41.0215 42.6195 40.8175 42.4573 40.7678 42.2275C40.3882 40.4733 39.4914 39.0438 38.3855 37.699C38.0664 37.3109 37.4565 37.4616 37.3201 37.9451C36.8786 39.5397 36.3838 41.1267 36.8963 42.7768C36.9638 42.994 36.8778 43.2379 36.68 43.3502C36.4597 43.4754 36.1825 43.3906 36.0879 43.1556C35.7398 42.2907 35.7077 41.3986 35.8515 40.513C36.045 39.3434 36.3792 38.1914 36.6166 37.0218C36.7701 36.2456 36.8658 35.4611 36.9837 34.6764C36.9899 34.6355 36.9598 34.5953 36.9204 34.5828C36.8894 34.5729 36.8595 34.5863 36.8411 34.6132C36.298 35.406 35.6147 36.0273 34.7588 36.4663C34.5338 36.5817 34.2652 36.4649 34.176 36.2283C34.0941 36.0111 34.1938 35.7687 34.3977 35.6575C35.5975 35.0033 36.4181 34.0645 36.6342 32.6159C36.7607 31.7507 36.3834 30.1953 35.876 29.2689C35.6699 28.8927 35.2167 29.0032 35.0151 29.3818C34.7194 29.9372 34.4168 30.2093 33.951 30.349C33.6976 30.425 33.4564 30.2257 33.4324 29.9622C33.4278 29.9117 33.4232 29.8608 33.4186 29.8093C33.4064 29.6726 33.5004 29.5657 33.6266 29.5116C34.4445 29.2126 34.7874 27.9374 34.1982 27.2955C33.653 26.6975 33.099 26.1171 32.5449 25.5367C32.3207 25.2982 32.0951 25.0612 31.8651 24.8216C31.4646 24.4043 30.7572 24.6674 30.723 25.2448C30.6807 25.9611 30.6434 26.6591 30.6278 27.357C30.5487 30.7955 30.6542 34.234 30.9796 37.6637C31.0499 38.3848 31.0939 39.1323 31.2874 39.8271C32.1316 42.8786 34.2422 44.6638 37.197 45.5169C39.0965 46.0709 41.0488 46.194 43.0099 45.9478C44.3115 45.7895 45.525 45.341 46.5276 44.4264C47.917 43.1513 48.3567 41.4804 48.4535 39.6952C48.5942 37.224 48.1281 34.8144 47.4246 32.4576C45.6218 26.4249 42.8692 20.8494 39.29 15.6785C38.5689 14.632 37.7335 13.6558 36.5902 13.0226C35.6317 12.4862 34.7611 12.5038 33.9784 13.2689C33.4419 13.7965 32.9846 14.4561 32.6505 15.142C31.9381 16.6018 31.6128 18.1936 31.3138 19.7765C31.2786 19.9436 31.217 20.1635 31.2874 20.2778C31.8874 21.1625 32.501 22.0337 33.1103 22.9033C33.2678 23.1281 33.5508 23.24 33.8036 23.1328C34.873 22.6793 35.5435 21.621 35.4604 20.538C35.4375 20.2395 35.1598 20.0509 34.861 20.033C34.1246 19.989 33.4552 19.7806 32.9572 19.1809C32.7901 18.9797 32.9032 18.6767 33.1379 18.5614C33.335 18.4647 33.5485 18.54 33.7116 18.6869C33.9682 18.9182 34.2616 19.0357 34.5821 19.0932C34.9961 19.1674 35.31 18.7582 35.2217 18.3469C35.2065 18.2763 35.1914 18.2059 35.1764 18.1356C35.1297 17.9171 35.2586 17.6966 35.4695 17.623C35.7033 17.5413 35.9574 17.6613 36.029 17.8985C36.345 18.9461 36.5697 20.4625 36.171 21.8621C36.0485 22.2922 36.352 22.7821 36.7984 22.7553C37.0898 22.7378 37.3317 22.4987 37.3633 22.2084C37.4613 21.3105 37.7612 20.5094 38.3598 19.8191C38.5351 19.6169 38.8576 19.6633 39.0161 19.8789C39.1442 20.0529 39.1212 20.278 38.9893 20.4492C38.5915 20.9657 38.338 21.5324 38.2506 22.1818C38.2055 22.5174 38.4728 22.7966 38.8079 22.8453C40.0384 23.0242 41.19 23.4094 42.2378 24.1217C42.4526 24.2677 42.4727 24.5797 42.3047 24.7778C42.1629 24.9451 41.9317 24.972 41.7409 24.864C41.0021 24.4457 40.4101 24.1637 39.9388 24.0077C39.4854 23.8575 39.278 24.3068 39.4872 24.7363C39.6505 25.0716 39.7463 25.4275 39.7037 25.8254C39.6738 26.1049 39.3429 26.2201 39.0877 26.1023C38.9098 26.0202 38.825 25.848 38.8021 25.6535C38.7001 24.7855 38.0682 24.2491 37.4784 23.6987C37.4169 23.6459 37.285 23.6371 37.1882 23.6547C36.4544 23.7518 35.7206 23.853 35.0041 23.9497C34.5431 24.012 34.2851 24.5159 34.5056 24.9255C35.2646 26.3353 35.9991 27.6992 36.7397 29.0631C36.7925 29.1686 36.986 29.239 37.1179 29.2478C37.54 29.2829 37.9797 29.2126 38.3842 29.3005C38.8327 29.3885 39.2109 29.4676 39.5363 29.0367C39.6418 28.896 39.844 28.8169 40.0287 28.7641C41.0608 28.4279 42.065 28.5435 43.0785 28.7958C43.289 28.8482 43.3859 29.0597 43.3529 29.2742C43.2913 29.6523 43.133 29.7578 42.7285 29.6435C42.2712 29.5116 41.7788 29.4588 41.3039 29.4676C40.9208 29.4758 40.5377 29.5972 40.1547 29.678C40.1047 29.6885 40.0696 29.7373 40.0754 29.788C40.0784 29.8137 40.0941 29.8358 40.1162 29.8492C40.706 30.2094 41.2134 30.6465 41.5769 31.2312C41.7063 31.4392 41.5939 31.7102 41.3726 31.8153C41.1526 31.9198 40.9037 31.8204 40.7672 31.6187C40.1138 30.6531 39.0003 30.1971 38.0007 30.1496C37.5949 30.1303 37.3523 30.5431 37.4592 30.935C37.8702 32.4419 37.9713 33.9813 37.8126 35.5531C37.8038 35.6323 37.8566 35.7554 37.9269 35.817C38.4986 36.3622 39.035 36.9514 39.6594 37.4351C40.7866 38.3047 42.0097 38.931 43.4839 38.7673C43.7168 38.7414 43.9404 38.868 44.0013 39.0943C44.0683 39.3432 43.9062 39.6066 43.6494 39.6298C43.2426 39.6665 42.8483 39.6688 42.4628 39.6344Z" fill="white"/>
<path d="M27.2758 17.2326C27.3012 17.2368 27.3212 17.2141 27.3212 17.1883V13.348C27.3212 13.1106 27.5147 12.9171 27.7522 12.9171H30.5135C30.7509 12.9171 30.9444 13.1106 30.9444 13.348V14.8166C30.9444 15.2793 31.5769 15.404 31.7583 14.9844C31.7609 14.9783 31.763 14.9683 31.7667 14.9628C31.7704 14.9573 31.7724 14.9542 31.775 14.9481C32.1878 13.9755 32.7235 13.0821 33.5826 12.4158C34.6116 11.6156 35.7108 11.5364 36.8628 12.0993C38.094 12.6973 39.0086 13.6734 39.7825 14.7639C43.8102 20.4273 46.8002 26.592 48.603 33.3106C49.1922 35.518 49.5088 37.7781 49.3241 40.0733C49.0603 43.3623 47.5389 46.1061 43.564 46.748C40.5212 47.2405 37.5224 46.9679 34.7523 45.5081C32.3427 44.2329 30.8213 42.2191 30.2936 39.5545C30.0298 38.2266 29.9859 36.8547 29.9067 35.5004C29.7924 33.5129 29.6781 31.5254 29.6693 29.538C29.6605 27.7704 29.81 26.0027 29.8891 24.2351C29.9067 23.9185 29.9507 23.602 29.9683 23.2854C29.9859 23.0215 29.8979 22.7577 29.722 22.5642C29.6253 22.4587 29.5286 22.3532 29.423 22.2389C29.2559 22.0718 28.9921 22.063 28.8162 22.2301C28.6052 22.4323 28.4117 22.617 28.3062 22.8545C28.1831 23.1535 28.2886 23.5668 28.3238 23.9185C28.5524 26.504 28.6491 29.0895 28.5172 31.6837C28.4469 33.1436 28.4293 34.6122 28.2974 36.072C28.1479 37.6813 28.1655 39.317 27.5763 40.856C26.7496 43.0106 25.325 44.6375 23.2496 45.64C20.2244 47.091 17.0321 47.3636 13.7959 46.5634C11.0521 45.895 9.56594 43.9603 9.06467 41.2429C8.59858 38.6926 8.93276 36.1775 9.53955 33.6976C10.8938 28.1485 13.277 23.0303 16.1879 18.1408C17.164 16.4963 18.1842 14.8694 19.5297 13.4887C19.943 13.0578 20.4179 12.6797 20.9191 12.3543C22.5285 11.299 24.2697 11.642 25.4393 13.1633C26.3275 14.3242 26.8112 15.6521 27.1805 17.0328C27.1959 17.0942 27.2247 17.1489 27.2434 17.2028C27.2485 17.2173 27.2606 17.23 27.2758 17.2326ZM19.1841 26.0307C18.9017 26.1692 18.5385 25.9981 18.5227 25.684C18.5108 25.4483 18.5461 25.2272 18.6133 25.0151C18.7876 24.4652 18.431 23.8768 17.8905 24.0785C17.422 24.2533 16.9795 24.4766 16.5548 24.7451C16.341 24.8804 16.0509 24.8604 15.8889 24.666C15.7376 24.4693 15.7873 24.1871 15.9933 24.0488C17.0413 23.345 18.1896 22.9527 19.4212 22.7752C19.7642 22.7257 20.0354 22.4361 19.9845 22.0934C19.8913 21.467 19.6567 20.9071 19.2632 20.4087C19.1189 20.2259 19.1057 19.9632 19.2531 19.7829C19.4212 19.5774 19.7287 19.563 19.8982 19.7673C20.4808 20.4699 20.7819 21.2767 20.8987 22.1597C20.9365 22.4447 21.1719 22.6756 21.4586 22.6957C21.9072 22.7272 22.2202 22.2451 22.0919 21.814C21.7052 20.5145 21.8732 19.2197 22.1923 17.8914C22.2524 17.641 22.5294 17.5038 22.7746 17.5827C22.9915 17.6525 23.1069 17.8709 23.0584 18.0935C23.0441 18.1587 23.03 18.2237 23.0158 18.2887C22.9236 18.7123 23.2626 19.1292 23.6876 19.0441C23.9895 18.9837 24.2636 18.8739 24.496 18.6604C24.6648 18.5054 24.9086 18.4297 25.1129 18.5336C25.3427 18.6504 25.4325 18.9401 25.2669 19.1376C24.772 19.7278 24.1156 19.924 23.391 19.9978C23.0039 20.0373 22.6957 20.3734 22.7359 20.7604C22.748 20.8773 22.7627 20.9919 22.7835 21.1044C22.977 22.0542 23.4255 22.8193 24.4104 23.1447C24.6742 23.2326 24.8589 23.215 25.0348 22.9424C25.58 22.1157 26.1692 21.3155 26.7232 20.4888C26.8376 20.313 26.9255 20.0403 26.8815 19.8469C26.6441 18.7564 26.4067 17.6571 26.0901 16.5843C25.7207 15.3003 25.2194 14.0691 24.1554 13.1721C23.5398 12.6533 22.8626 12.4774 22.0887 12.7676C21.0071 13.1546 20.2508 13.946 19.556 14.7991C18.0083 16.6986 16.7859 18.8004 15.6339 20.9549C13.2331 25.4311 11.1928 30.0568 10.1551 35.0607C9.74182 37.0481 9.58352 39.0444 9.93529 41.0671C10.375 43.5734 11.9931 45.2794 14.4643 45.7983C16.6804 46.2644 18.8965 46.15 21.051 45.5081C24.3928 44.5143 26.6793 42.4477 27.0926 38.8158C27.3564 36.5205 27.5147 34.2164 27.5851 31.9036C27.6554 29.8018 27.5587 27.6824 27.5147 25.5806C27.5131 25.4708 27.5093 25.3609 27.5039 25.2505C27.4758 24.669 26.739 24.4152 26.3415 24.8406C25.4872 25.7549 24.6564 26.6439 23.83 27.5329C23.7772 27.5945 23.742 27.6824 23.7332 27.7704C23.6427 28.4718 23.9274 29.0891 24.5096 29.4559C24.687 29.5677 24.8106 29.7504 24.786 29.9586C24.7551 30.2205 24.5101 30.4228 24.2608 30.3366C23.6479 30.1247 23.2951 29.6749 23.0493 29.0925C22.9505 28.8583 22.5982 28.783 22.4845 29.0103C22.2295 29.5819 21.9392 30.136 21.7546 30.734C21.3237 32.0971 21.4644 33.4162 22.4229 34.5242C22.8334 34.9955 23.3687 35.3551 23.8925 35.762C24.0401 35.8766 24.1049 36.0394 24.0376 36.2137C23.9506 36.439 23.6804 36.5857 23.465 36.4766C23.2791 36.3823 23.1009 36.2797 22.9296 36.169C22.37 35.8074 21.4443 36.231 21.5746 36.8844C21.6334 37.1791 21.7012 37.4712 21.781 37.7605C22.1239 39.0356 22.4581 40.302 22.4229 41.6299C22.4091 42.1474 22.3412 42.6649 22.1256 43.1612C22.0246 43.3938 21.7264 43.4537 21.5083 43.3243C21.3167 43.2106 21.2505 42.9833 21.3132 42.7695C21.7934 41.1294 21.3557 39.5976 20.9221 38.029C20.7794 37.5126 20.1116 37.3457 19.7722 37.7603C18.683 39.0907 17.8202 40.5038 17.4534 42.2163C17.4039 42.4471 17.2023 42.6096 16.9681 42.5799C16.7324 42.5499 16.5466 42.3375 16.5831 42.1027C16.6389 41.7438 16.7226 41.3961 16.8305 41.0555C17.0297 40.4265 16.2877 39.6019 15.6297 39.6491C15.2241 39.6782 14.8128 39.6578 14.3914 39.587C14.2485 39.563 14.1611 39.4198 14.1978 39.2796C14.2404 39.1165 14.281 38.9595 14.3213 38.8036C14.3319 38.7624 14.3835 38.7584 14.4059 38.7946C14.4148 38.809 14.4306 38.8147 14.4474 38.8129C15.0986 38.7459 15.7743 38.7605 16.3902 38.5783C18.0171 38.1122 19.2307 37.0042 20.3387 35.773C20.4179 35.6851 20.4179 35.5004 20.4179 35.3685C20.4179 34.7089 20.3299 34.0494 20.4003 33.3986C20.496 32.5372 20.6502 31.6811 20.8008 30.8138C20.8696 30.418 20.5697 30.0498 20.1696 30.0857C19.1098 30.1808 18.1713 30.5826 17.5008 31.5706C17.3653 31.7702 17.1113 31.8609 16.8936 31.7567C16.6697 31.6495 16.5678 31.378 16.6977 31.1665C16.8914 30.851 17.1242 30.5787 17.3927 30.3398C17.7537 30.0186 17.7569 29.4478 17.2745 29.4199C17.0774 29.4085 16.8789 29.4192 16.6804 29.4324C16.2703 29.4598 15.8602 29.5243 15.4295 29.5889C15.2117 29.6215 15.0177 29.5378 14.95 29.3282C14.8629 29.0581 15.0294 28.7298 15.3098 28.6866C15.859 28.6018 16.3878 28.5114 16.9266 28.4915C17.7093 28.4651 18.4656 28.641 19.046 29.2478C19.1163 29.3181 19.2834 29.3357 19.3977 29.3269C19.9078 29.2829 20.4091 29.1862 20.9191 29.1862C21.2973 29.1862 21.4907 29.0807 21.6754 28.7289C22.2734 27.5681 22.9066 26.4249 23.5486 25.2816C23.623 25.1506 23.7026 25.0215 23.7868 24.89C24.042 24.4917 23.8196 23.9652 23.3541 23.8803C22.8443 23.7874 22.3539 23.7022 21.8601 23.6371C21.4907 23.5844 20.9895 23.4964 20.752 23.6811C20.1101 24.1736 19.5121 24.754 19.4593 25.6686C19.4514 25.7788 19.3518 25.9032 19.2553 25.9848C19.2336 26.0033 19.2097 26.0181 19.1841 26.0307ZM42.4628 39.6344C41.8292 39.5778 41.1564 40.3327 41.3513 40.9383C41.4735 41.3179 41.5706 41.7075 41.6386 42.1113C41.6787 42.3496 41.4954 42.5672 41.2552 42.5937C41.0215 42.6195 40.8175 42.4573 40.7678 42.2275C40.3882 40.4733 39.4914 39.0438 38.3855 37.699C38.0664 37.3109 37.4565 37.4616 37.3201 37.9451C36.8786 39.5397 36.3838 41.1267 36.8963 42.7768C36.9638 42.994 36.8778 43.2379 36.68 43.3502C36.4597 43.4754 36.1825 43.3906 36.0879 43.1556C35.7398 42.2907 35.7077 41.3986 35.8515 40.513C36.045 39.3434 36.3792 38.1914 36.6166 37.0218C36.7701 36.2456 36.8658 35.4611 36.9837 34.6764C36.9899 34.6355 36.9598 34.5953 36.9204 34.5828C36.8894 34.5729 36.8595 34.5863 36.8411 34.6132C36.298 35.406 35.6147 36.0273 34.7588 36.4663C34.5338 36.5817 34.2652 36.4649 34.176 36.2283C34.0941 36.0111 34.1938 35.7687 34.3977 35.6575C35.5975 35.0033 36.4181 34.0645 36.6342 32.6159C36.7607 31.7507 36.3834 30.1953 35.876 29.2689C35.6699 28.8927 35.2167 29.0032 35.0151 29.3818C34.7194 29.9372 34.4168 30.2093 33.951 30.349C33.6976 30.425 33.4564 30.2257 33.4324 29.9622C33.4278 29.9117 33.4232 29.8608 33.4186 29.8093C33.4064 29.6726 33.5004 29.5657 33.6266 29.5116C34.4445 29.2126 34.7874 27.9374 34.1982 27.2955C33.653 26.6975 33.099 26.1171 32.5449 25.5367C32.3207 25.2982 32.0951 25.0612 31.8651 24.8216C31.4646 24.4043 30.7572 24.6674 30.723 25.2448C30.6807 25.9611 30.6434 26.6591 30.6278 27.357C30.5487 30.7955 30.6542 34.234 30.9796 37.6637C31.0499 38.3848 31.0939 39.1323 31.2874 39.8271C32.1316 42.8786 34.2422 44.6638 37.197 45.5169C39.0965 46.0709 41.0488 46.194 43.0099 45.9478C44.3115 45.7895 45.525 45.341 46.5276 44.4264C47.917 43.1513 48.3567 41.4804 48.4535 39.6952C48.5942 37.224 48.1281 34.8144 47.4246 32.4576C45.6218 26.4249 42.8692 20.8494 39.29 15.6785C38.5689 14.632 37.7335 13.6558 36.5902 13.0226C35.6317 12.4862 34.7611 12.5038 33.9784 13.2689C33.4419 13.7965 32.9846 14.4561 32.6505 15.142C31.9381 16.6018 31.6128 18.1936 31.3138 19.7765C31.2786 19.9436 31.217 20.1635 31.2874 20.2778C31.8874 21.1625 32.501 22.0337 33.1103 22.9033C33.2678 23.1281 33.5508 23.24 33.8036 23.1328C34.873 22.6793 35.5435 21.621 35.4604 20.538C35.4375 20.2395 35.1598 20.0509 34.861 20.033C34.1246 19.989 33.4552 19.7806 32.9572 19.1809C32.7901 18.9797 32.9032 18.6767 33.1379 18.5614C33.335 18.4647 33.5485 18.54 33.7116 18.6869C33.9682 18.9182 34.2616 19.0357 34.5821 19.0932C34.9961 19.1674 35.31 18.7582 35.2217 18.3469C35.2065 18.2763 35.1914 18.2059 35.1764 18.1356C35.1297 17.9171 35.2586 17.6966 35.4695 17.623C35.7033 17.5413 35.9574 17.6613 36.029 17.8985C36.345 18.9461 36.5697 20.4625 36.171 21.8621C36.0485 22.2922 36.352 22.7821 36.7984 22.7553C37.0898 22.7378 37.3317 22.4987 37.3633 22.2084C37.4613 21.3105 37.7612 20.5094 38.3598 19.8191C38.5351 19.6169 38.8576 19.6633 39.0161 19.8789C39.1442 20.0529 39.1212 20.278 38.9893 20.4492C38.5915 20.9657 38.338 21.5324 38.2506 22.1818C38.2055 22.5174 38.4728 22.7966 38.8079 22.8453C40.0384 23.0242 41.19 23.4094 42.2378 24.1217C42.4526 24.2677 42.4727 24.5797 42.3047 24.7778C42.1629 24.9451 41.9317 24.972 41.7409 24.864C41.0021 24.4457 40.4101 24.1637 39.9388 24.0077C39.4854 23.8575 39.278 24.3068 39.4872 24.7363C39.6505 25.0716 39.7463 25.4275 39.7037 25.8254C39.6738 26.1049 39.3429 26.2201 39.0877 26.1023C38.9098 26.0202 38.825 25.848 38.8021 25.6535C38.7001 24.7855 38.0682 24.2491 37.4784 23.6987C37.4169 23.6459 37.285 23.6371 37.1882 23.6547C36.4544 23.7518 35.7206 23.853 35.0041 23.9497C34.5431 24.012 34.2851 24.5159 34.5056 24.9255C35.2646 26.3353 35.9991 27.6992 36.7397 29.0631C36.7925 29.1686 36.986 29.239 37.1179 29.2478C37.54 29.2829 37.9797 29.2126 38.3842 29.3005C38.8327 29.3885 39.2109 29.4676 39.5363 29.0367C39.6418 28.896 39.844 28.8169 40.0287 28.7641C41.0608 28.4279 42.065 28.5435 43.0785 28.7958C43.289 28.8482 43.3859 29.0597 43.3529 29.2742C43.2913 29.6523 43.133 29.7578 42.7285 29.6435C42.2712 29.5116 41.7788 29.4588 41.3039 29.4676C40.9208 29.4758 40.5377 29.5972 40.1547 29.678C40.1047 29.6885 40.0696 29.7373 40.0754 29.788C40.0784 29.8137 40.0941 29.8358 40.1162 29.8492C40.706 30.2094 41.2134 30.6465 41.5769 31.2312C41.7063 31.4392 41.5939 31.7102 41.3726 31.8153C41.1526 31.9198 40.9037 31.8204 40.7672 31.6187C40.1138 30.6531 39.0003 30.1971 38.0007 30.1496C37.5949 30.1303 37.3523 30.5431 37.4592 30.935C37.8702 32.4419 37.9713 33.9813 37.8126 35.5531C37.8038 35.6323 37.8566 35.7554 37.9269 35.817C38.4986 36.3622 39.035 36.9514 39.6594 37.4351C40.7866 38.3047 42.0097 38.931 43.4839 38.7673C43.7168 38.7414 43.9404 38.868 44.0013 39.0943C44.0683 39.3432 43.9062 39.6066 43.6494 39.6298C43.2426 39.6665 42.8483 39.6688 42.4628 39.6344Z" stroke="white" stroke-width="0.221334" stroke-linejoin="round" mask="url(#path-2-outside-1_1912:7408)"/>
</svg>
