<svg width="58" height="59" viewBox="0 0 58 59" fill="none" xmlns="http://www.w3.org/2000/svg">
<rect y="0.927734" width="58" height="58" rx="29" fill="#004684"/>
<g clip-path="url(#clip0_1912:7404)">
<path d="M19.4889 35.6895L19.4883 35.6894C17.3071 35.1689 14.9079 34.6161 12.554 36.3876C10.6058 37.8703 9.70625 39.4013 9.32917 41.013C8.95062 42.631 9.09613 44.3375 9.25717 46.1833C9.30696 46.5329 9.33185 46.9064 9.35642 47.2749L9.35657 47.2772L9.24615 47.2846M19.4889 35.6895L23.3839 35.9589C26.6571 34.8761 28.4524 31.3125 29.0243 28.3541C29.311 26.9453 29.3491 25.5834 29.1642 24.4396C28.9798 23.2988 28.571 22.3601 27.9495 21.8163L27.9491 21.816C23.7486 18.1739 24.9015 13.0095 24.9651 12.7247L24.9658 12.7213L24.8582 12.6957L24.9662 12.7197L24.966 12.7206C25.0765 12.2583 25.561 11.9548 26.0154 12.0846L26.0153 12.0847L26.0201 12.0858C26.482 12.1958 26.7892 12.6815 26.6805 13.1395M19.4889 35.6895C19.5142 35.6954 19.5394 35.7013 19.5647 35.7071M19.4889 35.6895L19.5647 35.7071M9.24615 47.2846L9.35632 47.2741C9.4006 47.7391 9.7755 48.0893 10.2358 48.0893L10.2377 48.0893C10.2469 48.0892 10.2771 48.0889 10.3048 48.0981C10.3118 48.1004 10.3197 48.1037 10.328 48.1082C10.7897 48.0395 11.1325 47.6324 11.0905 47.1709L11.0902 47.1678C11.0781 46.9721 11.0597 46.7821 11.0411 46.5966C11.0393 46.578 11.0374 46.5594 11.0356 46.5409C11.019 46.3757 11.0027 46.2135 10.9915 46.0563C10.8311 44.2556 10.7047 42.7832 11.0094 41.47C11.3164 40.1474 12.0576 38.9946 13.6079 37.8194C15.2876 36.5408 17.0218 36.948 18.9789 37.4074C19.0089 37.4145 19.039 37.4215 19.0691 37.4286L19.1237 37.4412C20.72 37.8097 22.3279 38.1809 23.9328 37.6539C27.8855 36.3361 30.0477 32.2032 30.7371 28.7315C31.4516 25.1342 30.8026 22.0183 29.0904 20.5232L29.0904 20.5232C27.3949 19.0412 26.7797 17.2445 26.5947 15.7962C26.4103 14.3523 26.6529 13.2505 26.6805 13.1395M9.24615 47.2846C9.29563 47.8041 9.71624 48.2 10.2358 48.2C10.2584 48.2 10.2811 48.2 10.2848 48.2189L9.14718 46.1959C9.19667 46.5423 9.22141 46.9134 9.24615 47.2846ZM26.6805 13.1395C26.6806 13.1393 26.6806 13.1391 26.6806 13.1389L26.788 13.1658L26.6804 13.1401C26.6804 13.1399 26.6805 13.1397 26.6805 13.1395ZM19.5647 35.7071C20.23 35.8617 20.8908 36.0152 21.5209 36.0876M19.5647 35.7071L21.5209 36.0876M21.5209 36.0876C22.1753 36.1627 22.8056 36.1516 23.3837 35.959L21.5209 36.0876Z" fill="white" stroke="#004684" stroke-width="0.221334"/>
<path d="M16.3727 43.9925L16.2362 43.7234L16.1663 44.0169C16.0393 44.5503 15.9406 45.5017 15.9901 47.1633L15.9902 47.165C16.0122 47.6496 15.6375 48.0667 15.1556 48.0886C14.671 48.1106 14.2539 47.7359 14.232 47.2539L14.232 47.2539C14.1579 45.6372 14.2327 44.413 14.4606 43.5226C14.6881 42.6336 15.0643 42.0918 15.5831 41.8148C16.2537 41.4683 16.9254 41.6757 17.2962 41.9538C17.4739 42.0871 17.6062 42.2866 17.65 42.5055L17.6499 42.5055L17.6504 42.5078C17.679 42.6362 18.0307 44.1393 19.9071 45.3388C21.782 46.5374 25.1598 47.4202 31.2124 46.3535L31.2125 46.3535C37.6796 45.2093 43.1294 41.0798 45.7678 35.2803L45.7679 35.2802C47.7337 30.9504 47.7149 26.3582 45.6876 23.0044C43.6565 19.6152 41.2624 18.2467 39.1085 17.7946C36.9758 17.3469 35.0917 17.801 34.0596 18.0498L34.0373 18.0551L34.0364 18.0554C33.6391 18.1547 33.4291 18.2005 33.1973 18.2005C33.0618 18.2005 32.9068 18.1998 32.7322 18.1271C32.5589 18.0548 32.3558 17.9068 32.1412 17.593C31.7082 16.9599 31.2406 15.6706 30.8822 13.0509C30.8162 12.5664 31.1458 12.1281 31.6288 12.0622C32.1133 11.9961 32.5517 12.3258 32.6175 12.8087L32.6176 12.8094C32.8158 14.1965 33.1388 15.6425 33.3914 16.274L33.4193 16.3435H33.4942C33.4946 16.3435 33.4953 16.3435 33.496 16.3436C33.5053 16.3437 33.5355 16.344 33.5632 16.3348C33.5777 16.3299 33.5968 16.321 33.6142 16.3043C34.6911 16.0297 36.8718 15.5127 39.3845 16.0442L39.3854 16.0444C42.5153 16.6802 45.1389 18.71 47.1556 22.0793L47.1557 22.0794C49.5084 26.0006 49.5628 31.058 47.323 36.0053C44.4439 42.3292 38.5375 46.8342 31.4714 48.09C29.5469 48.4108 27.7965 48.5586 26.2696 48.5586C22.9459 48.5586 20.6842 47.8324 19.1488 46.9014C17.6136 45.9705 16.7979 44.8307 16.3727 43.9925Z" fill="white" stroke="#004684" stroke-width="0.221334"/>
<path d="M39.1848 40.5294C38.9869 40.5294 38.7642 40.4304 38.6653 40.2325C38.4921 39.9356 38.591 39.5644 38.8632 39.3912C43.5146 36.546 44.3806 31.0286 44.3806 30.9791C44.4301 30.6327 44.7517 30.41 45.0734 30.4595C45.4197 30.509 45.6424 30.8306 45.5929 31.1523C45.5682 31.3997 44.6527 37.2882 39.4817 40.4304C39.4075 40.5046 39.2838 40.5294 39.1848 40.5294Z" fill="white"/>
</g>
<defs>
<clipPath id="clip0_1912:7404">
<rect width="40.131" height="36.7414" fill="white" transform="translate(9 11.9277)"/>
</clipPath>
</defs>
</svg>
