<svg width="194" height="194" viewBox="0 0 194 194" fill="none" xmlns="http://www.w3.org/2000/svg">
<rect width="194" height="194" rx="27.8776" fill="#3A647E"/>
<g clip-path="url(#clip0_2099:2292)">
<path d="M86.2223 56.9723H85.9723V57.2223V61.6667V61.9167H86.2223H90.6667H90.9167V61.6667V57.2223V56.9723H90.6667H86.2223ZM92.8889 65.8612H84.0001C83.3902 65.8612 82.9014 65.659 82.5657 65.3233C82.23 64.9876 82.0278 64.4988 82.0278 63.8889V55.0001C82.0278 54.3902 82.23 53.9014 82.5657 53.5657C82.9014 53.23 83.3902 53.0278 84.0001 53.0278H92.8889C93.4988 53.0278 93.9876 53.23 94.3233 53.5657C94.659 53.9014 94.8612 54.3902 94.8612 55.0001V63.8889C94.8612 64.4988 94.659 64.9876 94.3233 65.3233C93.9876 65.659 93.4988 65.8612 92.8889 65.8612Z" fill="#F2F2F2" stroke="#3A647E" stroke-width="0.5"/>
<path d="M104 56.9723H103.75V57.2223V61.6667V61.9167H104H108.445H108.695V61.6667V57.2223V56.9723H108.445H104ZM110.667 65.8612H101.778C101.168 65.8612 100.679 65.659 100.344 65.3233C100.008 64.9876 99.8057 64.4988 99.8057 63.8889V55.0001C99.8057 54.3902 100.008 53.9014 100.344 53.5657C100.679 53.23 101.168 53.0278 101.778 53.0278H110.667C111.277 53.0278 111.765 53.23 112.101 53.5657C112.437 53.9014 112.639 54.3902 112.639 55.0001V63.8889C112.639 64.4988 112.437 64.9876 112.101 65.3233C111.765 65.659 111.277 65.8612 110.667 65.8612Z" fill="#F2F2F2" stroke="#3A647E" stroke-width="0.5"/>
<path d="M86.2223 74.7501H85.9723V75.0001V79.4446V79.6946H86.2223H90.6667H90.9167V79.4446V75.0001V74.7501H90.6667H86.2223ZM92.8889 83.639H84.0001C83.3902 83.639 82.9014 83.4368 82.5657 83.1011C82.23 82.7654 82.0278 82.2766 82.0278 81.6668V72.7779C82.0278 72.168 82.23 71.6792 82.5657 71.3436C82.9014 71.0079 83.3902 70.8057 84.0001 70.8057H92.8889C93.4988 70.8057 93.9876 71.0079 94.3233 71.3436C94.659 71.6792 94.8612 72.168 94.8612 72.7779V81.6668C94.8612 82.2766 94.659 82.7654 94.3233 83.1011C93.9876 83.4368 93.4988 83.639 92.8889 83.639Z" fill="#F2F2F2" stroke="#3A647E" stroke-width="0.5"/>
<path d="M104 74.7501H103.75V75.0001V79.4446V79.6946H104H108.445H108.695V79.4446V75.0001V74.7501H108.445H104ZM110.667 83.639H101.778C101.168 83.639 100.679 83.4368 100.344 83.1011C100.008 82.7654 99.8057 82.2766 99.8057 81.6668V72.7779C99.8057 72.168 100.008 71.6792 100.344 71.3436C100.679 71.0079 101.168 70.8057 101.778 70.8057H110.667C111.277 70.8057 111.765 71.0079 112.101 71.3436C112.437 71.6792 112.639 72.168 112.639 72.7779V81.6668C112.639 82.2766 112.437 82.7654 112.101 83.1011C111.765 83.4368 111.277 83.639 110.667 83.639Z" fill="#F2F2F2" stroke="#3A647E" stroke-width="0.5"/>
<path d="M73.1389 112.778V112.528H72.8889H48.4444C47.8346 112.528 47.3458 112.326 47.0101 111.99C46.6744 111.654 46.4722 111.165 46.4722 110.556V72.7778V72.5278H46.2222C45.6124 72.5278 45.1236 72.3256 44.7879 71.9899C44.4522 71.6542 44.25 71.1654 44.25 70.5556V61.6667C44.25 61.0568 44.4522 60.568 44.7879 60.2323C45.1236 59.8966 45.6124 59.6944 46.2222 59.6944H72.8889H73.1389V59.4444V48.3333V48.0833H72.8889C72.279 48.0833 71.7902 47.8811 71.4546 47.5454C71.1189 47.2098 70.9167 46.721 70.9167 46.1111V37.2222C70.9167 36.6124 71.1189 36.1236 71.4546 35.7879C71.7902 35.4522 72.279 35.25 72.8889 35.25H121.778C122.388 35.25 122.876 35.4522 123.212 35.7879C123.548 36.1236 123.75 36.6124 123.75 37.2222V46.1111C123.75 46.721 123.548 47.2098 123.212 47.5454C122.876 47.8811 122.388 48.0833 121.778 48.0833H121.528V48.3333V59.4444V59.6944H121.778H148.444C149.054 59.6944 149.543 59.8966 149.879 60.2323C150.214 60.568 150.417 61.0568 150.417 61.6667V70.5556C150.417 71.1654 150.214 71.6542 149.879 71.9899C149.543 72.3256 149.054 72.5278 148.444 72.5278H148.194V72.7778V110.556C148.194 111.165 147.992 111.654 147.657 111.99C147.321 112.326 146.832 112.528 146.222 112.528H121.778H121.528V112.778C121.528 113.388 121.326 113.876 120.99 114.212C120.654 114.548 120.165 114.75 119.556 114.75H75.1111C74.5013 114.75 74.0125 114.548 73.6768 114.212C73.3411 113.876 73.1389 113.388 73.1389 112.778ZM121.778 63.6389H121.528V63.8889V68.3333V68.5833H121.778H146.222H146.472V68.3333V63.8889V63.6389H146.222H121.778ZM121.778 72.5278H121.528V72.7778V108.333V108.583H121.778H144H144.25V108.333V72.7778V72.5278H144H121.778ZM104 110.806H104.25V110.556V95V94.75H104H90.6667H90.4167V95V110.556V110.806H90.6667H104ZM117.333 110.806H117.583V110.556V48.3333V48.0833H117.333H77.3333H77.0833V48.3333V110.556V110.806H77.3333H86.2222H86.4722V110.556V92.7778C86.4722 92.1679 86.6744 91.6791 87.0101 91.3434C87.3458 91.0078 87.8346 90.8056 88.4444 90.8056H106.222C106.832 90.8056 107.321 91.0078 107.657 91.3434C107.992 91.6791 108.194 92.1679 108.194 92.7778V110.556V110.806H108.444H117.333ZM75.1111 39.1944H74.8611V39.4444V43.8889V44.1389H75.1111H119.556H119.806V43.8889V39.4444V39.1944H119.556H75.1111ZM72.8889 108.583H73.1389V108.333V72.7778V72.5278H72.8889H50.6667H50.4167V72.7778V108.333V108.583H50.6667H72.8889ZM48.4444 63.6389H48.1944V63.8889V68.3333V68.5833H48.4444H72.8889H73.1389V68.3333V63.8889V63.6389H72.8889H48.4444Z" fill="#F2F2F2" stroke="#3A647E" stroke-width="0.5"/>
<path d="M53.5337 89.771L61.0368 82.2679L63.826 85.057L56.3228 92.5601L53.5337 89.771Z" fill="#F2F2F2" stroke="#3A647E" stroke-width="0.5"/>
<path d="M59.7325 96.0569L67.2356 88.5527L70.0251 91.3418L62.522 98.846L59.7325 96.0569Z" fill="#F2F2F2" stroke="#3A647E" stroke-width="0.5"/>
<path d="M124.651 89.7695L132.154 82.2653L134.944 85.0544L127.44 92.5586L124.651 89.7695Z" fill="#F2F2F2" stroke="#3A647E" stroke-width="0.5"/>
<path d="M130.839 96.0542L138.342 88.5511L141.131 91.3402L133.628 98.8433L130.839 96.0542Z" fill="#F2F2F2" stroke="#3A647E" stroke-width="0.5"/>
</g>
<path d="M68.1651 153H61.5891V141.576H68.1651V143.56H64.0051V146.072H67.8771V148.056H64.0051V151H68.1651V153ZM75.5242 153L72.7722 144.04H72.7082C72.7189 144.253 72.7349 144.573 72.7562 145C72.7776 145.427 72.7989 145.885 72.8202 146.376C72.8416 146.856 72.8522 147.293 72.8522 147.688V153H70.6922V141.576H73.9882L76.6922 150.312H76.7402L79.6042 141.576H82.9002V153H80.6442V147.592C80.6442 147.229 80.6496 146.813 80.6602 146.344C80.6816 145.875 80.6976 145.432 80.7082 145.016C80.7296 144.589 80.7456 144.269 80.7562 144.056H80.6922L77.7482 153H75.5242ZM89.584 141.576C91.056 141.576 92.128 141.896 92.8 142.536C93.4827 143.165 93.824 144.035 93.824 145.144C93.824 145.805 93.6853 146.429 93.408 147.016C93.1307 147.592 92.6667 148.056 92.016 148.408C91.376 148.76 90.5013 148.936 89.392 148.936H88.352V153H85.936V141.576H89.584ZM89.456 143.56H88.352V146.952H89.152C89.8347 146.952 90.3733 146.819 90.768 146.552C91.1733 146.275 91.376 145.832 91.376 145.224C91.376 144.115 90.736 143.56 89.456 143.56ZM99.4609 141.576C101.018 141.576 102.165 141.859 102.901 142.424C103.648 142.989 104.021 143.848 104.021 145C104.021 145.523 103.92 145.981 103.717 146.376C103.525 146.76 103.264 147.091 102.933 147.368C102.613 147.635 102.266 147.853 101.893 148.024L105.253 153H102.565L99.8449 148.616H98.5489V153H96.1329V141.576H99.4609ZM99.2849 143.56H98.5489V146.648H99.3329C100.133 146.648 100.704 146.515 101.045 146.248C101.397 145.981 101.573 145.587 101.573 145.064C101.573 144.52 101.386 144.136 101.013 143.912C100.65 143.677 100.074 143.56 99.2849 143.56ZM113.421 153H106.845V141.576H113.421V143.56H109.261V146.072H113.133V148.056H109.261V151H113.421V153ZM122.684 149.832C122.684 150.845 122.316 151.656 121.58 152.264C120.855 152.861 119.82 153.16 118.476 153.16C117.271 153.16 116.194 152.931 115.244 152.472V150.216C115.788 150.451 116.348 150.669 116.924 150.872C117.511 151.064 118.092 151.16 118.668 151.16C119.266 151.16 119.687 151.048 119.932 150.824C120.188 150.589 120.316 150.296 120.316 149.944C120.316 149.656 120.215 149.411 120.012 149.208C119.82 149.005 119.559 148.819 119.228 148.648C118.898 148.467 118.519 148.275 118.092 148.072C117.826 147.944 117.538 147.795 117.228 147.624C116.919 147.443 116.62 147.224 116.332 146.968C116.055 146.701 115.826 146.381 115.644 146.008C115.463 145.635 115.372 145.187 115.372 144.664C115.372 143.64 115.719 142.845 116.412 142.28C117.106 141.704 118.05 141.416 119.244 141.416C119.842 141.416 120.407 141.485 120.94 141.624C121.484 141.763 122.05 141.96 122.636 142.216L121.852 144.104C121.33 143.891 120.86 143.725 120.444 143.608C120.028 143.491 119.602 143.432 119.164 143.432C118.706 143.432 118.354 143.539 118.108 143.752C117.863 143.965 117.74 144.243 117.74 144.584C117.74 144.989 117.922 145.309 118.284 145.544C118.647 145.779 119.186 146.067 119.9 146.408C120.487 146.685 120.983 146.973 121.388 147.272C121.804 147.571 122.124 147.923 122.348 148.328C122.572 148.733 122.684 149.235 122.684 149.832ZM131.903 153L131.071 150.28H126.911L126.079 153H123.471L127.503 141.528H130.463L134.511 153H131.903ZM129.663 145.592C129.61 145.411 129.54 145.181 129.455 144.904C129.37 144.627 129.284 144.344 129.199 144.056C129.114 143.768 129.044 143.517 128.991 143.304C128.938 143.517 128.863 143.784 128.767 144.104C128.682 144.413 128.596 144.712 128.511 145C128.436 145.277 128.378 145.475 128.335 145.592L127.519 148.248H130.495L129.663 145.592Z" fill="#F2F2F2"/>
<defs>
<clipPath id="clip0_2099:2292">
<rect width="106.667" height="80" fill="white" transform="translate(44 35)"/>
</clipPath>
</defs>
</svg>
