<svg width="212" height="212" viewBox="0 0 212 212" fill="none" xmlns="http://www.w3.org/2000/svg">
<g filter="url(#filter0_d_2099:2291)">
<rect x="5" y="4" width="194" height="194" rx="27.8776" fill="#2C4C59"/>
<g clip-path="url(#clip0_2099:2291)">
<path d="M91.2223 60.9723H90.9723V61.2223V65.6667V65.9167H91.2223H95.6667H95.9167V65.6667V61.2223V60.9723H95.6667H91.2223ZM97.8889 69.8612H89.0001C88.3902 69.8612 87.9014 69.659 87.5657 69.3233C87.23 68.9876 87.0278 68.4988 87.0278 67.8889V59.0001C87.0278 58.3902 87.23 57.9014 87.5657 57.5657C87.9014 57.23 88.3902 57.0278 89.0001 57.0278H97.8889C98.4988 57.0278 98.9876 57.23 99.3233 57.5657C99.659 57.9014 99.8612 58.3902 99.8612 59.0001V67.8889C99.8612 68.4988 99.659 68.9876 99.3233 69.3233C98.9876 69.659 98.4988 69.8612 97.8889 69.8612Z" fill="#F2F2F2" stroke="#2C4C59" stroke-width="0.5"/>
<path d="M109 60.9723H108.75V61.2223V65.6667V65.9167H109H113.445H113.695V65.6667V61.2223V60.9723H113.445H109ZM115.667 69.8612H106.778C106.168 69.8612 105.679 69.659 105.344 69.3233C105.008 68.9876 104.806 68.4988 104.806 67.8889V59.0001C104.806 58.3902 105.008 57.9014 105.344 57.5657C105.679 57.23 106.168 57.0278 106.778 57.0278H115.667C116.277 57.0278 116.765 57.23 117.101 57.5657C117.437 57.9014 117.639 58.3902 117.639 59.0001V67.8889C117.639 68.4988 117.437 68.9876 117.101 69.3233C116.765 69.659 116.277 69.8612 115.667 69.8612Z" fill="#F2F2F2" stroke="#2C4C59" stroke-width="0.5"/>
<path d="M91.2223 78.7501H90.9723V79.0001V83.4446V83.6946H91.2223H95.6667H95.9167V83.4446V79.0001V78.7501H95.6667H91.2223ZM97.8889 87.639H89.0001C88.3902 87.639 87.9014 87.4368 87.5657 87.1011C87.23 86.7654 87.0278 86.2766 87.0278 85.6668V76.7779C87.0278 76.168 87.23 75.6792 87.5657 75.3436C87.9014 75.0079 88.3902 74.8057 89.0001 74.8057H97.8889C98.4988 74.8057 98.9876 75.0079 99.3233 75.3436C99.659 75.6792 99.8612 76.168 99.8612 76.7779V85.6668C99.8612 86.2766 99.659 86.7654 99.3233 87.1011C98.9876 87.4368 98.4988 87.639 97.8889 87.639Z" fill="#F2F2F2" stroke="#2C4C59" stroke-width="0.5"/>
<path d="M109 78.7501H108.75V79.0001V83.4446V83.6946H109H113.445H113.695V83.4446V79.0001V78.7501H113.445H109ZM115.667 87.639H106.778C106.168 87.639 105.679 87.4368 105.344 87.1011C105.008 86.7654 104.806 86.2766 104.806 85.6668V76.7779C104.806 76.168 105.008 75.6792 105.344 75.3436C105.679 75.0079 106.168 74.8057 106.778 74.8057H115.667C116.277 74.8057 116.765 75.0079 117.101 75.3436C117.437 75.6792 117.639 76.168 117.639 76.7779V85.6668C117.639 86.2766 117.437 86.7654 117.101 87.1011C116.765 87.4368 116.277 87.639 115.667 87.639Z" fill="#F2F2F2" stroke="#2C4C59" stroke-width="0.5"/>
<path d="M78.1389 116.778V116.528H77.8889H53.4444C52.8346 116.528 52.3458 116.326 52.0101 115.99C51.6744 115.654 51.4722 115.165 51.4722 114.556V76.7778V76.5278H51.2222C50.6124 76.5278 50.1236 76.3256 49.7879 75.9899C49.4522 75.6542 49.25 75.1654 49.25 74.5556V65.6667C49.25 65.0568 49.4522 64.568 49.7879 64.2323C50.1236 63.8966 50.6124 63.6944 51.2222 63.6944H77.8889H78.1389V63.4444V52.3333V52.0833H77.8889C77.279 52.0833 76.7902 51.8811 76.4546 51.5454C76.1189 51.2098 75.9167 50.721 75.9167 50.1111V41.2222C75.9167 40.6124 76.1189 40.1236 76.4546 39.7879C76.7902 39.4522 77.279 39.25 77.8889 39.25H126.778C127.388 39.25 127.876 39.4522 128.212 39.7879C128.548 40.1236 128.75 40.6124 128.75 41.2222V50.1111C128.75 50.721 128.548 51.2098 128.212 51.5454C127.876 51.8811 127.388 52.0833 126.778 52.0833H126.528V52.3333V63.4444V63.6944H126.778H153.444C154.054 63.6944 154.543 63.8966 154.879 64.2323C155.214 64.568 155.417 65.0568 155.417 65.6667V74.5556C155.417 75.1654 155.214 75.6542 154.879 75.9899C154.543 76.3256 154.054 76.5278 153.444 76.5278H153.194V76.7778V114.556C153.194 115.165 152.992 115.654 152.657 115.99C152.321 116.326 151.832 116.528 151.222 116.528H126.778H126.528V116.778C126.528 117.388 126.326 117.876 125.99 118.212C125.654 118.548 125.165 118.75 124.556 118.75H80.1111C79.5013 118.75 79.0125 118.548 78.6768 118.212C78.3411 117.876 78.1389 117.388 78.1389 116.778ZM126.778 67.6389H126.528V67.8889V72.3333V72.5833H126.778H151.222H151.472V72.3333V67.8889V67.6389H151.222H126.778ZM126.778 76.5278H126.528V76.7778V112.333V112.583H126.778H149H149.25V112.333V76.7778V76.5278H149H126.778ZM109 114.806H109.25V114.556V99V98.75H109H95.6667H95.4167V99V114.556V114.806H95.6667H109ZM122.333 114.806H122.583V114.556V52.3333V52.0833H122.333H82.3333H82.0833V52.3333V114.556V114.806H82.3333H91.2222H91.4722V114.556V96.7778C91.4722 96.1679 91.6744 95.6791 92.0101 95.3434C92.3458 95.0078 92.8346 94.8056 93.4444 94.8056H111.222C111.832 94.8056 112.321 95.0078 112.657 95.3434C112.992 95.6791 113.194 96.1679 113.194 96.7778V114.556V114.806H113.444H122.333ZM80.1111 43.1944H79.8611V43.4444V47.8889V48.1389H80.1111H124.556H124.806V47.8889V43.4444V43.1944H124.556H80.1111ZM77.8889 112.583H78.1389V112.333V76.7778V76.5278H77.8889H55.6667H55.4167V76.7778V112.333V112.583H55.6667H77.8889ZM53.4444 67.6389H53.1944V67.8889V72.3333V72.5833H53.4444H77.8889H78.1389V72.3333V67.8889V67.6389H77.8889H53.4444Z" fill="#F2F2F2" stroke="#2C4C59" stroke-width="0.5"/>
<path d="M58.5337 93.771L66.0368 86.2679L68.826 89.057L61.3228 96.5601L58.5337 93.771Z" fill="#F2F2F2" stroke="#2C4C59" stroke-width="0.5"/>
<path d="M64.7325 100.057L72.2356 92.5527L75.0251 95.3418L67.522 102.846L64.7325 100.057Z" fill="#F2F2F2" stroke="#2C4C59" stroke-width="0.5"/>
<path d="M129.651 93.7695L137.154 86.2653L139.944 89.0544L132.44 96.5586L129.651 93.7695Z" fill="#F2F2F2" stroke="#2C4C59" stroke-width="0.5"/>
<path d="M135.839 100.054L143.342 92.5511L146.131 95.3402L138.628 102.843L135.839 100.054Z" fill="#F2F2F2" stroke="#2C4C59" stroke-width="0.5"/>
</g>
<path d="M73.1651 157H66.5891V145.576H73.1651V147.56H69.0051V150.072H72.8771V152.056H69.0051V155H73.1651V157ZM80.5242 157L77.7722 148.04H77.7082C77.7189 148.253 77.7349 148.573 77.7562 149C77.7776 149.427 77.7989 149.885 77.8202 150.376C77.8416 150.856 77.8522 151.293 77.8522 151.688V157H75.6922V145.576H78.9882L81.6922 154.312H81.7402L84.6042 145.576H87.9002V157H85.6442V151.592C85.6442 151.229 85.6496 150.813 85.6602 150.344C85.6816 149.875 85.6976 149.432 85.7082 149.016C85.7296 148.589 85.7456 148.269 85.7562 148.056H85.6922L82.7482 157H80.5242ZM94.584 145.576C96.056 145.576 97.128 145.896 97.8 146.536C98.4827 147.165 98.824 148.035 98.824 149.144C98.824 149.805 98.6853 150.429 98.408 151.016C98.1307 151.592 97.6667 152.056 97.016 152.408C96.376 152.76 95.5013 152.936 94.392 152.936H93.352V157H90.936V145.576H94.584ZM94.456 147.56H93.352V150.952H94.152C94.8347 150.952 95.3733 150.819 95.768 150.552C96.1733 150.275 96.376 149.832 96.376 149.224C96.376 148.115 95.736 147.56 94.456 147.56ZM104.461 145.576C106.018 145.576 107.165 145.859 107.901 146.424C108.648 146.989 109.021 147.848 109.021 149C109.021 149.523 108.92 149.981 108.717 150.376C108.525 150.76 108.264 151.091 107.933 151.368C107.613 151.635 107.266 151.853 106.893 152.024L110.253 157H107.565L104.845 152.616H103.549V157H101.133V145.576H104.461ZM104.285 147.56H103.549V150.648H104.333C105.133 150.648 105.704 150.515 106.045 150.248C106.397 149.981 106.573 149.587 106.573 149.064C106.573 148.52 106.386 148.136 106.013 147.912C105.65 147.677 105.074 147.56 104.285 147.56ZM118.421 157H111.845V145.576H118.421V147.56H114.261V150.072H118.133V152.056H114.261V155H118.421V157ZM127.684 153.832C127.684 154.845 127.316 155.656 126.58 156.264C125.855 156.861 124.82 157.16 123.476 157.16C122.271 157.16 121.194 156.931 120.244 156.472V154.216C120.788 154.451 121.348 154.669 121.924 154.872C122.511 155.064 123.092 155.16 123.668 155.16C124.266 155.16 124.687 155.048 124.932 154.824C125.188 154.589 125.316 154.296 125.316 153.944C125.316 153.656 125.215 153.411 125.012 153.208C124.82 153.005 124.559 152.819 124.228 152.648C123.898 152.467 123.519 152.275 123.092 152.072C122.826 151.944 122.538 151.795 122.228 151.624C121.919 151.443 121.62 151.224 121.332 150.968C121.055 150.701 120.826 150.381 120.644 150.008C120.463 149.635 120.372 149.187 120.372 148.664C120.372 147.64 120.719 146.845 121.412 146.28C122.106 145.704 123.05 145.416 124.244 145.416C124.842 145.416 125.407 145.485 125.94 145.624C126.484 145.763 127.05 145.96 127.636 146.216L126.852 148.104C126.33 147.891 125.86 147.725 125.444 147.608C125.028 147.491 124.602 147.432 124.164 147.432C123.706 147.432 123.354 147.539 123.108 147.752C122.863 147.965 122.74 148.243 122.74 148.584C122.74 148.989 122.922 149.309 123.284 149.544C123.647 149.779 124.186 150.067 124.9 150.408C125.487 150.685 125.983 150.973 126.388 151.272C126.804 151.571 127.124 151.923 127.348 152.328C127.572 152.733 127.684 153.235 127.684 153.832ZM136.903 157L136.071 154.28H131.911L131.079 157H128.471L132.503 145.528H135.463L139.511 157H136.903ZM134.663 149.592C134.61 149.411 134.54 149.181 134.455 148.904C134.37 148.627 134.284 148.344 134.199 148.056C134.114 147.768 134.044 147.517 133.991 147.304C133.938 147.517 133.863 147.784 133.767 148.104C133.682 148.413 133.596 148.712 133.511 149C133.436 149.277 133.378 149.475 133.335 149.592L132.519 152.248H135.495L134.663 149.592Z" fill="#F2F2F2"/>
</g>
<defs>
<filter id="filter0_d_2099:2291" x="0" y="0" width="212" height="212" filterUnits="userSpaceOnUse" color-interpolation-filters="sRGB">
<feFlood flood-opacity="0" result="BackgroundImageFix"/>
<feColorMatrix in="SourceAlpha" type="matrix" values="0 0 0 0 0 0 0 0 0 0 0 0 0 0 0 0 0 0 127 0" result="hardAlpha"/>
<feMorphology radius="3" operator="erode" in="SourceAlpha" result="effect1_dropShadow_2099:2291"/>
<feOffset dx="4" dy="5"/>
<feGaussianBlur stdDeviation="6"/>
<feComposite in2="hardAlpha" operator="out"/>
<feColorMatrix type="matrix" values="0 0 0 0 0 0 0 0 0 0 0 0 0 0 0 0 0 0 0.15 0"/>
<feBlend mode="normal" in2="BackgroundImageFix" result="effect1_dropShadow_2099:2291"/>
<feBlend mode="normal" in="SourceGraphic" in2="effect1_dropShadow_2099:2291" result="shape"/>
</filter>
<clipPath id="clip0_2099:2291">
<rect width="106.667" height="80" fill="white" transform="translate(49 39)"/>
</clipPath>
</defs>
</svg>
