<svg width="194" height="194" viewBox="0 0 194 194" fill="none" xmlns="http://www.w3.org/2000/svg">
<path d="M0 27.8776C0 12.4812 12.4812 0 27.8776 0H166.122C181.519 0 194 12.4812 194 27.8776V166.122C194 181.519 181.519 194 166.122 194H27.8776C12.4812 194 0 181.519 0 166.122V27.8776Z" fill="#3A647E"/>
<g clip-path="url(#clip0_2099:2289)">
<path d="M146.557 40.9597V77.9242V89.1379V93.2595C146.557 95.9701 144.348 98.1794 141.638 98.1794H61.9902C59.2796 98.1794 57.0703 95.9701 57.0703 93.2595V40.9597V38.1748V42.7048C57.0703 39.9942 59.2796 37.7849 61.9902 37.7849H73.0183H78.4581H141.638C144.348 37.7849 146.557 39.9942 146.557 42.7048V38.1748" fill="#3A647E"/>
<path d="M141.638 35H78.4583H73.0185H61.9904C57.7389 35 54.2856 38.4532 54.2856 42.7048V93.2595C54.2856 97.511 57.7389 100.964 61.9904 100.964H141.638C145.889 100.964 149.343 97.511 149.343 93.2595V89.1379V77.9241C149.343 59.3212 149.343 43.5774 149.343 42.7048C149.343 38.4532 145.889 35 141.638 35ZM146.558 40.9596V77.9241V89.1379V93.2595C146.558 95.9701 144.348 98.1794 141.638 98.1794H61.9904C59.2798 98.1794 57.0705 95.9701 57.0705 93.2595V40.9596V38.1748V42.7048C57.0705 39.9942 59.2798 37.7849 61.9904 37.7849H73.0185H78.4583H141.638C144.348 37.7849 146.558 39.9942 146.558 42.7048V38.1748" fill="#F2F2F2"/>
<path d="M117.41 94.2806H139.596C141.285 94.2806 142.659 92.9067 142.659 91.2172V81.4888C142.659 79.7993 141.285 78.4254 139.596 78.4254H117.41C115.72 78.4254 114.346 79.7993 114.346 81.4888V91.2172C114.346 92.9067 115.72 94.2806 117.41 94.2806ZM117.131 81.4888C117.131 81.3402 117.261 81.2103 117.41 81.2103H139.596C139.744 81.2103 139.874 81.3402 139.874 81.4888V91.2172C139.874 91.3658 139.744 91.4957 139.596 91.4957H117.41C117.261 91.4957 117.131 91.3658 117.131 91.2172V81.4888Z" fill="#F2F2F2"/>
<path d="M66.0748 94.2805H102.872C105.694 94.2805 107.978 91.9969 107.978 89.1749V49.964C107.978 47.142 105.694 44.8584 102.872 44.8584H66.0748C63.2528 44.8584 60.9692 47.142 60.9692 49.964V89.1749C60.9692 91.9969 63.2528 94.2805 66.0748 94.2805ZM63.7541 49.964C63.7541 48.683 64.7938 47.6433 66.0748 47.6433H102.872C104.153 47.6433 105.193 48.683 105.193 49.964V89.1749C105.193 90.456 104.153 91.4957 102.872 91.4957H66.0748C64.7938 91.4957 63.7541 90.456 63.7541 89.1749V49.964Z" fill="#F2F2F2"/>
<path d="M115.739 52.8974H141.267C142.028 52.8974 142.659 52.2662 142.659 51.505C142.659 50.7438 142.028 50.1125 141.267 50.1125H115.739C114.977 50.1125 114.346 50.7438 114.346 51.505C114.346 52.2847 114.977 52.8974 115.739 52.8974Z" fill="#F2F2F2"/>
<path d="M115.739 59.2098H141.267C142.028 59.2098 142.659 58.5786 142.659 57.8174C142.659 57.0562 142.028 56.4249 141.267 56.4249H115.739C114.977 56.4249 114.346 57.0562 114.346 57.8174C114.346 58.5971 114.977 59.2098 115.739 59.2098Z" fill="#F2F2F2"/>
<path d="M115.739 65.5407H141.267C142.028 65.5407 142.659 64.9095 142.659 64.1483C142.659 63.3871 142.028 62.7559 141.267 62.7559H115.739C114.977 62.7559 114.346 63.3871 114.346 64.1483C114.346 64.9095 114.977 65.5407 115.739 65.5407Z" fill="#F2F2F2"/>
<path d="M115.739 71.8531H141.267C142.028 71.8531 142.659 71.2219 142.659 70.4607C142.659 69.6995 142.028 69.0682 141.267 69.0682H115.739C114.977 69.0682 114.346 69.6995 114.346 70.4607C114.346 71.2219 114.977 71.8531 115.739 71.8531Z" fill="#F2F2F2"/>
<path d="M101.276 74.3595C100.496 73.1527 99.2333 72.4101 97.6181 72.2244C94.7218 71.8717 92.7167 71.6303 91.2686 71.2776C89.9504 70.9619 89.2449 70.6092 88.8551 70.0522C88.2424 69.2168 88.2238 67.8429 88.261 65.6707L89.5791 55.2182C89.6348 54.7911 89.5049 54.3827 89.2264 54.0671C88.9479 53.7515 88.5394 53.5658 88.131 53.5658H76.7316C76.3231 53.5658 75.9333 53.7329 75.6548 54.0299C75.3763 54.327 75.2278 54.7354 75.2649 55.1439L75.4691 57.706H69.8066C69.3981 57.706 69.0082 57.8731 68.7297 58.1701C68.4512 58.4672 68.3027 58.8756 68.3399 59.2841L69.6766 76.6616C69.6952 77.4414 68.7669 78.5182 68.4141 78.8524L68.3213 78.9267V85.1091C68.3213 85.926 68.9897 86.5758 69.788 86.5758H75.6919C76.4717 86.5758 77.1215 85.9631 77.1586 85.2019H77.5485L85.7917 86.6129H90.6002C92.6053 86.6129 94.2577 85.2947 94.9075 83.1968C94.9818 82.974 95.0375 82.7327 95.0746 82.4913H97.5067C99.5118 82.4913 101.164 81.1546 101.814 79.0381C102.334 77.4228 102.13 75.6591 101.276 74.3595ZM70.2707 80.8389V80.0777C70.2707 79.9664 70.3078 79.8735 70.3821 79.7993C71.2176 79.0009 71.626 77.9798 71.6817 76.6988V76.6802L70.4192 60.0824C70.4192 59.971 70.4564 59.8782 70.5306 59.7853C70.6049 59.7111 70.6977 59.6554 70.8091 59.6554H80.1848C80.2962 59.6554 80.4076 59.7111 80.4819 59.7853C80.5561 59.8782 80.5933 59.971 80.5747 60.0824L79.3865 69.6438V69.718C79.3308 72.3729 79.4793 74.1553 80.3705 75.362C80.946 76.1418 81.7815 76.6802 83.0254 77.0887C84.6406 77.6085 87.0356 77.9241 90.5074 78.3326C92.3826 78.5553 93.1252 79.9663 93.1995 81.2103H70.6606C70.4378 81.2103 70.2707 81.0432 70.2707 80.8389ZM81.9486 74.1924C81.3359 73.3569 81.3173 71.9831 81.3545 69.8109L82.6726 59.3583C82.7283 58.9313 82.5984 58.5229 82.3199 58.2072C82.0414 57.8916 81.633 57.706 81.2245 57.706H77.827C77.6228 57.706 77.4557 57.5389 77.4371 57.3532L77.3257 55.9237C77.3257 55.8123 77.3628 55.7194 77.4371 55.6266C77.5114 55.5523 77.6042 55.4966 77.7156 55.4966H87.0727C87.1841 55.4966 87.2955 55.5523 87.3698 55.6266C87.4441 55.7009 87.4812 55.8123 87.4626 55.9237L86.2744 65.485V65.5593C86.2187 68.2142 86.3672 69.9965 87.2584 71.2033C87.8339 71.9831 88.6694 72.5215 89.9133 72.9299C91.5285 73.4498 93.9235 73.7654 97.3953 74.1738C99.2705 74.3966 100.013 75.8076 100.087 77.0515H92.8838C92.2526 76.6802 91.5285 76.4388 90.7116 76.346C87.8154 75.9933 85.8103 75.7519 84.3621 75.3992C83.044 75.0835 82.3385 74.7308 81.9486 74.1924ZM70.2707 83.5495C70.2707 83.3268 70.4378 83.1597 70.6606 83.1597H92.7724C92.2897 84.1065 91.51 84.6635 90.6002 84.6821L85.9774 84.6449L77.6413 83.2896H75.2463V84.3107C75.2463 84.4221 75.2092 84.515 75.1349 84.5892C75.0607 84.6635 74.9678 84.7006 74.8564 84.7006L70.6606 84.6635C70.4564 84.6635 70.2707 84.4778 70.2707 84.2736V83.5495ZM99.6789 79.0195C99.2148 79.9478 98.4164 80.5048 97.5067 80.5048H95.1117C95.0375 79.9664 94.8704 79.4651 94.6662 79.0195H99.6789Z" fill="#F2F2F2"/>
<path d="M73.0181 61.0311L71.0332 61.3146L72.4954 71.5513L74.4803 71.2678L73.0181 61.0311Z" fill="#F2F2F2"/>
<path d="M136.272 54.9954V91.9599V103.174V107.295C136.272 110.006 134.062 112.215 131.352 112.215H51.7046C48.994 112.215 46.7847 110.006 46.7847 107.295V54.9954V52.2106V56.7406C46.7847 54.03 48.994 51.8207 51.7046 51.8207H62.7327H68.1725H131.352C134.062 51.8207 136.272 54.03 136.272 56.7406V52.2106" fill="#3A647E"/>
<path d="M131.352 49.0358H68.1727H62.7329H51.7048C47.4532 49.0358 44 52.489 44 56.7406V107.295C44 111.547 47.4532 115 51.7048 115H131.352C135.604 115 139.057 111.547 139.057 107.295V103.174V91.9599C139.057 73.357 139.057 57.6132 139.057 56.7406C139.057 52.489 135.604 49.0358 131.352 49.0358ZM136.272 91.9599V103.174V107.295C136.272 110.006 134.063 112.215 131.352 112.215H51.7048C48.9942 112.215 46.7849 110.006 46.7849 107.295V56.7406C46.7849 54.03 48.9942 51.8206 51.7048 51.8206H62.7329H68.1727H131.352C134.063 51.8206 136.272 54.03 136.272 56.7406V91.9599Z" fill="#F2F2F2"/>
<path d="M129.31 92.4612H107.124C105.434 92.4612 104.061 93.8351 104.061 95.5245V105.253C104.061 106.942 105.434 108.316 107.124 108.316H129.31C131 108.316 132.373 106.942 132.373 105.253V95.5245C132.373 93.8351 131 92.4612 129.31 92.4612ZM129.589 105.253C129.589 105.402 129.459 105.531 129.31 105.531H107.124C106.975 105.531 106.845 105.402 106.845 105.253V95.5245C106.845 95.376 106.975 95.2461 107.124 95.2461H129.31C129.459 95.2461 129.589 95.376 129.589 95.5245V105.253Z" fill="#F2F2F2"/>
<path d="M92.5866 58.8942H55.7892C52.9672 58.8942 50.6836 61.1778 50.6836 63.9998V103.211C50.6836 106.033 52.9672 108.316 55.7892 108.316H92.5866C95.4086 108.316 97.6922 106.033 97.6922 103.211V63.9998C97.6922 61.1778 95.4086 58.8942 92.5866 58.8942ZM94.9073 103.211C94.9073 104.492 93.8676 105.531 92.5866 105.531H55.7892C54.5081 105.531 53.4685 104.492 53.4685 103.211V63.9998C53.4685 62.7187 54.5081 61.679 55.7892 61.679H92.5866C93.8676 61.679 94.9073 62.7187 94.9073 63.9998V103.211Z" fill="#F2F2F2"/>
<path d="M130.981 64.1483H105.453C104.692 64.1483 104.061 64.7796 104.061 65.5408C104.061 66.3205 104.692 66.9332 105.453 66.9332H130.981C131.742 66.9332 132.373 66.3019 132.373 65.5408C132.373 64.7796 131.742 64.1483 130.981 64.1483Z" fill="#F2F2F2"/>
<path d="M130.981 70.4607H105.453C104.692 70.4607 104.061 71.0919 104.061 71.8531C104.061 72.6329 104.692 73.2456 105.453 73.2456H130.981C131.742 73.2456 132.373 72.6143 132.373 71.8531C132.373 71.0919 131.742 70.4607 130.981 70.4607Z" fill="#F2F2F2"/>
<path d="M130.981 76.7916H105.453C104.692 76.7916 104.061 77.4229 104.061 78.1841C104.061 78.9453 104.692 79.5765 105.453 79.5765H130.981C131.742 79.5765 132.373 78.9453 132.373 78.1841C132.373 77.4229 131.742 76.7916 130.981 76.7916Z" fill="#F2F2F2"/>
<path d="M130.981 83.104H105.453C104.692 83.104 104.061 83.7352 104.061 84.4964C104.061 85.2576 104.692 85.8889 105.453 85.8889H130.981C131.742 85.8889 132.373 85.2576 132.373 84.4964C132.373 83.7352 131.742 83.104 130.981 83.104Z" fill="#F2F2F2"/>
<path d="M87.3325 86.2602C84.4362 85.9074 82.4311 85.6661 80.983 85.3133C79.6648 84.9977 78.9593 84.645 78.5694 84.088C77.9567 83.2525 77.9382 81.8787 77.9753 79.7065L79.2935 69.2539C79.3492 68.8269 79.2192 68.4185 78.9407 68.1028C78.6622 67.7872 78.2538 67.6016 77.8453 67.6016H66.4459C66.0375 67.6016 65.6476 67.7687 65.3691 68.0657C65.0906 68.3628 64.9421 68.7712 64.9792 69.1797L65.1649 71.7603H59.5209C59.1125 71.7603 58.7226 71.9274 58.4441 72.2244C58.1656 72.5215 58.0171 72.9299 58.0542 73.3384L59.3909 90.716C59.4095 91.4957 58.4812 92.5725 58.1285 92.9067L58.0356 92.981V99.1634C58.0356 99.9803 58.704 100.63 59.5023 100.63H65.4063C66.186 100.63 66.8358 100.017 66.873 99.2562H67.2628L75.506 100.667L80.296 100.63C82.3011 100.63 83.9535 99.3119 84.6033 97.214C84.6775 96.9912 84.7332 96.7498 84.7704 96.5085H87.2025C89.2076 96.5085 90.8599 95.1718 91.5098 93.0553C92.011 91.4215 91.8068 89.6763 90.9713 88.3581C90.2101 87.1885 88.9477 86.4458 87.3325 86.2602ZM59.9851 94.8747V94.1135C59.9851 94.0021 60.0222 93.9093 60.0964 93.835C60.9319 93.0367 61.3404 92.0156 61.3961 90.7345V90.716L60.1336 74.1182C60.1336 74.0068 60.1707 73.8954 60.245 73.8211C60.3192 73.7468 60.4121 73.6911 60.5235 73.6911H69.8992C70.0106 73.6911 70.122 73.7468 70.1962 73.8211C70.2705 73.9139 70.3076 74.0068 70.2891 74.1182L69.1009 83.6795V83.7538C69.0452 86.4087 69.1937 88.191 70.0848 89.3978C70.6604 90.1776 71.4958 90.716 72.7397 91.1244C74.355 91.6443 76.75 91.9599 80.2218 92.3683C82.0969 92.5911 82.8395 94.0021 82.9138 95.246H60.3749C60.1521 95.2646 59.9851 95.0975 59.9851 94.8747ZM71.6629 88.2282C71.0503 87.3927 71.0317 86.0188 71.0688 83.8466L72.387 73.3941C72.4427 72.9671 72.3127 72.5586 72.0342 72.243C71.7558 71.9274 71.3473 71.7417 70.9389 71.7417H67.5413C67.3371 71.7417 67.17 71.5746 67.1514 71.389L67.04 69.9594C67.04 69.848 67.0772 69.7552 67.1514 69.6624C67.2257 69.5881 67.3185 69.5324 67.4299 69.5324H76.8057C76.917 69.5324 77.0284 69.5881 77.1027 69.6624C77.177 69.7552 77.2141 69.848 77.1955 69.9594L76.0073 79.5208V79.5951C75.9516 82.25 76.1002 84.0323 76.9913 85.2391C77.5668 86.0188 78.4023 86.5572 79.6462 86.9657C81.2614 87.4855 83.6564 87.8011 87.1282 88.2096C89.0034 88.4324 89.746 89.8434 89.8203 91.0873H82.6167C81.9855 90.716 81.2614 90.4746 80.4445 90.3818C77.5483 90.029 75.5432 89.7877 74.095 89.4349C72.7583 89.1379 72.0528 88.7851 71.6629 88.2282ZM59.9851 97.5853C59.9851 97.3625 60.1521 97.1954 60.3749 97.1954H82.4868C82.0041 98.1423 81.2243 98.6993 80.3146 98.7178L75.6917 98.6807L67.3557 97.3254H64.9607V98.3465C64.9607 98.4579 64.9236 98.5507 64.8493 98.625C64.775 98.6993 64.6822 98.7364 64.5708 98.7364L60.3749 98.6993C60.1707 98.6993 59.9851 98.5136 59.9851 98.3094V97.5853ZM89.3933 93.0553C88.9291 93.9836 88.1308 94.5405 87.2211 94.5405H84.8261C84.7518 94.0021 84.5847 93.5008 84.3805 93.0553H89.3933Z" fill="#F2F2F2"/>
<path d="M62.736 75.0881L60.751 75.3716L62.2132 85.6093L64.1983 85.3258L62.736 75.0881Z" fill="#F2F2F2"/>
</g>
<path d="M82.0153 153L79.2633 144.04H79.1993C79.2099 144.253 79.2259 144.573 79.2473 145C79.2686 145.427 79.2899 145.885 79.3113 146.376C79.3326 146.856 79.3433 147.293 79.3433 147.688V153H77.1833V141.576H80.4793L83.1833 150.312H83.2313L86.0953 141.576H89.3913V153H87.1353V147.592C87.1353 147.229 87.1406 146.813 87.1513 146.344C87.1726 145.875 87.1886 145.432 87.1993 145.016C87.2206 144.589 87.2366 144.269 87.2473 144.056H87.1833L84.2393 153H82.0153ZM99.419 153L98.587 150.28H94.427L93.595 153H90.987L95.019 141.528H97.979L102.027 153H99.419ZM97.179 145.592C97.1257 145.411 97.0563 145.181 96.971 144.904C96.8857 144.627 96.8003 144.344 96.715 144.056C96.6297 143.768 96.5603 143.517 96.507 143.304C96.4537 143.517 96.379 143.784 96.283 144.104C96.1977 144.413 96.1123 144.712 96.027 145C95.9523 145.277 95.8937 145.475 95.851 145.592L95.035 148.248H98.011L97.179 145.592ZM107.896 153H102.696V151.624L104.088 150.984V143.592L102.696 142.952V141.576H107.896V142.952L106.504 143.592V150.984L107.896 151.624V153ZM109.993 153V141.576H112.409V151H117.049V153H109.993Z" fill="#F2F2F2"/>
<defs>
<clipPath id="clip0_2099:2289">
<rect width="105.342" height="80" fill="white" transform="translate(44 35)"/>
</clipPath>
</defs>
</svg>
