<svg width="212" height="212" viewBox="0 0 212 212" fill="none" xmlns="http://www.w3.org/2000/svg">
<g filter="url(#filter0_d_2099:2288)">
<path d="M5 31.8776C5 16.4812 17.4812 4 32.8776 4H171.122C186.519 4 199 16.4812 199 31.8776V170.122C199 185.519 186.519 198 171.122 198H32.8776C17.4812 198 5 185.519 5 170.122V31.8776Z" fill="#2C4C59"/>
<g clip-path="url(#clip0_2099:2288)">
<path d="M151.557 44.9597V81.9242V93.1379V97.2595C151.557 99.9701 149.348 102.179 146.638 102.179H66.9902C64.2796 102.179 62.0703 99.9701 62.0703 97.2595V44.9597V42.1748V46.7048C62.0703 43.9942 64.2796 41.7849 66.9902 41.7849H78.0183H83.4581H146.638C149.348 41.7849 151.557 43.9942 151.557 46.7048V42.1748" fill="#2C4C59"/>
<path d="M146.638 39H83.4583H78.0185H66.9904C62.7389 39 59.2856 42.4532 59.2856 46.7048V97.2595C59.2856 101.511 62.7389 104.964 66.9904 104.964H146.638C150.889 104.964 154.343 101.511 154.343 97.2595V93.1379V81.9241C154.343 63.3212 154.343 47.5774 154.343 46.7048C154.343 42.4532 150.889 39 146.638 39ZM151.558 44.9596V81.9241V93.1379V97.2595C151.558 99.9701 149.348 102.179 146.638 102.179H66.9904C64.2798 102.179 62.0705 99.9701 62.0705 97.2595V44.9596V42.1748V46.7048C62.0705 43.9942 64.2798 41.7849 66.9904 41.7849H78.0185H83.4583H146.638C149.348 41.7849 151.558 43.9942 151.558 46.7048V42.1748" fill="#F2F2F2"/>
<path d="M122.41 98.2806H144.596C146.285 98.2806 147.659 96.9067 147.659 95.2172V85.4888C147.659 83.7993 146.285 82.4254 144.596 82.4254H122.41C120.72 82.4254 119.346 83.7993 119.346 85.4888V95.2172C119.346 96.9067 120.72 98.2806 122.41 98.2806ZM122.131 85.4888C122.131 85.3402 122.261 85.2103 122.41 85.2103H144.596C144.744 85.2103 144.874 85.3402 144.874 85.4888V95.2172C144.874 95.3658 144.744 95.4957 144.596 95.4957H122.41C122.261 95.4957 122.131 95.3658 122.131 95.2172V85.4888Z" fill="#F2F2F2"/>
<path d="M71.0748 98.2805H107.872C110.694 98.2805 112.978 95.9969 112.978 93.1749V53.964C112.978 51.142 110.694 48.8584 107.872 48.8584H71.0748C68.2528 48.8584 65.9692 51.142 65.9692 53.964V93.1749C65.9692 95.9969 68.2528 98.2805 71.0748 98.2805ZM68.7541 53.964C68.7541 52.683 69.7938 51.6433 71.0748 51.6433H107.872C109.153 51.6433 110.193 52.683 110.193 53.964V93.1749C110.193 94.456 109.153 95.4957 107.872 95.4957H71.0748C69.7938 95.4957 68.7541 94.456 68.7541 93.1749V53.964Z" fill="#F2F2F2"/>
<path d="M120.739 56.8974H146.267C147.028 56.8974 147.659 56.2662 147.659 55.505C147.659 54.7438 147.028 54.1125 146.267 54.1125H120.739C119.977 54.1125 119.346 54.7438 119.346 55.505C119.346 56.2847 119.977 56.8974 120.739 56.8974Z" fill="#F2F2F2"/>
<path d="M120.739 63.2098H146.267C147.028 63.2098 147.659 62.5786 147.659 61.8174C147.659 61.0562 147.028 60.4249 146.267 60.4249H120.739C119.977 60.4249 119.346 61.0562 119.346 61.8174C119.346 62.5971 119.977 63.2098 120.739 63.2098Z" fill="#F2F2F2"/>
<path d="M120.739 69.5407H146.267C147.028 69.5407 147.659 68.9095 147.659 68.1483C147.659 67.3871 147.028 66.7559 146.267 66.7559H120.739C119.977 66.7559 119.346 67.3871 119.346 68.1483C119.346 68.9095 119.977 69.5407 120.739 69.5407Z" fill="#F2F2F2"/>
<path d="M120.739 75.8531H146.267C147.028 75.8531 147.659 75.2219 147.659 74.4607C147.659 73.6995 147.028 73.0682 146.267 73.0682H120.739C119.977 73.0682 119.346 73.6995 119.346 74.4607C119.346 75.2219 119.977 75.8531 120.739 75.8531Z" fill="#F2F2F2"/>
<path d="M106.276 78.3595C105.496 77.1527 104.233 76.4101 102.618 76.2244C99.7218 75.8717 97.7167 75.6303 96.2686 75.2776C94.9504 74.9619 94.2449 74.6092 93.8551 74.0522C93.2424 73.2168 93.2238 71.8429 93.261 69.6707L94.5791 59.2182C94.6348 58.7911 94.5049 58.3827 94.2264 58.0671C93.9479 57.7515 93.5394 57.5658 93.131 57.5658H81.7316C81.3231 57.5658 80.9333 57.7329 80.6548 58.0299C80.3763 58.327 80.2278 58.7354 80.2649 59.1439L80.4691 61.706H74.8066C74.3981 61.706 74.0082 61.8731 73.7297 62.1701C73.4512 62.4672 73.3027 62.8756 73.3399 63.2841L74.6766 80.6616C74.6952 81.4414 73.7669 82.5182 73.4141 82.8524L73.3213 82.9267V89.1091C73.3213 89.926 73.9897 90.5758 74.788 90.5758H80.6919C81.4717 90.5758 82.1215 89.9631 82.1586 89.2019H82.5485L90.7917 90.6129H95.6002C97.6053 90.6129 99.2577 89.2947 99.9075 87.1968C99.9818 86.974 100.037 86.7327 100.075 86.4913H102.507C104.512 86.4913 106.164 85.1546 106.814 83.0381C107.334 81.4228 107.13 79.6591 106.276 78.3595ZM75.2707 84.8389V84.0777C75.2707 83.9664 75.3078 83.8735 75.3821 83.7993C76.2176 83.0009 76.626 81.9798 76.6817 80.6988V80.6802L75.4192 64.0824C75.4192 63.971 75.4564 63.8782 75.5306 63.7853C75.6049 63.7111 75.6977 63.6554 75.8091 63.6554H85.1848C85.2962 63.6554 85.4076 63.7111 85.4819 63.7853C85.5561 63.8782 85.5933 63.971 85.5747 64.0824L84.3865 73.6438V73.718C84.3308 76.3729 84.4793 78.1553 85.3705 79.362C85.946 80.1418 86.7815 80.6802 88.0254 81.0887C89.6406 81.6085 92.0356 81.9241 95.5074 82.3326C97.3826 82.5553 98.1252 83.9663 98.1995 85.2103H75.6606C75.4378 85.2103 75.2707 85.0432 75.2707 84.8389ZM86.9486 78.1924C86.3359 77.3569 86.3173 75.9831 86.3545 73.8109L87.6726 63.3583C87.7283 62.9313 87.5984 62.5229 87.3199 62.2072C87.0414 61.8916 86.633 61.706 86.2245 61.706H82.827C82.6228 61.706 82.4557 61.5389 82.4371 61.3532L82.3257 59.9237C82.3257 59.8123 82.3628 59.7194 82.4371 59.6266C82.5114 59.5523 82.6042 59.4966 82.7156 59.4966H92.0727C92.1841 59.4966 92.2955 59.5523 92.3698 59.6266C92.4441 59.7009 92.4812 59.8123 92.4626 59.9237L91.2744 69.485V69.5593C91.2187 72.2142 91.3672 73.9965 92.2584 75.2033C92.8339 75.9831 93.6694 76.5215 94.9133 76.9299C96.5285 77.4498 98.9235 77.7654 102.395 78.1738C104.27 78.3966 105.013 79.8076 105.087 81.0515H97.8838C97.2526 80.6802 96.5285 80.4388 95.7116 80.346C92.8154 79.9933 90.8103 79.7519 89.3621 79.3992C88.044 79.0835 87.3385 78.7308 86.9486 78.1924ZM75.2707 87.5495C75.2707 87.3268 75.4378 87.1597 75.6606 87.1597H97.7724C97.2897 88.1065 96.51 88.6635 95.6002 88.6821L90.9774 88.6449L82.6413 87.2896H80.2463V88.3107C80.2463 88.4221 80.2092 88.515 80.1349 88.5892C80.0607 88.6635 79.9678 88.7006 79.8564 88.7006L75.6606 88.6635C75.4564 88.6635 75.2707 88.4778 75.2707 88.2736V87.5495ZM104.679 83.0195C104.215 83.9478 103.416 84.5048 102.507 84.5048H100.112C100.037 83.9664 99.8704 83.4651 99.6662 83.0195H104.679Z" fill="#F2F2F2"/>
<path d="M78.0181 65.0311L76.0332 65.3146L77.4954 75.5513L79.4803 75.2678L78.0181 65.0311Z" fill="#F2F2F2"/>
<path d="M141.272 58.9954V95.9599V107.174V111.295C141.272 114.006 139.062 116.215 136.352 116.215H56.7046C53.994 116.215 51.7847 114.006 51.7847 111.295V58.9954V56.2106V60.7406C51.7847 58.03 53.994 55.8207 56.7046 55.8207H67.7327H73.1725H136.352C139.062 55.8207 141.272 58.03 141.272 60.7406V56.2106" fill="#2C4C59"/>
<path d="M136.352 53.0358H73.1727H67.7329H56.7048C52.4532 53.0358 49 56.489 49 60.7406V111.295C49 115.547 52.4532 119 56.7048 119H136.352C140.604 119 144.057 115.547 144.057 111.295V107.174V95.9599C144.057 77.357 144.057 61.6132 144.057 60.7406C144.057 56.489 140.604 53.0358 136.352 53.0358ZM141.272 95.9599V107.174V111.295C141.272 114.006 139.063 116.215 136.352 116.215H56.7048C53.9942 116.215 51.7849 114.006 51.7849 111.295V60.7406C51.7849 58.03 53.9942 55.8206 56.7048 55.8206H67.7329H73.1727H136.352C139.063 55.8206 141.272 58.03 141.272 60.7406V95.9599Z" fill="#F2F2F2"/>
<path d="M134.31 96.4612H112.124C110.434 96.4612 109.061 97.8351 109.061 99.5245V109.253C109.061 110.942 110.434 112.316 112.124 112.316H134.31C136 112.316 137.373 110.942 137.373 109.253V99.5245C137.373 97.8351 136 96.4612 134.31 96.4612ZM134.589 109.253C134.589 109.402 134.459 109.531 134.31 109.531H112.124C111.975 109.531 111.845 109.402 111.845 109.253V99.5245C111.845 99.376 111.975 99.2461 112.124 99.2461H134.31C134.459 99.2461 134.589 99.376 134.589 99.5245V109.253Z" fill="#F2F2F2"/>
<path d="M97.5866 62.8942H60.7892C57.9672 62.8942 55.6836 65.1778 55.6836 67.9998V107.211C55.6836 110.033 57.9672 112.316 60.7892 112.316H97.5866C100.409 112.316 102.692 110.033 102.692 107.211V67.9998C102.692 65.1778 100.409 62.8942 97.5866 62.8942ZM99.9073 107.211C99.9073 108.492 98.8676 109.531 97.5866 109.531H60.7892C59.5081 109.531 58.4685 108.492 58.4685 107.211V67.9998C58.4685 66.7187 59.5081 65.679 60.7892 65.679H97.5866C98.8676 65.679 99.9073 66.7187 99.9073 67.9998V107.211Z" fill="#F2F2F2"/>
<path d="M135.981 68.1483H110.453C109.692 68.1483 109.061 68.7796 109.061 69.5408C109.061 70.3205 109.692 70.9332 110.453 70.9332H135.981C136.742 70.9332 137.373 70.3019 137.373 69.5408C137.373 68.7796 136.742 68.1483 135.981 68.1483Z" fill="#F2F2F2"/>
<path d="M135.981 74.4607H110.453C109.692 74.4607 109.061 75.0919 109.061 75.8531C109.061 76.6329 109.692 77.2456 110.453 77.2456H135.981C136.742 77.2456 137.373 76.6143 137.373 75.8531C137.373 75.0919 136.742 74.4607 135.981 74.4607Z" fill="#F2F2F2"/>
<path d="M135.981 80.7916H110.453C109.692 80.7916 109.061 81.4229 109.061 82.1841C109.061 82.9453 109.692 83.5765 110.453 83.5765H135.981C136.742 83.5765 137.373 82.9453 137.373 82.1841C137.373 81.4229 136.742 80.7916 135.981 80.7916Z" fill="#F2F2F2"/>
<path d="M135.981 87.104H110.453C109.692 87.104 109.061 87.7352 109.061 88.4964C109.061 89.2576 109.692 89.8889 110.453 89.8889H135.981C136.742 89.8889 137.373 89.2576 137.373 88.4964C137.373 87.7352 136.742 87.104 135.981 87.104Z" fill="#F2F2F2"/>
<path d="M92.3325 90.2602C89.4362 89.9074 87.4311 89.6661 85.983 89.3133C84.6648 88.9977 83.9593 88.645 83.5694 88.088C82.9567 87.2525 82.9382 85.8787 82.9753 83.7065L84.2935 73.2539C84.3492 72.8269 84.2192 72.4185 83.9407 72.1028C83.6622 71.7872 83.2538 71.6016 82.8453 71.6016H71.4459C71.0375 71.6016 70.6476 71.7687 70.3691 72.0657C70.0906 72.3628 69.9421 72.7712 69.9792 73.1797L70.1649 75.7603H64.5209C64.1125 75.7603 63.7226 75.9274 63.4441 76.2244C63.1656 76.5215 63.0171 76.9299 63.0542 77.3384L64.3909 94.716C64.4095 95.4957 63.4812 96.5725 63.1285 96.9067L63.0356 96.981V103.163C63.0356 103.98 63.704 104.63 64.5023 104.63H70.4063C71.186 104.63 71.8358 104.017 71.873 103.256H72.2628L80.506 104.667L85.296 104.63C87.3011 104.63 88.9535 103.312 89.6033 101.214C89.6775 100.991 89.7332 100.75 89.7704 100.508H92.2025C94.2076 100.508 95.8599 99.1718 96.5098 97.0553C97.011 95.4215 96.8068 93.6763 95.9713 92.3581C95.2101 91.1885 93.9477 90.4458 92.3325 90.2602ZM64.9851 98.8747V98.1135C64.9851 98.0021 65.0222 97.9093 65.0964 97.835C65.9319 97.0367 66.3404 96.0156 66.3961 94.7345V94.716L65.1336 78.1182C65.1336 78.0068 65.1707 77.8954 65.245 77.8211C65.3192 77.7468 65.4121 77.6911 65.5235 77.6911H74.8992C75.0106 77.6911 75.122 77.7468 75.1962 77.8211C75.2705 77.9139 75.3076 78.0068 75.2891 78.1182L74.1009 87.6795V87.7538C74.0452 90.4087 74.1937 92.191 75.0848 93.3978C75.6604 94.1776 76.4958 94.716 77.7397 95.1244C79.355 95.6443 81.75 95.9599 85.2218 96.3683C87.0969 96.5911 87.8395 98.0021 87.9138 99.246H65.3749C65.1521 99.2646 64.9851 99.0975 64.9851 98.8747ZM76.6629 92.2282C76.0503 91.3927 76.0317 90.0188 76.0688 87.8466L77.387 77.3941C77.4427 76.9671 77.3127 76.5586 77.0342 76.243C76.7558 75.9274 76.3473 75.7417 75.9389 75.7417H72.5413C72.3371 75.7417 72.17 75.5746 72.1514 75.389L72.04 73.9594C72.04 73.848 72.0772 73.7552 72.1514 73.6624C72.2257 73.5881 72.3185 73.5324 72.4299 73.5324H81.8057C81.917 73.5324 82.0284 73.5881 82.1027 73.6624C82.177 73.7552 82.2141 73.848 82.1955 73.9594L81.0073 83.5208V83.5951C80.9516 86.25 81.1002 88.0323 81.9913 89.2391C82.5668 90.0188 83.4023 90.5572 84.6462 90.9657C86.2614 91.4855 88.6564 91.8011 92.1282 92.2096C94.0034 92.4324 94.746 93.8434 94.8203 95.0873H87.6167C86.9855 94.716 86.2614 94.4746 85.4445 94.3818C82.5483 94.029 80.5432 93.7877 79.095 93.4349C77.7583 93.1379 77.0528 92.7851 76.6629 92.2282ZM64.9851 101.585C64.9851 101.363 65.1521 101.195 65.3749 101.195H87.4868C87.0041 102.142 86.2243 102.699 85.3146 102.718L80.6917 102.681L72.3557 101.325H69.9607V102.347C69.9607 102.458 69.9236 102.551 69.8493 102.625C69.775 102.699 69.6822 102.736 69.5708 102.736L65.3749 102.699C65.1707 102.699 64.9851 102.514 64.9851 102.309V101.585ZM94.3933 97.0553C93.9291 97.9836 93.1308 98.5405 92.2211 98.5405H89.8261C89.7518 98.0021 89.5847 97.5008 89.3805 97.0553H94.3933Z" fill="#F2F2F2"/>
<path d="M67.736 79.0881L65.751 79.3716L67.2132 89.6093L69.1983 89.3258L67.736 79.0881Z" fill="#F2F2F2"/>
</g>
<path d="M87.0153 157L84.2633 148.04H84.1993C84.2099 148.253 84.2259 148.573 84.2473 149C84.2686 149.427 84.2899 149.885 84.3113 150.376C84.3326 150.856 84.3433 151.293 84.3433 151.688V157H82.1833V145.576H85.4793L88.1833 154.312H88.2313L91.0953 145.576H94.3913V157H92.1353V151.592C92.1353 151.229 92.1406 150.813 92.1513 150.344C92.1726 149.875 92.1886 149.432 92.1993 149.016C92.2206 148.589 92.2366 148.269 92.2473 148.056H92.1833L89.2393 157H87.0153ZM104.419 157L103.587 154.28H99.427L98.595 157H95.987L100.019 145.528H102.979L107.027 157H104.419ZM102.179 149.592C102.126 149.411 102.056 149.181 101.971 148.904C101.886 148.627 101.8 148.344 101.715 148.056C101.63 147.768 101.56 147.517 101.507 147.304C101.454 147.517 101.379 147.784 101.283 148.104C101.198 148.413 101.112 148.712 101.027 149C100.952 149.277 100.894 149.475 100.851 149.592L100.035 152.248H103.011L102.179 149.592ZM112.896 157H107.696V155.624L109.088 154.984V147.592L107.696 146.952V145.576H112.896V146.952L111.504 147.592V154.984L112.896 155.624V157ZM114.993 157V145.576H117.409V155H122.049V157H114.993Z" fill="#F2F2F2"/>
</g>
<defs>
<filter id="filter0_d_2099:2288" x="0" y="0" width="212" height="212" filterUnits="userSpaceOnUse" color-interpolation-filters="sRGB">
<feFlood flood-opacity="0" result="BackgroundImageFix"/>
<feColorMatrix in="SourceAlpha" type="matrix" values="0 0 0 0 0 0 0 0 0 0 0 0 0 0 0 0 0 0 127 0" result="hardAlpha"/>
<feMorphology radius="3" operator="erode" in="SourceAlpha" result="effect1_dropShadow_2099:2288"/>
<feOffset dx="4" dy="5"/>
<feGaussianBlur stdDeviation="6"/>
<feComposite in2="hardAlpha" operator="out"/>
<feColorMatrix type="matrix" values="0 0 0 0 0 0 0 0 0 0 0 0 0 0 0 0 0 0 0.15 0"/>
<feBlend mode="normal" in2="BackgroundImageFix" result="effect1_dropShadow_2099:2288"/>
<feBlend mode="normal" in="SourceGraphic" in2="effect1_dropShadow_2099:2288" result="shape"/>
</filter>
<clipPath id="clip0_2099:2288">
<rect width="105.342" height="80" fill="white" transform="translate(49 39)"/>
</clipPath>
</defs>
</svg>
