<svg width="194" height="194" viewBox="0 0 194 194" fill="none" xmlns="http://www.w3.org/2000/svg">
<path d="M0 27.8776C0 12.4812 12.4812 0 27.8776 0H166.122C181.519 0 194 12.4812 194 27.8776V166.122C194 181.519 181.519 194 166.122 194H27.8776C12.4812 194 0 181.519 0 166.122V27.8776Z" fill="#3A647E"/>
<g clip-path="url(#clip0_2099:2299)">
<path d="M95.0853 36.6167C86.1491 36.6167 78.915 44.489 78.915 54.1699C78.915 61.4039 83.064 68.5316 89.0214 71.5103C90.9363 72.4678 93.064 72.9997 95.1916 72.9997C97.3193 72.9997 99.3406 72.4678 101.362 71.5103C107.319 68.5316 111.468 61.4039 111.468 54.1699C111.362 44.489 104.128 36.6167 95.0853 36.6167ZM99.8725 68.638C96.7874 70.1274 93.4895 70.1274 90.4044 68.638C85.5108 66.1912 82.1065 60.2337 82.1065 54.1699C82.1065 46.1912 87.9576 39.8082 95.0853 39.8082C102.213 39.8082 108.064 46.2976 108.064 54.1699C108.17 60.3401 104.766 66.1912 99.8725 68.638Z" fill="#F2F2F2"/>
<path d="M138.489 38.1064C138.489 29.8085 131.681 23 123.383 23C119.234 23 115.298 24.7021 112.426 27.7872C107.106 25.234 101.149 23.8511 95.0852 23.8511C73.2767 23.7447 55.5107 41.5106 55.5107 63.4255C55.5107 74.5957 60.298 85.3404 68.5959 92.7872C75.9363 99.383 85.298 103 95.1916 103C105.085 103 114.447 99.383 121.787 92.7872C130.085 85.3404 134.766 74.5957 134.766 63.4255C134.766 58.8511 134.021 54.383 132.532 50.1277C136.255 47.2553 138.489 42.8936 138.489 38.1064ZM118.596 91.2979C118.383 91.4043 118.277 91.617 118.064 91.7234C117.851 91.9362 117.532 92.1489 117.319 92.3617C117.106 92.4681 117 92.6808 116.787 92.7872C116.575 93 116.255 93.2128 116.043 93.3191C115.83 93.4255 115.617 93.5319 115.511 93.7447C115.192 93.9574 114.979 94.0638 114.66 94.2766C114.447 94.383 114.234 94.4894 114.128 94.5957C113.809 94.8085 113.596 94.9149 113.277 95.1277C113.064 95.234 112.851 95.3404 112.638 95.4468C112.319 95.5532 112.106 95.766 111.787 95.8723C111.575 95.9787 111.362 96.0851 111.149 96.1915C110.83 96.2979 110.617 96.5106 110.298 96.617C110.085 96.7234 109.872 96.8298 109.66 96.9362C109.341 97.0426 109.021 97.1489 108.809 97.2553C108.596 97.3617 108.383 97.4681 108.17 97.4681C107.851 97.5745 107.532 97.6809 107.213 97.7872C107 97.8936 106.787 97.8936 106.575 98C106.255 98.1064 105.936 98.2128 105.617 98.3192C105.404 98.4255 105.192 98.4255 104.979 98.5319C104.66 98.6383 104.341 98.7447 104.021 98.7447C103.809 98.8511 103.596 98.8511 103.383 98.9574C103.064 99.0638 102.745 99.0638 102.426 99.1702C102.213 99.1702 102 99.2766 101.787 99.2766C101.468 99.383 101.149 99.383 100.724 99.4894C100.511 99.4894 100.298 99.5957 100.085 99.5957C99.7661 99.5957 99.3405 99.7021 99.0214 99.7021C98.8086 99.7021 98.5959 99.7021 98.4895 99.8085C98.0639 99.8085 97.7448 99.9149 97.3193 99.9149C97.2129 99.9149 97.0001 99.9149 96.8937 99.9149C96.3618 99.9149 95.8299 99.9149 95.1916 99.9149C95.1916 99.9149 95.1916 99.9149 95.0852 99.9149C94.5533 99.9149 94.0214 99.9149 93.4895 99.9149C93.2767 99.9149 93.0639 99.9149 92.8512 99.9149C92.532 99.9149 92.2129 99.9149 91.7873 99.8085C91.5746 99.8085 91.2554 99.7021 91.0427 99.7021C90.7235 99.7021 90.4044 99.5957 90.0852 99.5957C89.8724 99.5957 89.5533 99.4894 89.3405 99.4894C89.0214 99.4894 88.8086 99.383 88.4895 99.383C88.2767 99.383 87.9576 99.2766 87.7448 99.1702C87.4256 99.0638 87.2129 99.0638 86.8937 98.9574C86.5746 98.8511 86.3618 98.8511 86.149 98.7447C85.8299 98.6383 85.6171 98.5319 85.298 98.5319C84.9788 98.4255 84.7661 98.4255 84.5533 98.3192C84.3405 98.2128 84.0214 98.2128 83.8086 98.1064C83.4895 98 83.2767 97.8936 83.0639 97.7872C82.8512 97.6809 82.532 97.5745 82.3193 97.4681C82.1065 97.3617 81.7873 97.2553 81.5746 97.1489C81.3618 97.0425 81.0427 96.9362 80.8299 96.8298C80.6171 96.7234 80.298 96.617 80.0852 96.5106C79.8724 96.4043 79.6597 96.2979 79.3405 96.1915C79.1278 96.0851 78.8086 95.9787 78.5959 95.766C78.3831 95.6596 78.1703 95.5532 77.9576 95.4468C77.7448 95.3404 77.4256 95.1277 77.2129 95.0213C77.0001 94.9149 76.7873 94.8085 76.5746 94.5957C76.3618 94.4894 76.0427 94.2766 75.8299 94.1702C75.6171 94.0638 75.4044 93.8511 75.1916 93.7447C74.9788 93.5319 74.6597 93.4255 74.4469 93.2128C74.2341 93.1064 74.0214 92.8936 73.8086 92.7872C73.5959 92.5745 73.2767 92.4681 73.0639 92.2553C72.8512 92.1489 72.6384 91.9362 72.532 91.8298C72.3193 91.617 72.1065 91.4043 71.7873 91.1915C71.681 91.0851 71.5746 90.9787 71.4682 90.8723C71.5746 86.5106 74.7661 82.4681 79.4469 80.8723L89.9788 77.3617C93.4895 78.6383 97.3193 78.6383 100.83 77.3617L111.362 80.8723C116.043 82.4681 119.234 86.4043 119.341 90.8723C118.915 90.9787 118.809 91.0851 118.596 91.2979ZM121.894 88.1064C120.724 83.4255 117.106 79.5957 112.106 77.8936L101.043 74.1702C100.724 74.0638 100.298 74.0638 99.9788 74.1702C96.8937 75.4468 93.4895 75.4468 90.4044 74.1702C90.0852 74.0638 89.6597 74.0638 89.3405 74.1702L78.2767 77.8936C73.2767 79.5957 69.5533 83.5319 68.4895 88.1064C62.2129 81.4043 58.7022 72.5745 58.7022 63.4255C58.7022 43.3191 75.0852 26.9362 95.0852 26.9362C100.404 26.9362 105.617 28.1064 110.404 30.3404C110.298 30.4468 110.298 30.5532 110.192 30.6596C110.085 30.766 110.085 30.8723 109.979 30.9787C109.979 31.1915 109.872 31.5106 109.766 31.7234C109.766 31.8298 109.66 31.9362 109.66 32.0426C109.553 32.3617 109.341 32.7872 109.234 33.1064V33.2128C109.128 33.5319 109.021 33.8511 108.915 34.1702C108.915 34.2766 108.809 34.383 108.809 34.4894C108.702 34.7021 108.702 35.0213 108.596 35.234C108.596 35.3404 108.596 35.5532 108.489 35.6596C108.489 35.8723 108.383 36.1915 108.383 36.5106C108.383 36.617 108.383 36.7234 108.383 36.8298C108.383 37.2553 108.383 37.5745 108.383 38C108.383 46.2979 115.192 53.1064 123.489 53.1064C124.021 53.1064 124.447 53.1064 124.979 53C125.085 53 125.192 53 125.298 53C125.724 52.8936 126.255 52.8936 126.681 52.7872H126.787C127.213 52.6809 127.638 52.5745 128.064 52.4681C128.17 52.4681 128.277 52.3617 128.383 52.3617C128.809 52.2553 129.234 52.0426 129.66 51.8298C130.936 55.5532 131.575 59.4894 131.575 63.4255C131.575 72.5745 128.064 81.4043 121.894 88.1064ZM129.66 48.2128C127.745 49.383 125.617 50.0213 123.383 50.0213C116.787 50.0213 111.468 44.7021 111.468 38.1064C111.468 37.7872 111.468 37.4681 111.468 37.1489C111.681 34.8085 112.532 32.6809 114.021 30.766C116.362 27.7872 119.766 26.1915 123.383 26.1915C129.979 26.1915 135.298 31.5106 135.298 38.1064C135.298 42.2553 133.17 45.9787 129.66 48.2128Z" fill="#F2F2F2"/>
<path d="M128.171 35.1275H128.064V34.0637C128.064 31.936 126.362 30.2339 124.235 30.2339H122.639C120.511 30.2339 118.809 31.936 118.809 34.0637V35.1275H118.703C117.852 35.1275 117.107 35.8722 117.107 36.7232V44.3828C117.107 45.2339 117.852 45.9786 118.703 45.9786H128.277C129.128 45.9786 129.873 45.2339 129.873 44.3828V36.7232C129.766 35.8722 129.128 35.1275 128.171 35.1275ZM121.894 34.0637C121.894 33.7445 122.213 33.4254 122.532 33.4254H124.128C124.447 33.4254 124.766 33.7445 124.766 34.0637V35.1275H121.788V34.0637H121.894ZM126.575 42.7871H120.192V38.319H120.298H126.469H126.575V42.7871Z" fill="#F2F2F2"/>
</g>
<path d="M56.5021 129.576C57.9741 129.576 59.0461 129.896 59.7181 130.536C60.4007 131.165 60.7421 132.035 60.7421 133.144C60.7421 133.805 60.6034 134.429 60.3261 135.016C60.0487 135.592 59.5847 136.056 58.9341 136.408C58.2941 136.76 57.4194 136.936 56.3101 136.936H55.2701V141H52.8541V129.576H56.5021ZM56.3741 131.56H55.2701V134.952H56.0701C56.7527 134.952 57.2914 134.819 57.6861 134.552C58.0914 134.275 58.2941 133.832 58.2941 133.224C58.2941 132.115 57.6541 131.56 56.3741 131.56ZM69.6269 141H63.0509V129.576H69.6269V131.56H65.4669V134.072H69.3389V136.056H65.4669V139H69.6269V141ZM75.4821 129.576C77.0394 129.576 78.1861 129.859 78.9221 130.424C79.6687 130.989 80.0421 131.848 80.0421 133C80.0421 133.523 79.9407 133.981 79.7381 134.376C79.5461 134.76 79.2847 135.091 78.9541 135.368C78.6341 135.635 78.2874 135.853 77.9141 136.024L81.2741 141H78.5861L75.8661 136.616H74.5701V141H72.1541V129.576H75.4821ZM75.3061 131.56H74.5701V134.648H75.3541C76.1541 134.648 76.7247 134.515 77.0661 134.248C77.4181 133.981 77.5941 133.587 77.5941 133.064C77.5941 132.52 77.4074 132.136 77.0341 131.912C76.6714 131.677 76.0954 131.56 75.3061 131.56ZM85.2506 141H82.8666V129.576H89.4106V131.56H85.2506V134.504H89.1226V136.488H85.2506V141ZM96.0698 141H90.8698V139.624L92.2618 138.984V131.592L90.8698 130.952V129.576H96.0698V130.952L94.6778 131.592V138.984L96.0698 139.624V141ZM98.1666 141V129.576H100.583V139H105.223V141H98.1666ZM113.939 141H107.363V129.576H113.939V131.56H109.779V134.072H113.651V136.056H109.779V139H113.939V141ZM123.203 137.832C123.203 138.845 122.835 139.656 122.099 140.264C121.373 140.861 120.339 141.16 118.995 141.16C117.789 141.16 116.712 140.931 115.763 140.472V138.216C116.307 138.451 116.867 138.669 117.443 138.872C118.029 139.064 118.611 139.16 119.187 139.16C119.784 139.16 120.205 139.048 120.451 138.824C120.707 138.589 120.835 138.296 120.835 137.944C120.835 137.656 120.733 137.411 120.531 137.208C120.339 137.005 120.077 136.819 119.747 136.648C119.416 136.467 119.037 136.275 118.611 136.072C118.344 135.944 118.056 135.795 117.747 135.624C117.437 135.443 117.139 135.224 116.851 134.968C116.573 134.701 116.344 134.381 116.163 134.008C115.981 133.635 115.891 133.187 115.891 132.664C115.891 131.64 116.237 130.845 116.931 130.28C117.624 129.704 118.568 129.416 119.763 129.416C120.36 129.416 120.925 129.485 121.459 129.624C122.003 129.763 122.568 129.96 123.155 130.216L122.371 132.104C121.848 131.891 121.379 131.725 120.963 131.608C120.547 131.491 120.12 131.432 119.683 131.432C119.224 131.432 118.872 131.539 118.627 131.752C118.381 131.965 118.259 132.243 118.259 132.584C118.259 132.989 118.44 133.309 118.803 133.544C119.165 133.779 119.704 134.067 120.419 134.408C121.005 134.685 121.501 134.973 121.907 135.272C122.323 135.571 122.643 135.923 122.867 136.328C123.091 136.733 123.203 137.235 123.203 137.832ZM133.287 134.28L135.671 129.576H138.279L134.487 136.552V141H132.087V136.632L128.295 129.576H130.919L133.287 134.28ZM61.4401 161.832C61.4401 162.845 61.0721 163.656 60.3361 164.264C59.6107 164.861 58.5761 165.16 57.2321 165.16C56.0267 165.16 54.9494 164.931 54.0001 164.472V162.216C54.5441 162.451 55.1041 162.669 55.6801 162.872C56.2667 163.064 56.8481 163.16 57.4241 163.16C58.0214 163.16 58.4427 163.048 58.6881 162.824C58.9441 162.589 59.0721 162.296 59.0721 161.944C59.0721 161.656 58.9707 161.411 58.7681 161.208C58.5761 161.005 58.3147 160.819 57.9841 160.648C57.6534 160.467 57.2747 160.275 56.8481 160.072C56.5814 159.944 56.2934 159.795 55.9841 159.624C55.6747 159.443 55.3761 159.224 55.0881 158.968C54.8107 158.701 54.5814 158.381 54.4001 158.008C54.2187 157.635 54.1281 157.187 54.1281 156.664C54.1281 155.64 54.4747 154.845 55.1681 154.28C55.8614 153.704 56.8054 153.416 58.0001 153.416C58.5974 153.416 59.1627 153.485 59.6961 153.624C60.2401 153.763 60.8054 153.96 61.3921 154.216L60.6081 156.104C60.0854 155.891 59.6161 155.725 59.2001 155.608C58.7841 155.491 58.3574 155.432 57.9201 155.432C57.4614 155.432 57.1094 155.539 56.8641 155.752C56.6187 155.965 56.4961 156.243 56.4961 156.584C56.4961 156.989 56.6774 157.309 57.0401 157.544C57.4027 157.779 57.9414 158.067 58.6561 158.408C59.2427 158.685 59.7387 158.973 60.1441 159.272C60.5601 159.571 60.8801 159.923 61.1041 160.328C61.3281 160.733 61.4401 161.235 61.4401 161.832ZM70.2426 165H63.6666V153.576H70.2426V155.56H66.0826V158.072H69.9546V160.056H66.0826V163H70.2426V165ZM77.1057 158.584H81.6337V164.504C81.0364 164.707 80.4124 164.867 79.7617 164.984C79.1217 165.101 78.391 165.16 77.5697 165.16C75.863 165.16 74.551 164.659 73.6337 163.656C72.7164 162.653 72.2577 161.192 72.2577 159.272C72.2577 158.077 72.487 157.043 72.9457 156.168C73.415 155.293 74.0924 154.616 74.9777 154.136C75.863 153.656 76.9457 153.416 78.2257 153.416C78.8337 153.416 79.431 153.48 80.0177 153.608C80.6044 153.736 81.1377 153.907 81.6177 154.12L80.8177 156.056C80.4657 155.875 80.0657 155.725 79.6177 155.608C79.1697 155.491 78.7004 155.432 78.2097 155.432C77.5057 155.432 76.8924 155.592 76.3697 155.912C75.8577 156.232 75.4577 156.685 75.1697 157.272C74.8924 157.848 74.7537 158.531 74.7537 159.32C74.7537 160.067 74.855 160.728 75.0577 161.304C75.2604 161.88 75.5804 162.333 76.0177 162.664C76.455 162.984 77.0257 163.144 77.7297 163.144C78.071 163.144 78.359 163.128 78.5937 163.096C78.839 163.064 79.063 163.027 79.2657 162.984V160.6H77.1057V158.584ZM93.7938 160.968C93.7938 161.757 93.6178 162.472 93.2658 163.112C92.9245 163.741 92.4018 164.243 91.6978 164.616C91.0045 164.979 90.1245 165.16 89.0578 165.16C87.5431 165.16 86.3911 164.776 85.6018 164.008C84.8125 163.229 84.4178 162.205 84.4178 160.936V153.576H86.8338V160.568C86.8338 161.507 87.0258 162.168 87.4098 162.552C87.7938 162.936 88.3645 163.128 89.1218 163.128C89.9111 163.128 90.4818 162.92 90.8338 162.504C91.1965 162.088 91.3778 161.437 91.3778 160.552V153.576H93.7938V160.968ZM100.07 153.576C101.627 153.576 102.774 153.859 103.51 154.424C104.256 154.989 104.63 155.848 104.63 157C104.63 157.523 104.528 157.981 104.326 158.376C104.134 158.76 103.872 159.091 103.542 159.368C103.222 159.635 102.875 159.853 102.502 160.024L105.862 165H103.174L100.454 160.616H99.1576V165H96.7416V153.576H100.07ZM99.8936 155.56H99.1576V158.648H99.9416C100.742 158.648 101.312 158.515 101.654 158.248C102.006 157.981 102.182 157.587 102.182 157.064C102.182 156.52 101.995 156.136 101.622 155.912C101.259 155.677 100.683 155.56 99.8936 155.56ZM116.926 159.176C116.926 161.107 116.377 162.563 115.278 163.544C114.19 164.515 112.659 165 110.686 165H107.454V153.576H111.038C112.233 153.576 113.267 153.789 114.142 154.216C115.027 154.643 115.71 155.272 116.19 156.104C116.681 156.925 116.926 157.949 116.926 159.176ZM114.414 159.24C114.414 157.971 114.137 157.043 113.582 156.456C113.027 155.859 112.222 155.56 111.166 155.56H109.87V163H110.91C113.246 163 114.414 161.747 114.414 159.24ZM126.127 165L125.295 162.28H121.135L120.303 165H117.695L121.727 153.528H124.687L128.735 165H126.127ZM123.887 157.592C123.834 157.411 123.765 157.181 123.679 156.904C123.594 156.627 123.509 156.344 123.423 156.056C123.338 155.768 123.269 155.517 123.215 155.304C123.162 155.517 123.087 155.784 122.991 156.104C122.906 156.413 122.821 156.712 122.735 157C122.661 157.277 122.602 157.475 122.559 157.592L121.743 160.248H124.719L123.887 157.592ZM139.804 159.176C139.804 161.107 139.255 162.563 138.156 163.544C137.068 164.515 135.538 165 133.564 165H130.332V153.576H133.916C135.111 153.576 136.146 153.789 137.02 154.216C137.906 154.643 138.588 155.272 139.068 156.104C139.559 156.925 139.804 157.949 139.804 159.176ZM137.292 159.24C137.292 157.971 137.015 157.043 136.46 156.456C135.906 155.859 135.1 155.56 134.044 155.56H132.748V163H133.788C136.124 163 137.292 161.747 137.292 159.24Z" fill="#F2F2F2"/>
<defs>
<clipPath id="clip0_2099:2299">
<rect width="82.9787" height="80" fill="white" transform="translate(55.5107 23)"/>
</clipPath>
</defs>
</svg>
