<svg width="212" height="212" viewBox="0 0 212 212" fill="none" xmlns="http://www.w3.org/2000/svg">
<g filter="url(#filter0_d_2099:2298)">
<path d="M5 31.8776C5 16.4812 17.4812 4 32.8776 4H171.122C186.519 4 199 16.4812 199 31.8776V170.122C199 185.519 186.519 198 171.122 198H32.8776C17.4812 198 5 185.519 5 170.122V31.8776Z" fill="#2C4C59"/>
<g clip-path="url(#clip0_2099:2298)">
<path d="M100.085 40.6167C91.1491 40.6167 83.915 48.489 83.915 58.1699C83.915 65.4039 88.064 72.5316 94.0214 75.5103C95.9363 76.4678 98.064 76.9997 100.192 76.9997C102.319 76.9997 104.341 76.4678 106.362 75.5103C112.319 72.5316 116.468 65.4039 116.468 58.1699C116.362 48.489 109.128 40.6167 100.085 40.6167ZM104.872 72.638C101.787 74.1274 98.4895 74.1274 95.4044 72.638C90.5108 70.1912 87.1065 64.2337 87.1065 58.1699C87.1065 50.1912 92.9576 43.8082 100.085 43.8082C107.213 43.8082 113.064 50.2976 113.064 58.1699C113.17 64.3401 109.766 70.1912 104.872 72.638Z" fill="#F2F2F2"/>
<path d="M143.489 42.1064C143.489 33.8085 136.681 27 128.383 27C124.234 27 120.298 28.7021 117.426 31.7872C112.106 29.234 106.149 27.8511 100.085 27.8511C78.2767 27.7447 60.5107 45.5106 60.5107 67.4255C60.5107 78.5957 65.298 89.3404 73.5959 96.7872C80.9363 103.383 90.298 107 100.192 107C110.085 107 119.447 103.383 126.787 96.7872C135.085 89.3404 139.766 78.5957 139.766 67.4255C139.766 62.8511 139.021 58.383 137.532 54.1277C141.255 51.2553 143.489 46.8936 143.489 42.1064ZM123.596 95.2979C123.383 95.4043 123.277 95.617 123.064 95.7234C122.851 95.9362 122.532 96.1489 122.319 96.3617C122.106 96.4681 122 96.6808 121.787 96.7872C121.575 97 121.255 97.2128 121.043 97.3191C120.83 97.4255 120.617 97.5319 120.511 97.7447C120.192 97.9574 119.979 98.0638 119.66 98.2766C119.447 98.383 119.234 98.4894 119.128 98.5957C118.809 98.8085 118.596 98.9149 118.277 99.1277C118.064 99.234 117.851 99.3404 117.638 99.4468C117.319 99.5532 117.106 99.766 116.787 99.8723C116.575 99.9787 116.362 100.085 116.149 100.191C115.83 100.298 115.617 100.511 115.298 100.617C115.085 100.723 114.872 100.83 114.66 100.936C114.341 101.043 114.021 101.149 113.809 101.255C113.596 101.362 113.383 101.468 113.17 101.468C112.851 101.574 112.532 101.681 112.213 101.787C112 101.894 111.787 101.894 111.575 102C111.255 102.106 110.936 102.213 110.617 102.319C110.404 102.426 110.192 102.426 109.979 102.532C109.66 102.638 109.341 102.745 109.021 102.745C108.809 102.851 108.596 102.851 108.383 102.957C108.064 103.064 107.745 103.064 107.426 103.17C107.213 103.17 107 103.277 106.787 103.277C106.468 103.383 106.149 103.383 105.724 103.489C105.511 103.489 105.298 103.596 105.085 103.596C104.766 103.596 104.341 103.702 104.021 103.702C103.809 103.702 103.596 103.702 103.489 103.809C103.064 103.809 102.745 103.915 102.319 103.915C102.213 103.915 102 103.915 101.894 103.915C101.362 103.915 100.83 103.915 100.192 103.915C100.192 103.915 100.192 103.915 100.085 103.915C99.5533 103.915 99.0214 103.915 98.4895 103.915C98.2767 103.915 98.0639 103.915 97.8512 103.915C97.532 103.915 97.2129 103.915 96.7873 103.809C96.5746 103.809 96.2554 103.702 96.0427 103.702C95.7235 103.702 95.4044 103.596 95.0852 103.596C94.8724 103.596 94.5533 103.489 94.3405 103.489C94.0214 103.489 93.8086 103.383 93.4895 103.383C93.2767 103.383 92.9576 103.277 92.7448 103.17C92.4256 103.064 92.2129 103.064 91.8937 102.957C91.5746 102.851 91.3618 102.851 91.149 102.745C90.8299 102.638 90.6171 102.532 90.298 102.532C89.9788 102.426 89.7661 102.426 89.5533 102.319C89.3405 102.213 89.0214 102.213 88.8086 102.106C88.4895 102 88.2767 101.894 88.0639 101.787C87.8512 101.681 87.532 101.574 87.3193 101.468C87.1065 101.362 86.7873 101.255 86.5746 101.149C86.3618 101.043 86.0427 100.936 85.8299 100.83C85.6171 100.723 85.298 100.617 85.0852 100.511C84.8724 100.404 84.6597 100.298 84.3405 100.191C84.1278 100.085 83.8086 99.9787 83.5959 99.766C83.3831 99.6596 83.1703 99.5532 82.9576 99.4468C82.7448 99.3404 82.4256 99.1277 82.2129 99.0213C82.0001 98.9149 81.7873 98.8085 81.5746 98.5957C81.3618 98.4894 81.0427 98.2766 80.8299 98.1702C80.6171 98.0638 80.4044 97.8511 80.1916 97.7447C79.9788 97.5319 79.6597 97.4255 79.4469 97.2128C79.2341 97.1064 79.0214 96.8936 78.8086 96.7872C78.5959 96.5745 78.2767 96.4681 78.0639 96.2553C77.8512 96.1489 77.6384 95.9362 77.532 95.8298C77.3193 95.617 77.1065 95.4043 76.7873 95.1915C76.681 95.0851 76.5746 94.9787 76.4682 94.8723C76.5746 90.5106 79.7661 86.4681 84.4469 84.8723L94.9788 81.3617C98.4895 82.6383 102.319 82.6383 105.83 81.3617L116.362 84.8723C121.043 86.4681 124.234 90.4043 124.341 94.8723C123.915 94.9787 123.809 95.0851 123.596 95.2979ZM126.894 92.1064C125.724 87.4255 122.106 83.5957 117.106 81.8936L106.043 78.1702C105.724 78.0638 105.298 78.0638 104.979 78.1702C101.894 79.4468 98.4895 79.4468 95.4044 78.1702C95.0852 78.0638 94.6597 78.0638 94.3405 78.1702L83.2767 81.8936C78.2767 83.5957 74.5533 87.5319 73.4895 92.1064C67.2129 85.4043 63.7022 76.5745 63.7022 67.4255C63.7022 47.3191 80.0852 30.9362 100.085 30.9362C105.404 30.9362 110.617 32.1064 115.404 34.3404C115.298 34.4468 115.298 34.5532 115.192 34.6596C115.085 34.766 115.085 34.8723 114.979 34.9787C114.979 35.1915 114.872 35.5106 114.766 35.7234C114.766 35.8298 114.66 35.9362 114.66 36.0426C114.553 36.3617 114.341 36.7872 114.234 37.1064V37.2128C114.128 37.5319 114.021 37.8511 113.915 38.1702C113.915 38.2766 113.809 38.383 113.809 38.4894C113.702 38.7021 113.702 39.0213 113.596 39.234C113.596 39.3404 113.596 39.5532 113.489 39.6596C113.489 39.8723 113.383 40.1915 113.383 40.5106C113.383 40.617 113.383 40.7234 113.383 40.8298C113.383 41.2553 113.383 41.5745 113.383 42C113.383 50.2979 120.192 57.1064 128.489 57.1064C129.021 57.1064 129.447 57.1064 129.979 57C130.085 57 130.192 57 130.298 57C130.724 56.8936 131.255 56.8936 131.681 56.7872H131.787C132.213 56.6809 132.638 56.5745 133.064 56.4681C133.17 56.4681 133.277 56.3617 133.383 56.3617C133.809 56.2553 134.234 56.0426 134.66 55.8298C135.936 59.5532 136.575 63.4894 136.575 67.4255C136.575 76.5745 133.064 85.4043 126.894 92.1064ZM134.66 52.2128C132.745 53.383 130.617 54.0213 128.383 54.0213C121.787 54.0213 116.468 48.7021 116.468 42.1064C116.468 41.7872 116.468 41.4681 116.468 41.1489C116.681 38.8085 117.532 36.6809 119.021 34.766C121.362 31.7872 124.766 30.1915 128.383 30.1915C134.979 30.1915 140.298 35.5106 140.298 42.1064C140.298 46.2553 138.17 49.9787 134.66 52.2128Z" fill="#F2F2F2"/>
<path d="M133.171 39.1275H133.064V38.0637C133.064 35.936 131.362 34.2339 129.235 34.2339H127.639C125.511 34.2339 123.809 35.936 123.809 38.0637V39.1275H123.703C122.852 39.1275 122.107 39.8722 122.107 40.7232V48.3828C122.107 49.2339 122.852 49.9786 123.703 49.9786H133.277C134.128 49.9786 134.873 49.2339 134.873 48.3828V40.7232C134.766 39.8722 134.128 39.1275 133.171 39.1275ZM126.894 38.0637C126.894 37.7445 127.213 37.4254 127.532 37.4254H129.128C129.447 37.4254 129.766 37.7445 129.766 38.0637V39.1275H126.788V38.0637H126.894ZM131.575 46.7871H125.192V42.319H125.298H131.469H131.575V46.7871Z" fill="#F2F2F2"/>
</g>
<path d="M61.5021 133.576C62.9741 133.576 64.0461 133.896 64.7181 134.536C65.4007 135.165 65.7421 136.035 65.7421 137.144C65.7421 137.805 65.6034 138.429 65.3261 139.016C65.0487 139.592 64.5847 140.056 63.9341 140.408C63.2941 140.76 62.4194 140.936 61.3101 140.936H60.2701V145H57.8541V133.576H61.5021ZM61.3741 135.56H60.2701V138.952H61.0701C61.7527 138.952 62.2914 138.819 62.6861 138.552C63.0914 138.275 63.2941 137.832 63.2941 137.224C63.2941 136.115 62.6541 135.56 61.3741 135.56ZM74.6269 145H68.0509V133.576H74.6269V135.56H70.4669V138.072H74.3389V140.056H70.4669V143H74.6269V145ZM80.4821 133.576C82.0394 133.576 83.1861 133.859 83.9221 134.424C84.6687 134.989 85.0421 135.848 85.0421 137C85.0421 137.523 84.9407 137.981 84.7381 138.376C84.5461 138.76 84.2847 139.091 83.9541 139.368C83.6341 139.635 83.2874 139.853 82.9141 140.024L86.2741 145H83.5861L80.8661 140.616H79.5701V145H77.1541V133.576H80.4821ZM80.3061 135.56H79.5701V138.648H80.3541C81.1541 138.648 81.7247 138.515 82.0661 138.248C82.4181 137.981 82.5941 137.587 82.5941 137.064C82.5941 136.52 82.4074 136.136 82.0341 135.912C81.6714 135.677 81.0954 135.56 80.3061 135.56ZM90.2506 145H87.8666V133.576H94.4106V135.56H90.2506V138.504H94.1226V140.488H90.2506V145ZM101.07 145H95.8698V143.624L97.2618 142.984V135.592L95.8698 134.952V133.576H101.07V134.952L99.6778 135.592V142.984L101.07 143.624V145ZM103.167 145V133.576H105.583V143H110.223V145H103.167ZM118.939 145H112.363V133.576H118.939V135.56H114.779V138.072H118.651V140.056H114.779V143H118.939V145ZM128.203 141.832C128.203 142.845 127.835 143.656 127.099 144.264C126.373 144.861 125.339 145.16 123.995 145.16C122.789 145.16 121.712 144.931 120.763 144.472V142.216C121.307 142.451 121.867 142.669 122.443 142.872C123.029 143.064 123.611 143.16 124.187 143.16C124.784 143.16 125.205 143.048 125.451 142.824C125.707 142.589 125.835 142.296 125.835 141.944C125.835 141.656 125.733 141.411 125.531 141.208C125.339 141.005 125.077 140.819 124.747 140.648C124.416 140.467 124.037 140.275 123.611 140.072C123.344 139.944 123.056 139.795 122.747 139.624C122.437 139.443 122.139 139.224 121.851 138.968C121.573 138.701 121.344 138.381 121.163 138.008C120.981 137.635 120.891 137.187 120.891 136.664C120.891 135.64 121.237 134.845 121.931 134.28C122.624 133.704 123.568 133.416 124.763 133.416C125.36 133.416 125.925 133.485 126.459 133.624C127.003 133.763 127.568 133.96 128.155 134.216L127.371 136.104C126.848 135.891 126.379 135.725 125.963 135.608C125.547 135.491 125.12 135.432 124.683 135.432C124.224 135.432 123.872 135.539 123.627 135.752C123.381 135.965 123.259 136.243 123.259 136.584C123.259 136.989 123.44 137.309 123.803 137.544C124.165 137.779 124.704 138.067 125.419 138.408C126.005 138.685 126.501 138.973 126.907 139.272C127.323 139.571 127.643 139.923 127.867 140.328C128.091 140.733 128.203 141.235 128.203 141.832ZM138.287 138.28L140.671 133.576H143.279L139.487 140.552V145H137.087V140.632L133.295 133.576H135.919L138.287 138.28ZM66.4401 165.832C66.4401 166.845 66.0721 167.656 65.3361 168.264C64.6107 168.861 63.5761 169.16 62.2321 169.16C61.0267 169.16 59.9494 168.931 59.0001 168.472V166.216C59.5441 166.451 60.1041 166.669 60.6801 166.872C61.2667 167.064 61.8481 167.16 62.4241 167.16C63.0214 167.16 63.4427 167.048 63.6881 166.824C63.9441 166.589 64.0721 166.296 64.0721 165.944C64.0721 165.656 63.9707 165.411 63.7681 165.208C63.5761 165.005 63.3147 164.819 62.9841 164.648C62.6534 164.467 62.2747 164.275 61.8481 164.072C61.5814 163.944 61.2934 163.795 60.9841 163.624C60.6747 163.443 60.3761 163.224 60.0881 162.968C59.8107 162.701 59.5814 162.381 59.4001 162.008C59.2187 161.635 59.1281 161.187 59.1281 160.664C59.1281 159.64 59.4747 158.845 60.1681 158.28C60.8614 157.704 61.8054 157.416 63.0001 157.416C63.5974 157.416 64.1627 157.485 64.6961 157.624C65.2401 157.763 65.8054 157.96 66.3921 158.216L65.6081 160.104C65.0854 159.891 64.6161 159.725 64.2001 159.608C63.7841 159.491 63.3574 159.432 62.9201 159.432C62.4614 159.432 62.1094 159.539 61.8641 159.752C61.6187 159.965 61.4961 160.243 61.4961 160.584C61.4961 160.989 61.6774 161.309 62.0401 161.544C62.4027 161.779 62.9414 162.067 63.6561 162.408C64.2427 162.685 64.7387 162.973 65.1441 163.272C65.5601 163.571 65.8801 163.923 66.1041 164.328C66.3281 164.733 66.4401 165.235 66.4401 165.832ZM75.2426 169H68.6666V157.576H75.2426V159.56H71.0826V162.072H74.9546V164.056H71.0826V167H75.2426V169ZM82.1057 162.584H86.6337V168.504C86.0364 168.707 85.4124 168.867 84.7617 168.984C84.1217 169.101 83.391 169.16 82.5697 169.16C80.863 169.16 79.551 168.659 78.6337 167.656C77.7164 166.653 77.2577 165.192 77.2577 163.272C77.2577 162.077 77.487 161.043 77.9457 160.168C78.415 159.293 79.0924 158.616 79.9777 158.136C80.863 157.656 81.9457 157.416 83.2257 157.416C83.8337 157.416 84.431 157.48 85.0177 157.608C85.6044 157.736 86.1377 157.907 86.6177 158.12L85.8177 160.056C85.4657 159.875 85.0657 159.725 84.6177 159.608C84.1697 159.491 83.7004 159.432 83.2097 159.432C82.5057 159.432 81.8924 159.592 81.3697 159.912C80.8577 160.232 80.4577 160.685 80.1697 161.272C79.8924 161.848 79.7537 162.531 79.7537 163.32C79.7537 164.067 79.855 164.728 80.0577 165.304C80.2604 165.88 80.5804 166.333 81.0177 166.664C81.455 166.984 82.0257 167.144 82.7297 167.144C83.071 167.144 83.359 167.128 83.5937 167.096C83.839 167.064 84.063 167.027 84.2657 166.984V164.6H82.1057V162.584ZM98.7938 164.968C98.7938 165.757 98.6178 166.472 98.2658 167.112C97.9245 167.741 97.4018 168.243 96.6978 168.616C96.0045 168.979 95.1245 169.16 94.0578 169.16C92.5431 169.16 91.3911 168.776 90.6018 168.008C89.8125 167.229 89.4178 166.205 89.4178 164.936V157.576H91.8338V164.568C91.8338 165.507 92.0258 166.168 92.4098 166.552C92.7938 166.936 93.3645 167.128 94.1218 167.128C94.9111 167.128 95.4818 166.92 95.8338 166.504C96.1965 166.088 96.3778 165.437 96.3778 164.552V157.576H98.7938V164.968ZM105.07 157.576C106.627 157.576 107.774 157.859 108.51 158.424C109.256 158.989 109.63 159.848 109.63 161C109.63 161.523 109.528 161.981 109.326 162.376C109.134 162.76 108.872 163.091 108.542 163.368C108.222 163.635 107.875 163.853 107.502 164.024L110.862 169H108.174L105.454 164.616H104.158V169H101.742V157.576H105.07ZM104.894 159.56H104.158V162.648H104.942C105.742 162.648 106.312 162.515 106.654 162.248C107.006 161.981 107.182 161.587 107.182 161.064C107.182 160.52 106.995 160.136 106.622 159.912C106.259 159.677 105.683 159.56 104.894 159.56ZM121.926 163.176C121.926 165.107 121.377 166.563 120.278 167.544C119.19 168.515 117.659 169 115.686 169H112.454V157.576H116.038C117.233 157.576 118.267 157.789 119.142 158.216C120.027 158.643 120.71 159.272 121.19 160.104C121.681 160.925 121.926 161.949 121.926 163.176ZM119.414 163.24C119.414 161.971 119.137 161.043 118.582 160.456C118.027 159.859 117.222 159.56 116.166 159.56H114.87V167H115.91C118.246 167 119.414 165.747 119.414 163.24ZM131.127 169L130.295 166.28H126.135L125.303 169H122.695L126.727 157.528H129.687L133.735 169H131.127ZM128.887 161.592C128.834 161.411 128.765 161.181 128.679 160.904C128.594 160.627 128.509 160.344 128.423 160.056C128.338 159.768 128.269 159.517 128.215 159.304C128.162 159.517 128.087 159.784 127.991 160.104C127.906 160.413 127.821 160.712 127.735 161C127.661 161.277 127.602 161.475 127.559 161.592L126.743 164.248H129.719L128.887 161.592ZM144.804 163.176C144.804 165.107 144.255 166.563 143.156 167.544C142.068 168.515 140.538 169 138.564 169H135.332V157.576H138.916C140.111 157.576 141.146 157.789 142.02 158.216C142.906 158.643 143.588 159.272 144.068 160.104C144.559 160.925 144.804 161.949 144.804 163.176ZM142.292 163.24C142.292 161.971 142.015 161.043 141.46 160.456C140.906 159.859 140.1 159.56 139.044 159.56H137.748V167H138.788C141.124 167 142.292 165.747 142.292 163.24Z" fill="#F2F2F2"/>
</g>
<defs>
<filter id="filter0_d_2099:2298" x="0" y="0" width="212" height="212" filterUnits="userSpaceOnUse" color-interpolation-filters="sRGB">
<feFlood flood-opacity="0" result="BackgroundImageFix"/>
<feColorMatrix in="SourceAlpha" type="matrix" values="0 0 0 0 0 0 0 0 0 0 0 0 0 0 0 0 0 0 127 0" result="hardAlpha"/>
<feMorphology radius="3" operator="erode" in="SourceAlpha" result="effect1_dropShadow_2099:2298"/>
<feOffset dx="4" dy="5"/>
<feGaussianBlur stdDeviation="6"/>
<feComposite in2="hardAlpha" operator="out"/>
<feColorMatrix type="matrix" values="0 0 0 0 0 0 0 0 0 0 0 0 0 0 0 0 0 0 0.15 0"/>
<feBlend mode="normal" in2="BackgroundImageFix" result="effect1_dropShadow_2099:2298"/>
<feBlend mode="normal" in="SourceGraphic" in2="effect1_dropShadow_2099:2298" result="shape"/>
</filter>
<clipPath id="clip0_2099:2298">
<rect width="82.9787" height="80" fill="white" transform="translate(60.5107 27)"/>
</clipPath>
</defs>
</svg>
