<svg width="194" height="194" viewBox="0 0 194 194" fill="none" xmlns="http://www.w3.org/2000/svg">
<path d="M0 27.8776C0 12.4812 12.4812 0 27.8776 0H166.122C181.519 0 194 12.4812 194 27.8776V166.122C194 181.519 181.519 194 166.122 194H27.8776C12.4812 194 0 181.519 0 166.122V27.8776Z" fill="#3A647E"/>
<path d="M121.375 100.875H122.375V99.875V95.8125V95.6743L122.338 95.5414C122.163 94.9229 121.723 94.3739 121.231 93.9086C120.72 93.4256 120.057 92.9434 119.288 92.4731C117.748 91.5309 115.689 90.5786 113.336 89.7279C108.633 88.0276 102.626 86.6875 97 86.6875C91.374 86.6875 85.3666 88.0276 80.663 89.7333C78.3098 90.5867 76.2505 91.5432 74.7097 92.4917C73.9405 92.9652 73.2765 93.4513 72.7654 93.939C72.2722 94.4096 71.8343 94.9632 71.6615 95.5855L71.625 95.7168V95.8531V99.875V100.875H72.625H121.375ZM112.25 59.25C112.25 67.6758 105.426 74.5 97 74.5C88.5742 74.5 81.75 67.6758 81.75 59.25C81.75 50.8242 88.5742 44 97 44C105.426 44 112.25 50.8242 112.25 59.25ZM106.125 59.25C106.125 54.229 102.021 50.125 97 50.125C91.979 50.125 87.875 54.229 87.875 59.25C87.875 64.271 91.979 68.375 97 68.375C102.021 68.375 106.125 64.271 106.125 59.25ZM65.5 95.8125C65.5 93.4782 66.6614 91.3595 68.731 89.4494C70.8074 87.533 73.7308 85.8949 77.0543 84.5634C83.703 81.9 91.7016 80.5625 97 80.5625C102.298 80.5625 110.297 81.9 116.946 84.5634C120.269 85.8949 123.193 87.533 125.269 89.4494C127.339 91.3595 128.5 93.4782 128.5 95.8125V103.938C128.5 105.62 127.12 107 125.438 107H68.5625C66.8804 107 65.5 105.62 65.5 103.938V95.8125Z" fill="#F2F2F2" stroke="#3A647E" stroke-width="2"/>
<path d="M66.1016 141.968C66.1016 142.757 65.9256 143.472 65.5736 144.112C65.2323 144.741 64.7096 145.243 64.0056 145.616C63.3123 145.979 62.4323 146.16 61.3656 146.16C59.851 146.16 58.699 145.776 57.9096 145.008C57.1203 144.229 56.7256 143.205 56.7256 141.936V134.576H59.1416V141.568C59.1416 142.507 59.3336 143.168 59.7176 143.552C60.1016 143.936 60.6723 144.128 61.4296 144.128C62.219 144.128 62.7896 143.92 63.1416 143.504C63.5043 143.088 63.6856 142.437 63.6856 141.552V134.576H66.1016V141.968ZM75.7854 142.832C75.7854 143.845 75.4174 144.656 74.6814 145.264C73.956 145.861 72.9214 146.16 71.5774 146.16C70.372 146.16 69.2947 145.931 68.3454 145.472V143.216C68.8894 143.451 69.4494 143.669 70.0254 143.872C70.612 144.064 71.1934 144.16 71.7694 144.16C72.3667 144.16 72.788 144.048 73.0334 143.824C73.2894 143.589 73.4174 143.296 73.4174 142.944C73.4174 142.656 73.316 142.411 73.1134 142.208C72.9214 142.005 72.66 141.819 72.3294 141.648C71.9987 141.467 71.62 141.275 71.1934 141.072C70.9267 140.944 70.6387 140.795 70.3294 140.624C70.02 140.443 69.7214 140.224 69.4334 139.968C69.156 139.701 68.9267 139.381 68.7454 139.008C68.564 138.635 68.4734 138.187 68.4734 137.664C68.4734 136.64 68.82 135.845 69.5134 135.28C70.2067 134.704 71.1507 134.416 72.3454 134.416C72.9427 134.416 73.508 134.485 74.0414 134.624C74.5854 134.763 75.1507 134.96 75.7374 135.216L74.9534 137.104C74.4307 136.891 73.9614 136.725 73.5454 136.608C73.1294 136.491 72.7027 136.432 72.2654 136.432C71.8067 136.432 71.4547 136.539 71.2094 136.752C70.964 136.965 70.8414 137.243 70.8414 137.584C70.8414 137.989 71.0227 138.309 71.3854 138.544C71.748 138.779 72.2867 139.067 73.0014 139.408C73.588 139.685 74.084 139.973 74.4894 140.272C74.9054 140.571 75.2254 140.923 75.4494 141.328C75.6734 141.733 75.7854 142.235 75.7854 142.832ZM87.3079 141.968C87.3079 142.757 87.1319 143.472 86.7799 144.112C86.4385 144.741 85.9159 145.243 85.2119 145.616C84.5185 145.979 83.6385 146.16 82.5719 146.16C81.0572 146.16 79.9052 145.776 79.1159 145.008C78.3265 144.229 77.9319 143.205 77.9319 141.936V134.576H80.3479V141.568C80.3479 142.507 80.5399 143.168 80.9239 143.552C81.3079 143.936 81.8785 144.128 82.6359 144.128C83.4252 144.128 83.9959 143.92 84.3479 143.504C84.7105 143.088 84.8919 142.437 84.8919 141.552V134.576H87.3079V141.968ZM97.0914 146L96.2594 143.28H92.0994L91.2674 146H88.6594L92.6914 134.528H95.6514L99.6994 146H97.0914ZM94.8514 138.592C94.798 138.411 94.7287 138.181 94.6434 137.904C94.558 137.627 94.4727 137.344 94.3874 137.056C94.302 136.768 94.2327 136.517 94.1794 136.304C94.126 136.517 94.0514 136.784 93.9554 137.104C93.87 137.413 93.7847 137.712 93.6994 138C93.6247 138.277 93.566 138.475 93.5234 138.592L92.7074 141.248H95.6834L94.8514 138.592ZM104.624 134.576C106.182 134.576 107.328 134.859 108.064 135.424C108.811 135.989 109.184 136.848 109.184 138C109.184 138.523 109.083 138.981 108.88 139.376C108.688 139.76 108.427 140.091 108.096 140.368C107.776 140.635 107.43 140.853 107.056 141.024L110.416 146H107.728L105.008 141.616H103.712V146H101.296V134.576H104.624ZM104.448 136.56H103.712V139.648H104.496C105.296 139.648 105.867 139.515 106.208 139.248C106.56 138.981 106.736 138.587 106.736 138.064C106.736 137.52 106.55 137.136 106.176 136.912C105.814 136.677 105.238 136.56 104.448 136.56ZM116.281 146H111.081V144.624L112.473 143.984V136.592L111.081 135.952V134.576H116.281V135.952L114.889 136.592V143.984L116.281 144.624V146ZM128.746 140.272C128.746 141.456 128.548 142.491 128.154 143.376C127.77 144.251 127.178 144.933 126.378 145.424C125.578 145.915 124.554 146.16 123.306 146.16C122.068 146.16 121.044 145.915 120.234 145.424C119.434 144.933 118.836 144.245 118.442 143.36C118.058 142.475 117.866 141.44 117.866 140.256C117.866 139.072 118.058 138.043 118.442 137.168C118.836 136.293 119.434 135.616 120.234 135.136C121.044 134.645 122.074 134.4 123.322 134.4C124.559 134.4 125.578 134.645 126.378 135.136C127.178 135.616 127.77 136.299 128.154 137.184C128.548 138.059 128.746 139.088 128.746 140.272ZM120.41 140.272C120.41 141.467 120.639 142.411 121.098 143.104C121.556 143.787 122.292 144.128 123.306 144.128C124.34 144.128 125.082 143.787 125.53 143.104C125.978 142.411 126.202 141.467 126.202 140.272C126.202 139.067 125.978 138.123 125.53 137.44C125.082 136.757 124.346 136.416 123.322 136.416C122.298 136.416 121.556 136.757 121.098 137.44C120.639 138.123 120.41 139.067 120.41 140.272ZM137.998 142.832C137.998 143.845 137.63 144.656 136.894 145.264C136.169 145.861 135.134 146.16 133.79 146.16C132.585 146.16 131.507 145.931 130.558 145.472V143.216C131.102 143.451 131.662 143.669 132.238 143.872C132.825 144.064 133.406 144.16 133.982 144.16C134.579 144.16 135.001 144.048 135.246 143.824C135.502 143.589 135.63 143.296 135.63 142.944C135.63 142.656 135.529 142.411 135.326 142.208C135.134 142.005 134.873 141.819 134.542 141.648C134.211 141.467 133.833 141.275 133.406 141.072C133.139 140.944 132.851 140.795 132.542 140.624C132.233 140.443 131.934 140.224 131.646 139.968C131.369 139.701 131.139 139.381 130.958 139.008C130.777 138.635 130.686 138.187 130.686 137.664C130.686 136.64 131.033 135.845 131.726 135.28C132.419 134.704 133.363 134.416 134.558 134.416C135.155 134.416 135.721 134.485 136.254 134.624C136.798 134.763 137.363 134.96 137.95 135.216L137.166 137.104C136.643 136.891 136.174 136.725 135.758 136.608C135.342 136.491 134.915 136.432 134.478 136.432C134.019 136.432 133.667 136.539 133.422 136.752C133.177 136.965 133.054 137.243 133.054 137.584C133.054 137.989 133.235 138.309 133.598 138.544C133.961 138.779 134.499 139.067 135.214 139.408C135.801 139.685 136.297 139.973 136.702 140.272C137.118 140.571 137.438 140.923 137.662 141.328C137.886 141.733 137.998 142.235 137.998 142.832Z" fill="#F2F2F2"/>
</svg>
