<svg width="212" height="212" viewBox="0 0 212 212" fill="none" xmlns="http://www.w3.org/2000/svg">
<g filter="url(#filter0_d_2099:2295)">
<path d="M5 31.8776C5 16.4812 17.4812 4 32.8776 4H171.122C186.519 4 199 16.4812 199 31.8776V170.122C199 185.519 186.519 198 171.122 198H32.8776C17.4812 198 5 185.519 5 170.122V31.8776Z" fill="#2C4C59"/>
<path d="M126.375 104.875H127.375V103.875V99.8125V99.6743L127.338 99.5414C127.163 98.9229 126.723 98.3739 126.231 97.9086C125.72 97.4256 125.057 96.9434 124.288 96.4731C122.748 95.5309 120.689 94.5786 118.336 93.7279C113.633 92.0276 107.626 90.6875 102 90.6875C96.374 90.6875 90.3666 92.0276 85.663 93.7333C83.3098 94.5867 81.2505 95.5432 79.7097 96.4917C78.9405 96.9652 78.2765 97.4513 77.7654 97.939C77.2722 98.4096 76.8343 98.9632 76.6615 99.5855L76.625 99.7168V99.8531V103.875V104.875H77.625H126.375ZM117.25 63.25C117.25 71.6758 110.426 78.5 102 78.5C93.5742 78.5 86.75 71.6758 86.75 63.25C86.75 54.8242 93.5742 48 102 48C110.426 48 117.25 54.8242 117.25 63.25ZM111.125 63.25C111.125 58.229 107.021 54.125 102 54.125C96.979 54.125 92.875 58.229 92.875 63.25C92.875 68.271 96.979 72.375 102 72.375C107.021 72.375 111.125 68.271 111.125 63.25ZM70.5 99.8125C70.5 97.4782 71.6614 95.3595 73.731 93.4494C75.8074 91.533 78.7308 89.8949 82.0543 88.5634C88.703 85.9 96.7016 84.5625 102 84.5625C107.298 84.5625 115.297 85.9 121.946 88.5634C125.269 89.8949 128.193 91.533 130.269 93.4494C132.339 95.3595 133.5 97.4782 133.5 99.8125V107.938C133.5 109.62 132.12 111 130.438 111H73.5625C71.8804 111 70.5 109.62 70.5 107.938V99.8125Z" fill="#F2F2F2" stroke="#2C4C59" stroke-width="2"/>
<path d="M71.1016 145.968C71.1016 146.757 70.9256 147.472 70.5736 148.112C70.2323 148.741 69.7096 149.243 69.0056 149.616C68.3123 149.979 67.4323 150.16 66.3656 150.16C64.851 150.16 63.699 149.776 62.9096 149.008C62.1203 148.229 61.7256 147.205 61.7256 145.936V138.576H64.1416V145.568C64.1416 146.507 64.3336 147.168 64.7176 147.552C65.1016 147.936 65.6723 148.128 66.4296 148.128C67.219 148.128 67.7896 147.92 68.1416 147.504C68.5043 147.088 68.6856 146.437 68.6856 145.552V138.576H71.1016V145.968ZM80.7854 146.832C80.7854 147.845 80.4174 148.656 79.6814 149.264C78.956 149.861 77.9214 150.16 76.5774 150.16C75.372 150.16 74.2947 149.931 73.3454 149.472V147.216C73.8894 147.451 74.4494 147.669 75.0254 147.872C75.612 148.064 76.1934 148.16 76.7694 148.16C77.3667 148.16 77.788 148.048 78.0334 147.824C78.2894 147.589 78.4174 147.296 78.4174 146.944C78.4174 146.656 78.316 146.411 78.1134 146.208C77.9214 146.005 77.66 145.819 77.3294 145.648C76.9987 145.467 76.62 145.275 76.1934 145.072C75.9267 144.944 75.6387 144.795 75.3294 144.624C75.02 144.443 74.7214 144.224 74.4334 143.968C74.156 143.701 73.9267 143.381 73.7454 143.008C73.564 142.635 73.4734 142.187 73.4734 141.664C73.4734 140.64 73.82 139.845 74.5134 139.28C75.2067 138.704 76.1507 138.416 77.3454 138.416C77.9427 138.416 78.508 138.485 79.0414 138.624C79.5854 138.763 80.1507 138.96 80.7374 139.216L79.9534 141.104C79.4307 140.891 78.9614 140.725 78.5454 140.608C78.1294 140.491 77.7027 140.432 77.2654 140.432C76.8067 140.432 76.4547 140.539 76.2094 140.752C75.964 140.965 75.8414 141.243 75.8414 141.584C75.8414 141.989 76.0227 142.309 76.3854 142.544C76.748 142.779 77.2867 143.067 78.0014 143.408C78.588 143.685 79.084 143.973 79.4894 144.272C79.9054 144.571 80.2254 144.923 80.4494 145.328C80.6734 145.733 80.7854 146.235 80.7854 146.832ZM92.3079 145.968C92.3079 146.757 92.1319 147.472 91.7799 148.112C91.4385 148.741 90.9159 149.243 90.2119 149.616C89.5185 149.979 88.6385 150.16 87.5719 150.16C86.0572 150.16 84.9052 149.776 84.1159 149.008C83.3265 148.229 82.9319 147.205 82.9319 145.936V138.576H85.3479V145.568C85.3479 146.507 85.5399 147.168 85.9239 147.552C86.3079 147.936 86.8785 148.128 87.6359 148.128C88.4252 148.128 88.9959 147.92 89.3479 147.504C89.7105 147.088 89.8919 146.437 89.8919 145.552V138.576H92.3079V145.968ZM102.091 150L101.259 147.28H97.0994L96.2674 150H93.6594L97.6914 138.528H100.651L104.699 150H102.091ZM99.8514 142.592C99.798 142.411 99.7287 142.181 99.6434 141.904C99.558 141.627 99.4727 141.344 99.3874 141.056C99.302 140.768 99.2327 140.517 99.1794 140.304C99.126 140.517 99.0514 140.784 98.9554 141.104C98.87 141.413 98.7847 141.712 98.6994 142C98.6247 142.277 98.566 142.475 98.5234 142.592L97.7074 145.248H100.683L99.8514 142.592ZM109.624 138.576C111.182 138.576 112.328 138.859 113.064 139.424C113.811 139.989 114.184 140.848 114.184 142C114.184 142.523 114.083 142.981 113.88 143.376C113.688 143.76 113.427 144.091 113.096 144.368C112.776 144.635 112.43 144.853 112.056 145.024L115.416 150H112.728L110.008 145.616H108.712V150H106.296V138.576H109.624ZM109.448 140.56H108.712V143.648H109.496C110.296 143.648 110.867 143.515 111.208 143.248C111.56 142.981 111.736 142.587 111.736 142.064C111.736 141.52 111.55 141.136 111.176 140.912C110.814 140.677 110.238 140.56 109.448 140.56ZM121.281 150H116.081V148.624L117.473 147.984V140.592L116.081 139.952V138.576H121.281V139.952L119.889 140.592V147.984L121.281 148.624V150ZM133.746 144.272C133.746 145.456 133.548 146.491 133.154 147.376C132.77 148.251 132.178 148.933 131.378 149.424C130.578 149.915 129.554 150.16 128.306 150.16C127.068 150.16 126.044 149.915 125.234 149.424C124.434 148.933 123.836 148.245 123.442 147.36C123.058 146.475 122.866 145.44 122.866 144.256C122.866 143.072 123.058 142.043 123.442 141.168C123.836 140.293 124.434 139.616 125.234 139.136C126.044 138.645 127.074 138.4 128.322 138.4C129.559 138.4 130.578 138.645 131.378 139.136C132.178 139.616 132.77 140.299 133.154 141.184C133.548 142.059 133.746 143.088 133.746 144.272ZM125.41 144.272C125.41 145.467 125.639 146.411 126.098 147.104C126.556 147.787 127.292 148.128 128.306 148.128C129.34 148.128 130.082 147.787 130.53 147.104C130.978 146.411 131.202 145.467 131.202 144.272C131.202 143.067 130.978 142.123 130.53 141.44C130.082 140.757 129.346 140.416 128.322 140.416C127.298 140.416 126.556 140.757 126.098 141.44C125.639 142.123 125.41 143.067 125.41 144.272ZM142.998 146.832C142.998 147.845 142.63 148.656 141.894 149.264C141.169 149.861 140.134 150.16 138.79 150.16C137.585 150.16 136.507 149.931 135.558 149.472V147.216C136.102 147.451 136.662 147.669 137.238 147.872C137.825 148.064 138.406 148.16 138.982 148.16C139.579 148.16 140.001 148.048 140.246 147.824C140.502 147.589 140.63 147.296 140.63 146.944C140.63 146.656 140.529 146.411 140.326 146.208C140.134 146.005 139.873 145.819 139.542 145.648C139.211 145.467 138.833 145.275 138.406 145.072C138.139 144.944 137.851 144.795 137.542 144.624C137.233 144.443 136.934 144.224 136.646 143.968C136.369 143.701 136.139 143.381 135.958 143.008C135.777 142.635 135.686 142.187 135.686 141.664C135.686 140.64 136.033 139.845 136.726 139.28C137.419 138.704 138.363 138.416 139.558 138.416C140.155 138.416 140.721 138.485 141.254 138.624C141.798 138.763 142.363 138.96 142.95 139.216L142.166 141.104C141.643 140.891 141.174 140.725 140.758 140.608C140.342 140.491 139.915 140.432 139.478 140.432C139.019 140.432 138.667 140.539 138.422 140.752C138.177 140.965 138.054 141.243 138.054 141.584C138.054 141.989 138.235 142.309 138.598 142.544C138.961 142.779 139.499 143.067 140.214 143.408C140.801 143.685 141.297 143.973 141.702 144.272C142.118 144.571 142.438 144.923 142.662 145.328C142.886 145.733 142.998 146.235 142.998 146.832Z" fill="#F2F2F2"/>
</g>
<defs>
<filter id="filter0_d_2099:2295" x="0" y="0" width="212" height="212" filterUnits="userSpaceOnUse" color-interpolation-filters="sRGB">
<feFlood flood-opacity="0" result="BackgroundImageFix"/>
<feColorMatrix in="SourceAlpha" type="matrix" values="0 0 0 0 0 0 0 0 0 0 0 0 0 0 0 0 0 0 127 0" result="hardAlpha"/>
<feMorphology radius="3" operator="erode" in="SourceAlpha" result="effect1_dropShadow_2099:2295"/>
<feOffset dx="4" dy="5"/>
<feGaussianBlur stdDeviation="6"/>
<feComposite in2="hardAlpha" operator="out"/>
<feColorMatrix type="matrix" values="0 0 0 0 0 0 0 0 0 0 0 0 0 0 0 0 0 0 0.15 0"/>
<feBlend mode="normal" in2="BackgroundImageFix" result="effect1_dropShadow_2099:2295"/>
<feBlend mode="normal" in="SourceGraphic" in2="effect1_dropShadow_2099:2295" result="shape"/>
</filter>
</defs>
</svg>
